<svg width="24" height="25" viewBox="0 0 24 25" fill="none" xmlns="http://www.w3.org/2000/svg">
<circle cx="22" cy="2" r="2" fill="#FF8800"/>
<mask id="mask0_2303_1875" style="mask-type:alpha" maskUnits="userSpaceOnUse" x="0" y="1" width="24" height="24">
<rect y="1" width="24" height="24" fill="#D9D9D9"/>
</mask>
<g mask="url(#mask0_2303_1875)">
<path d="M7 23C6.45 23 5.97917 22.8042 5.5875 22.4125C5.19583 22.0208 5 21.55 5 21C5 20.45 5.19583 19.9792 5.5875 19.5875C5.97917 19.1958 6.45 19 7 19C7.55 19 8.02083 19.1958 8.4125 19.5875C8.80417 19.9792 9 20.45 9 21C9 21.55 8.80417 22.0208 8.4125 22.4125C8.02083 22.8042 7.55 23 7 23ZM17 23C16.45 23 15.9792 22.8042 15.5875 22.4125C15.1958 22.0208 15 21.55 15 21C15 20.45 15.1958 19.9792 15.5875 19.5875C15.9792 19.1958 16.45 19 17 19C17.55 19 18.0208 19.1958 18.4125 19.5875C18.8042 19.9792 19 20.45 19 21C19 21.55 18.8042 22.0208 18.4125 22.4125C18.0208 22.8042 17.55 23 17 23ZM6.15 7L8.55 12H15.55L18.3 7H6.15ZM5.2 5H19.95C20.3333 5 20.625 5.17083 20.825 5.5125C21.025 5.85417 21.0333 6.2 20.85 6.55L17.3 12.95C17.1167 13.2833 16.8708 13.5417 16.5625 13.725C16.2542 13.9083 15.9167 14 15.55 14H8.1L7 16H19V18H7C6.25 18 5.68333 17.6708 5.3 17.0125C4.91667 16.3542 4.9 15.7 5.25 15.05L6.6 12.6L3 5H1V3H4.25L5.2 5Z" fill="#2B2B2B"/>
</g>
</svg>
