<svg width="64" height="64" viewBox="0 0 64 64" fill="none" xmlns="http://www.w3.org/2000/svg">
<path d="M19.876 44.013L19 30H45L44.124 44.013L43.5 54L43.117 60.125C43.051 61.179 42.177 62 41.121 62H22.879C21.823 62 20.949 61.179 20.883 60.125L20.5 54L19.876 44.013Z" fill="#FCD770"/>
<path d="M19.125 32H44.875L45 30H19L19.125 32Z" fill="#FFC729"/>
<path d="M29.383 16L32.044 3.581C32.242 2.659 33.057 2 34 2H45V6H35.617L33.474 16L33 17H29L29.383 16Z" fill="#CF9E76"/>
<path d="M33.474 16L33.902 14.004C33.868 14.004 33.835 14 33.802 14H30.198C30.067 14 29.938 14.014 29.807 14.017L29.383 16L29 17H33L33.474 16Z" fill="#B27946"/>
<path d="M46 26C44.837 20.185 39.732 16 33.802 16H30.198C24.268 16 19.163 20.185 18 26H46Z" fill="#E6E9ED"/>
<path d="M17 26H47C47.552 26 48 26.448 48 27V29C48 29.552 47.552 30 47 30H17C16.448 30 16 29.552 16 29V27C16 26.448 16.448 26 17 26Z" fill="#E6E9ED"/>
<path d="M32 54C36.9706 54 41 49.9706 41 45C41 40.0294 36.9706 36 32 36C27.0294 36 23 40.0294 23 45C23 49.9706 27.0294 54 32 54Z" fill="#FFEAA7"/>
<path d="M18 26H46C45.862 25.308 45.664 24.641 45.419 24H18.581C18.336 24.641 18.138 25.308 18 26Z" fill="#CCD1D9"/>
<path d="M31 54H44C45.105 54 46 53.105 46 52V46C46 44.895 45.105 44 44 44H36L32 48L31 49V54Z" fill="#DFB28B"/>
<path d="M33.206 46.7939L32 47.9999L31 48.9999V53.9999H39.69L33.206 46.7939Z" fill="#CF9E76"/>
<path d="M37 54L28 44H20C18.895 44 18 44.895 18 46V52C18 53.105 18.895 54 20 54H37Z" fill="#DFB28B"/>
<path d="M47 25H46.782C45.31 19.451 40.425 15.426 34.702 15.04L36.426 7H46V1H34C32.594 1 31.36 1.998 31.066 3.372L28.55 15.114C23.153 15.785 18.625 19.694 17.217 25H17C15.897 25 15 25.897 15 27V29C15 30.103 15.897 31 17 31H18.061L18.826 43.24C17.754 43.698 17 44.762 17 46V52C17 53.503 18.114 54.739 19.558 54.955L19.885 60.186C19.982 61.765 21.298 63 22.879 63H41.121C42.702 63 44.017 61.765 44.115 60.188L44.442 54.956C45.886 54.739 47 53.503 47 52V46C47 44.762 46.246 43.698 45.174 43.24L45.939 31H47C48.103 31 49 30.103 49 29V27C49 25.897 48.103 25 47 25ZM33.021 3.79C33.12 3.333 33.531 3 34 3H44V5H34.809L32.667 15H30.62L33.021 3.79ZM30.198 17H33.802C38.819 17 43.218 20.3 44.704 25H19.296C20.782 20.3 25.182 17 30.198 17ZM19 52V46C19 45.448 19.448 45 20 45H27.555L34.755 53H20C19.448 53 19 52.552 19 52ZM24.091 43C24.649 39.614 27.978 37 32 37C36.022 37 39.351 39.614 39.909 43H35.586L31.828 46.758L28.445 43H24.091ZM41.121 61H22.879C22.352 61 21.913 60.589 21.881 60.062L21.564 55H42.435L42.119 60.063C42.087 60.589 41.648 61 41.121 61ZM45 52C45 52.552 44.552 53 44 53H37.445L33.167 48.247L36.414 45H44C44.552 45 45 45.448 45 46V52ZM43.185 43H41.934C41.379 38.507 37.137 35 32 35C26.863 35 22.621 38.507 22.066 43H20.815L20.065 31H43.936L43.185 43ZM47 29H46.064H17.936H17L16.999 27H47V29Z" fill="black"/>
</svg>
