<svg width="64" height="64" viewBox="0 0 64 64" fill="none" xmlns="http://www.w3.org/2000/svg">
<g clip-path="url(#clip0_2244_2196)">
<path d="M9.87891 55.9929L10.7894 59.7286C10.9259 60.2886 11.4275 60.6826 12.0039 60.6826H51.9957C52.5721 60.6826 53.0737 60.2886 53.2102 59.7286L54.1207 55.9929H9.87891Z" fill="#FC9744"/>
<path d="M54.1197 55.9934L53.2097 59.7284C53.0734 60.2885 52.5709 60.6822 51.9947 60.6822H47.1934C47.7696 60.6822 48.2709 60.2885 48.4071 59.7284L49.3184 55.9934H54.1197Z" fill="#FB7722"/>
<path d="M52.595 30.475C54.9947 30.475 56.9401 28.5297 56.9401 26.13C56.9401 23.7303 54.9947 21.7849 52.595 21.7849C50.1953 21.7849 48.25 23.7303 48.25 26.13C48.25 28.5297 50.1953 30.475 52.595 30.475Z" fill="#FB3A82"/>
<path d="M56.9403 26.1304C56.9403 28.5292 54.994 30.4755 52.5952 30.4755C52.0296 30.4755 51.4872 30.3667 50.9912 30.168C52.5967 29.5299 53.7307 27.9621 53.7307 26.1304C53.7307 24.2973 52.5966 22.7295 50.9912 22.0929C51.4872 21.8943 52.0296 21.7854 52.5952 21.7854C54.994 21.7853 56.9403 23.7302 56.9403 26.1304Z" fill="#FB1466"/>
<path d="M48.6728 26.1297C50.7411 26.1297 52.4178 24.453 52.4178 22.3847C52.4178 20.3164 50.7411 18.6396 48.6728 18.6396C46.6044 18.6396 44.9277 20.3164 44.9277 22.3847C44.9277 24.453 46.6044 26.1297 48.6728 26.1297Z" fill="#FB3A82"/>
<path d="M52.4186 22.3852C52.4186 24.4527 50.741 26.1302 48.6735 26.1302C48.186 26.1302 47.7185 26.0365 47.291 25.8652C48.6748 25.3152 49.6523 23.9639 49.6523 22.3852C49.6523 20.8052 48.6748 19.4539 47.291 18.9051C47.7185 18.7339 48.186 18.6401 48.6735 18.6401C50.741 18.6401 52.4186 20.3164 52.4186 22.3852Z" fill="#FB1466"/>
<path d="M40.4278 19.9435L41.0214 17.5636C41.1044 17.2307 41.4417 17.028 41.7745 17.1112L46.2327 18.2232C46.5656 18.3062 46.7682 18.6434 46.6851 18.9763L46.0915 21.3562C46.0085 21.6891 45.6712 21.8917 45.3383 21.8086L40.8802 20.6966C40.5473 20.6135 40.3448 20.2763 40.4278 19.9435Z" fill="#A3E440"/>
<path d="M45.3383 21.809L43.1357 21.2596C43.4685 21.3426 43.8059 21.1399 43.8889 20.8073L44.4828 18.4262C44.5658 18.0935 44.363 17.7561 44.0304 17.6731L46.2329 18.2225C46.5657 18.3055 46.7683 18.6429 46.6853 18.9756L46.0914 21.3566C46.0084 21.6893 45.671 21.892 45.3383 21.809Z" fill="#99D53B"/>
<path d="M20.4183 4.34943C19.9239 3.4548 18.7988 3.07255 17.8601 3.4773C17.4409 3.65805 17.1174 3.96343 16.9088 4.32943C16.4943 4.25393 16.0522 4.30556 15.6441 4.51068C14.7309 4.96969 14.3006 6.07745 14.6684 7.03108C14.9596 7.78659 15.6434 8.25547 16.3833 8.31697C16.9324 8.3626 17.4059 8.7231 17.6388 9.22248L20.478 15.3114L23.0271 14.1228L20.1878 8.03384C19.9549 7.53446 19.983 6.94008 20.301 6.49008C20.7298 5.88357 20.81 5.05819 20.4183 4.34943Z" fill="#FFF2DF"/>
<path d="M23.3152 12.7151L23.2888 12.6585C22.9187 11.8649 21.9754 11.5215 21.1818 11.8916L19.9558 12.4633C19.1621 12.8334 18.8188 13.7767 19.1889 14.5703L19.2153 14.6269C19.6783 15.6199 19.676 16.7554 19.2608 17.7693C18.5368 19.5371 18.5809 21.7744 19.554 23.8614C21.2102 27.413 24.9296 29.1841 27.8616 27.8168C30.7935 26.4497 31.8278 22.4621 30.1715 18.9103C29.1984 16.8233 27.5127 15.3515 25.6932 14.7698C24.6497 14.4363 23.7783 13.708 23.3152 12.7151Z" fill="#A34F41"/>
<path d="M30.1703 18.91C31.8269 22.4627 30.7926 26.4498 27.8605 27.8169C27.6101 27.9337 27.3559 28.0274 27.0951 28.098C28.5335 26.2343 28.7995 23.3352 27.5606 20.6786C26.5875 18.5918 24.9014 17.1203 23.0825 16.5382C22.0391 16.2054 21.167 15.477 20.7042 14.4845L20.6778 14.4279C20.3857 13.8014 19.7358 13.4548 19.0859 13.5193C19.1978 13.0699 19.5038 12.6734 19.9548 12.4631L21.1806 11.8915C21.9747 11.5211 22.9183 11.8646 23.2886 12.6588L23.315 12.7154C23.7777 13.7078 24.6487 14.4368 25.692 14.7695C27.5121 15.351 29.1972 16.8231 30.1703 18.91Z" fill="#873F30"/>
<path d="M55.576 40.4505C58.1489 40.4505 60.2987 38.397 60.3106 35.8242C60.3207 33.6481 58.8352 31.8179 56.8227 31.3008C56.3254 31.173 55.9269 30.7977 55.7655 30.3103C55.2584 28.779 53.9769 27.6011 52.3845 27.2404C51.9434 27.1405 51.575 26.8503 51.3575 26.4536C50.74 25.3274 49.67 24.4847 48.3918 24.1709C47.9942 24.0732 47.652 23.8199 47.4433 23.4675C46.6341 22.1007 45.1451 21.1841 43.4415 21.1841C43.4384 21.1841 43.4352 21.1841 43.432 21.1841C42.895 21.1852 42.3942 20.9234 42.1039 20.4716C41.2775 19.1846 39.8344 18.3317 38.1912 18.3317C37.7837 18.3317 37.3886 18.3844 37.0121 18.4833C36.4552 18.6296 35.8737 18.4366 35.4938 18.0038C34.642 17.0333 33.3924 16.4207 31.9996 16.4207C30.6067 16.4207 29.3572 17.0334 28.5053 18.0038C28.1254 18.4366 27.5439 18.6296 26.987 18.4833C26.6105 18.3844 26.2154 18.3317 25.8079 18.3317C24.1647 18.3317 22.7216 19.1847 21.8952 20.4716C21.6051 20.9234 21.1041 21.1852 20.5671 21.1841C20.5639 21.1841 20.5607 21.1841 20.5576 21.1841C18.8541 21.1841 17.365 22.1007 16.5558 23.4675C16.3472 23.8199 16.0049 24.0732 15.6073 24.1709C14.3291 24.4847 13.2591 25.3274 12.6416 26.4536C12.4241 26.8503 12.0559 27.1405 11.6146 27.2404C10.0223 27.6011 8.74083 28.779 8.23357 30.3102C8.0722 30.7975 7.67357 31.1728 7.17644 31.3007C5.16392 31.8178 3.6784 33.6479 3.68853 35.8241C3.70053 38.3969 5.8503 40.4504 8.42307 40.4504H55.576V40.4505Z" fill="#FEE265"/>
<path d="M60.3098 35.8248C60.2986 38.3974 58.1485 40.4511 55.576 40.4511H55.2635C55.7985 39.7049 56.116 38.7974 56.121 37.8124C56.131 35.6361 54.646 33.8061 52.6335 33.2886C52.136 33.1611 51.7372 32.7861 51.576 32.2986C51.0685 30.7673 49.7872 29.5898 48.1947 29.2285C47.7534 29.1285 47.3859 28.8385 47.1684 28.4423C46.5509 27.316 45.4809 26.4722 44.2022 26.1585C43.8046 26.061 43.4621 25.8072 43.2534 25.456C42.4446 24.0885 40.9559 23.1722 39.2521 23.1722H39.2421C38.7058 23.1735 38.2046 22.911 37.9146 22.4597C37.0883 21.1722 35.6446 20.3197 34.0021 20.3197C33.5945 20.3197 33.1995 20.3722 32.822 20.4709C32.2658 20.6172 31.6845 20.4247 31.3045 19.9922C30.4808 19.0534 29.2858 18.4497 27.9482 18.4097C28.1582 18.3209 28.3495 18.1822 28.5057 18.0034C29.357 17.0334 30.607 16.4209 31.9995 16.4209C33.392 16.4209 34.6421 17.0334 35.4933 18.0034C35.8733 18.4372 36.4546 18.6297 37.0121 18.4834C37.3883 18.3847 37.7833 18.3322 38.1908 18.3322C39.8346 18.3322 41.2771 19.1847 42.1034 20.4722C42.3934 20.9234 42.8946 21.1847 43.4321 21.1847H43.4409C45.1447 21.1847 46.6334 22.101 47.4434 23.4672C47.6522 23.8197 47.9934 24.0735 48.3922 24.171C49.6697 24.4847 50.7397 25.3272 51.3572 26.4535C51.5747 26.851 51.9435 27.141 52.3847 27.241C53.9772 27.601 55.2585 28.7798 55.7648 30.311C55.9273 30.7973 56.3248 31.1735 56.8223 31.301C58.8348 31.8185 60.3212 33.6486 60.3098 35.8248Z" fill="#FDD330"/>
<path d="M9.23157 10.9009C8.46106 10.2294 7.27305 10.255 6.52942 10.9563C6.19729 11.2695 5.99766 11.6671 5.92691 12.0824C5.51153 12.1531 5.1139 12.3529 4.80052 12.6851C4.09939 13.4289 4.07389 14.6169 4.74565 15.3873C5.27778 15.9976 6.08054 16.2044 6.79692 16.0091C7.32855 15.8641 7.8968 16.0409 8.28643 16.4306L13.0371 21.1812L15.0259 19.1925L10.2752 14.4418C9.88557 14.0522 9.7087 13.4839 9.8537 12.9524C10.0491 12.236 9.84207 11.433 9.23157 10.9009Z" fill="#FFF2DF"/>
<path d="M14.8147 17.7714L14.7706 17.7273C14.1514 17.1082 13.1474 17.1082 12.5283 17.7273L11.5718 18.6838C10.9526 19.3029 10.9526 20.3069 11.5718 20.9261L11.6159 20.9702C12.3907 21.745 12.7768 22.8128 12.7334 23.9076C12.6578 25.8164 13.4643 27.9036 15.0926 29.532C17.8636 32.3031 21.9644 32.6951 24.2519 30.4075C26.5394 28.12 26.1474 24.0192 23.3764 21.2482C21.7481 19.6199 19.6608 18.8133 17.7521 18.889C16.6572 18.9323 15.5893 18.546 14.8147 17.7714Z" fill="#A34F41"/>
<path d="M23.3759 21.248C26.1478 24.0199 26.5393 28.1203 24.2518 30.4077C24.0564 30.6031 23.8496 30.7781 23.6286 30.9336C24.3428 28.6903 23.6013 25.875 21.5285 23.8024C19.9003 22.1742 17.8126 21.3681 15.9043 21.4432C14.81 21.4875 13.7414 21.1012 12.9672 20.3268L12.9229 20.2826C12.4342 19.7938 11.7049 19.6903 11.1163 19.9732C11.0676 19.5127 11.2196 19.0354 11.5715 18.6836L12.5279 17.7272C13.1475 17.1075 14.1517 17.1075 14.7712 17.7272L14.8154 17.7714C15.5897 18.5457 16.6574 18.9328 17.7517 18.8887C19.661 18.8129 21.7479 19.6198 23.3759 21.248Z" fill="#873F30"/>
<path d="M10.8662 34.0809C11.345 33.2362 12.1565 32.605 13.1235 32.3675C13.4296 32.2924 13.693 32.0974 13.8536 31.8262C14.4765 30.7741 15.6226 30.0686 16.9339 30.0686H16.9411C17.3545 30.0695 17.74 29.868 17.9634 29.5203C18.5995 28.5296 19.7103 27.8731 20.9751 27.8731C21.2888 27.8731 21.5928 27.9137 21.8827 27.9899C22.3113 28.1024 22.759 27.9539 23.0513 27.6207C23.7071 26.8737 24.6688 26.4021 25.7409 26.4021C26.8129 26.4021 27.7748 26.8737 28.4304 27.6207V34.081H10.8662V34.0809Z" fill="#FEE265"/>
<path d="M60.801 35.2202H3.19757C1.84668 35.2202 0.788921 36.3991 0.953423 37.7399C1.82418 44.8351 5.07534 51.1891 9.87826 55.993H54.1203C58.9232 51.1891 62.1745 44.8351 63.0452 37.7399C63.2097 36.3991 62.1519 35.2202 60.801 35.2202Z" fill="#FCA863"/>
<path d="M60.8012 35.2197H55.7049C57.0562 35.2197 58.1137 36.3985 57.95 37.7398C57.0794 44.8344 53.8289 51.1889 49.0264 55.9929H54.1195C58.9227 51.189 62.1741 44.8348 63.045 37.7398C63.21 36.3985 62.1525 35.2197 60.8012 35.2197Z" fill="#FC9744"/>
<path d="M29.8962 21.1135L27.5461 20.4112C27.2173 20.313 27.0305 19.9668 27.1287 19.6381L28.4444 15.2358C28.5426 14.907 28.8887 14.7202 29.2175 14.8184L31.5676 15.5207C31.8964 15.6189 32.0833 15.9651 31.985 16.2938L30.6694 20.6961C30.5711 21.0248 30.225 21.2117 29.8962 21.1135Z" fill="#A3E440"/>
<path d="M31.9856 16.2941L31.3356 18.4691C31.4339 18.1405 31.2469 17.7943 30.9182 17.696L28.5671 16.9934C28.2384 16.8953 27.8922 17.0821 27.7939 17.4108L28.444 15.2357C28.5422 14.9071 28.8885 14.7202 29.2171 14.8184L31.5682 15.521C31.8967 15.6192 32.0837 15.9656 31.9856 16.2941Z" fill="#99D53B"/>
<path d="M38.7248 28.3749L38.7883 25.9228C38.7972 25.5798 39.0825 25.309 39.4255 25.3178L44.0186 25.4368C44.3616 25.4457 44.6325 25.731 44.6236 26.074L44.5601 28.526C44.5513 28.869 44.266 29.1399 43.923 29.131L39.3298 29.012C38.9868 29.0031 38.7159 28.7179 38.7248 28.3749Z" fill="#A3E440"/>
<path d="M43.9236 29.1315L41.6543 29.0727C41.9971 29.0816 42.2826 28.8106 42.2914 28.4677L42.3549 26.0146C42.3638 25.6718 42.0928 25.3863 41.7499 25.3774L44.0192 25.4362C44.3619 25.4451 44.6331 25.7304 44.6242 26.0733L44.5607 28.5265C44.5518 28.8694 44.2663 29.1404 43.9236 29.1315Z" fill="#99D53B"/>
<path d="M33.7957 24.1399C33.8212 24.1039 33.9061 24.0506 34.0351 24.0506C34.1642 24.0506 34.2491 24.1039 34.2746 24.1399C34.4574 24.3973 34.7462 24.5346 35.0397 24.5346C35.2275 24.5346 35.4171 24.4783 35.5817 24.3613C36.0039 24.0616 36.103 23.4762 35.8031 23.054C35.4124 22.5039 34.7514 22.1755 34.035 22.1755C33.3186 22.1755 32.6577 22.5039 32.267 23.054C31.9672 23.4762 32.0663 24.0614 32.4883 24.3613C32.9106 24.6613 33.4958 24.5621 33.7957 24.1399Z" fill="black"/>
<path d="M34.3847 29.2927C33.6683 29.2927 33.0073 29.6211 32.6165 30.1714C32.3168 30.5935 32.416 31.1787 32.838 31.4786C33.2604 31.7785 33.8454 31.6791 34.1453 31.2571C34.1707 31.2212 34.2555 31.1679 34.3845 31.1679C34.5137 31.1679 34.5985 31.2212 34.6239 31.2571C34.8068 31.5145 35.0957 31.6519 35.3892 31.6519C35.5769 31.6519 35.7664 31.5956 35.9312 31.4786C36.3533 31.1789 36.4526 30.5936 36.1527 30.1714C35.7621 29.6212 35.1011 29.2927 34.3847 29.2927Z" fill="black"/>
<path d="M47.6944 31.4583C47.7197 31.4224 47.8046 31.369 47.9337 31.369C48.0627 31.369 48.1475 31.4223 48.1729 31.458C48.4726 31.8802 49.0576 31.9797 49.48 31.6799C49.9023 31.3803 50.0016 30.795 49.7019 30.3728C49.3113 29.8225 48.6503 29.4939 47.9336 29.4939C47.2172 29.4939 46.5561 29.8223 46.1654 30.3725C45.8656 30.7947 45.9649 31.3799 46.3869 31.6798C46.5516 31.7968 46.7411 31.853 46.9289 31.853C47.2226 31.853 47.5115 31.7157 47.6944 31.4583Z" fill="black"/>
<path d="M25.7412 29.8198C25.0249 29.8198 24.3638 30.1482 23.973 30.6983C23.6733 31.1205 23.7724 31.7057 24.1944 32.0056C24.6163 32.3056 25.2019 32.2062 25.5015 31.7842C25.527 31.7482 25.6119 31.6948 25.741 31.6948C25.87 31.6948 25.9549 31.7482 25.9804 31.7842C26.1632 32.0416 26.452 32.1788 26.7455 32.1788C26.9333 32.1788 27.1229 32.1226 27.2875 32.0056C27.7097 31.7058 27.8088 31.1205 27.5089 30.6983C27.1184 30.1483 26.4575 29.8198 25.7412 29.8198Z" fill="black"/>
<path d="M63.2006 35.3634C62.6457 34.7363 61.8685 34.3544 61.0396 34.2926C60.5065 32.4069 58.9869 30.8889 57.0552 30.3925C56.8672 30.3443 56.7173 30.2029 56.6552 30.0164C56.6152 29.8953 56.5705 29.7763 56.5225 29.659C57.3899 28.6956 57.8776 27.4452 57.8776 26.1293C57.8776 23.3879 55.7783 21.1282 53.1029 20.8717C52.4723 19.03 50.7251 17.7018 48.6725 17.7018C48.2146 17.7018 47.7641 17.768 47.3326 17.8968C47.1252 17.6174 46.824 17.4049 46.4604 17.3134L42.004 16.2026C41.5994 16.1009 41.1801 16.163 40.8225 16.3774C40.4651 16.5919 40.2129 16.9326 40.1128 17.3363L40.0215 17.7026C39.4419 17.5023 38.8255 17.3943 38.1912 17.3943C37.7112 17.3943 37.2346 17.4555 36.7745 17.5763C36.5695 17.6299 36.3486 17.557 36.1987 17.3863C35.3253 16.3898 34.1325 15.7446 32.8402 15.5477C32.8172 15.4892 32.7917 15.4315 32.7614 15.3754C32.5637 15.009 32.2351 14.7415 31.8362 14.6224L29.4862 13.9201C29.0872 13.801 28.6658 13.8441 28.2993 14.042C28.0291 14.1879 27.8134 14.4051 27.6706 14.669C27.1309 14.3335 26.5609 14.0642 25.9792 13.8776C25.1676 13.618 24.506 13.0497 24.1685 12.3277L24.1384 12.2613C23.8203 11.5807 23.2345 11.1107 22.5648 10.9127L21.0384 7.63892C20.9421 7.43129 20.9532 7.19316 21.0683 7.03066C21.7271 6.09628 21.7923 4.89477 21.239 3.89576C20.5143 2.58399 18.8673 2.02236 17.4914 2.61612C17.0913 2.78775 16.7412 3.04025 16.4572 3.3595C16.0303 3.37188 15.612 3.47725 15.224 3.67238C13.8829 4.34564 13.2544 5.96928 13.7938 7.36892C14.2051 8.43555 15.1679 9.15656 16.3049 9.25081C16.5058 9.26768 16.692 9.40918 16.7902 9.61906L18.3162 12.8915C18.2952 12.9396 18.2732 12.9871 18.255 13.0368C18.0243 13.6702 18.054 14.3556 18.3388 14.9665C18.3414 14.972 18.344 14.9776 18.3467 14.9831L18.3698 15.0301C18.7064 15.7597 18.7152 16.6281 18.3939 17.4126C18.322 17.5875 18.2584 17.7678 18.1998 17.9508C18.038 17.9465 17.8763 17.946 17.7148 17.9524C16.8628 17.9868 16.0479 17.6789 15.478 17.1091L15.4345 17.0656C14.958 16.5883 14.3241 16.3254 13.6496 16.3254C13.5968 16.3254 13.5445 16.3299 13.4921 16.3331L10.9376 13.7777C10.7763 13.617 10.7057 13.3901 10.7575 13.2007C11.0596 12.0983 10.711 10.9465 9.84821 10.1949C8.71833 9.20993 6.97819 9.24493 5.88743 10.2734C5.57055 10.5713 5.32817 10.9283 5.17054 11.3257C4.77479 11.4828 4.41791 11.725 4.11866 12.0421C3.09002 13.1331 3.05477 14.873 4.03953 16.0044C4.79104 16.8653 5.94255 17.2135 7.04381 16.9135C7.23456 16.8614 7.46282 16.9324 7.62394 17.0931L10.1793 19.6495C10.1368 20.3462 10.3782 21.0573 10.9088 21.5891L10.953 21.6333C11.5232 22.2036 11.8307 23.0189 11.7967 23.8711C11.772 24.5011 11.8317 25.1343 11.965 25.7588C11.915 25.84 11.8654 25.9212 11.8204 26.0032C11.7291 26.1697 11.5785 26.2873 11.4074 26.3261C9.51171 26.7561 7.95495 28.17 7.34531 30.014C7.28244 30.2026 7.13256 30.3441 6.94381 30.3925C5.01267 30.8888 3.49315 32.4068 2.96015 34.2924C2.13139 34.3543 1.35401 34.7362 0.799125 35.3633C0.195745 36.0452 -0.0870082 36.953 0.0234929 37.8538C0.564498 42.262 1.98876 46.4384 4.25678 50.2668C4.43191 50.5625 4.74391 50.7267 5.06429 50.7266C5.22679 50.7266 5.39142 50.6843 5.54117 50.5956C5.98668 50.3317 6.1338 49.7567 5.87005 49.3112C4.23441 46.5503 3.06665 43.5969 2.38002 40.5011H61.6162C60.3955 45.9474 57.6571 51.0242 53.7291 55.0554H10.2705C9.52584 54.2911 8.8137 53.4789 8.14982 52.6365C7.82932 52.2297 7.23969 52.16 6.83318 52.4805C6.42656 52.801 6.35668 53.3905 6.67718 53.7971C7.41081 54.7279 8.20182 55.6219 9.02808 56.4624L9.87834 59.9504C10.118 60.9334 10.992 61.6199 12.0037 61.6199H51.9955C53.0073 61.6199 53.8813 60.9334 54.1209 59.9504L54.9703 56.4653C59.9243 51.4265 63.1204 44.8285 63.9764 37.8538C64.0867 36.9531 63.804 36.0453 63.2006 35.3634ZM56.0024 26.1293C56.0024 26.7976 55.8069 27.4396 55.451 27.9861C54.6953 27.1697 53.7029 26.5782 52.5921 26.3264C52.4211 26.2876 52.2706 26.1698 52.1794 26.0036C52.12 25.8953 52.0561 25.7903 51.9901 25.687C52.7594 24.9166 53.2365 23.902 53.334 22.8034C54.8587 23.1422 56.0024 24.5043 56.0024 26.1293ZM51.4799 22.3843C51.4799 23.1049 51.2077 23.7823 50.7302 24.2952C50.1114 23.8079 49.3919 23.4507 48.6151 23.2599C48.4603 23.2221 48.3308 23.1263 48.2502 22.9903C47.9203 22.4334 47.4981 21.9477 47.0115 21.5443L47.429 19.8684C47.8135 19.6779 48.237 19.5768 48.6723 19.5768C50.2205 19.5768 51.4799 20.8363 51.4799 22.3843ZM41.8552 18.098L45.6991 19.056L45.3197 20.579C44.7211 20.3639 44.0833 20.2468 43.4302 20.2468C43.4295 20.2468 43.429 20.2468 43.4284 20.2468C43.2062 20.2468 43.0057 20.1415 42.8925 19.9654C42.5672 19.4583 42.1697 19.0159 41.7183 18.6474L41.8552 18.098ZM29.252 15.8072L30.996 16.3284L29.8615 20.1247L28.1175 19.6035L29.252 15.8072ZM16.4608 7.38242C16.0451 7.34804 15.6934 7.08429 15.5431 6.69466C15.35 6.19365 15.5843 5.58977 16.0659 5.34802C16.33 5.21514 16.5797 5.22227 16.7429 5.25177C17.1342 5.32252 17.5273 5.13877 17.7242 4.79339C17.8057 4.65039 17.9597 4.45564 18.2322 4.33876C18.7264 4.12526 19.3388 4.33364 19.5983 4.80339C19.8008 5.16902 19.7769 5.6084 19.5372 5.94853C19.0337 6.65941 18.9574 7.61004 19.3387 8.4303L20.5972 11.1301L19.7479 11.5257L18.489 8.82593C18.1068 8.00855 17.3302 7.45554 16.4608 7.38242ZM20.0659 14.2312C20.0633 14.2255 20.0606 14.2197 20.0578 14.2141L20.0351 14.1679C19.9648 14.0126 19.9582 13.8392 20.0167 13.6786C20.0761 13.5157 20.1952 13.3858 20.3519 13.3127L21.5783 12.7415C21.902 12.5907 22.2882 12.731 22.4351 13.0458L22.4653 13.1125C23.0276 14.3155 24.1002 15.2452 25.407 15.6631C25.9869 15.8492 26.5561 16.1455 27.0795 16.529L26.7943 17.4835C26.47 17.4256 26.1402 17.3943 25.8085 17.3943C24.3255 17.3943 22.9453 17.9658 21.9095 18.9832C21.3226 18.6617 20.7101 18.4126 20.0849 18.2388C20.0996 18.2008 20.1132 18.162 20.1286 18.1245C20.6487 16.8538 20.6259 15.4347 20.0659 14.2312ZM6.55068 15.1047C6.14868 15.2141 5.72717 15.0866 5.45292 14.7725C5.10054 14.3676 5.11392 13.72 5.48267 13.3288C5.6443 13.1575 5.85192 13.0463 6.08293 13.0073C6.47581 12.9411 6.78381 12.6338 6.85118 12.2412C6.87918 12.0781 6.95744 11.8412 7.17281 11.6388C7.56444 11.2696 8.21182 11.2558 8.61645 11.6087C8.9317 11.8833 9.05933 12.3036 8.94896 12.7061C8.71908 13.5482 8.97396 14.4677 9.61284 15.1046L11.7191 17.2118L11.0561 17.8746L8.94896 15.7667C8.30945 15.1291 7.39044 14.8754 6.55068 15.1047ZM2.02601 38.6262C1.97401 38.294 1.92551 37.9608 1.88439 37.6257C1.83864 37.2522 1.95176 36.8901 2.20314 36.606C2.45527 36.3211 2.8179 36.1577 3.19802 36.1577H43.7045C44.2224 36.1577 44.6421 35.7379 44.6421 35.2202C44.6421 34.7024 44.2224 34.2827 43.7045 34.2827H4.95367C5.40992 33.2748 6.30905 32.4918 7.40956 32.2089C8.2177 32.0018 8.85858 31.403 9.12458 30.605C9.52984 29.3793 10.5633 28.4405 11.8217 28.155C12.1309 28.0849 12.4192 27.9529 12.6769 27.7749C13.0784 28.5757 13.61 29.3326 14.2586 30.0148C13.7759 30.3695 13.3604 30.8198 13.0474 31.3485C12.7836 31.794 12.9307 32.3692 13.3764 32.6329C13.5262 32.7217 13.6908 32.7638 13.8531 32.7638C14.1734 32.7638 14.4856 32.5995 14.6606 32.3038C15.1346 31.5034 16.0059 31.0061 16.9394 31.0061H16.944C17.6827 31.0061 18.3585 30.6403 18.7527 30.0266C19.2416 29.2651 20.0724 28.8105 20.9752 28.8105C21.2021 28.8105 21.4273 28.8394 21.6448 28.8965C22.4135 29.0981 23.2228 28.8464 23.756 28.2391C24.2579 27.6675 24.9814 27.3396 25.741 27.3396C26.5006 27.3396 27.2241 27.6675 27.726 28.2391C28.0676 28.6282 28.66 28.6667 29.0492 28.3251C29.4382 27.9836 29.4768 27.3912 29.1352 27.0021C28.4686 26.2429 27.5726 25.7366 26.5968 25.548C26.5664 25.3376 26.529 25.1271 26.481 24.9176C26.3654 24.4128 25.8626 24.0976 25.358 24.2128C24.8532 24.3283 24.5377 24.8311 24.6531 25.3358C24.6722 25.4193 24.689 25.503 24.7044 25.5866C23.799 25.8005 22.9718 26.2899 22.3467 27.0021C22.2842 27.0734 22.2 27.1036 22.1206 27.0829C21.748 26.9851 21.3626 26.9355 20.9751 26.9355C19.4308 26.9355 18.01 27.7124 17.1748 29.0135C17.1274 29.0871 17.0413 29.131 16.9348 29.131C16.9345 29.131 16.9343 29.131 16.934 29.131C16.6579 29.131 16.3852 29.1583 16.118 29.208C15.9949 29.0996 15.8738 28.9865 15.7558 28.8685C14.3825 27.4962 13.6026 25.6556 13.6699 23.9453C13.7246 22.5724 13.2175 21.2466 12.2789 20.3079L12.2354 20.2644C11.9826 20.011 11.9822 19.5995 12.2346 19.347L13.1916 18.39C13.3137 18.2676 13.4761 18.2004 13.6491 18.2003C13.8223 18.2003 13.9849 18.2676 14.1071 18.3903L14.1514 18.4345C15.0904 19.3735 16.4144 19.8808 17.7893 19.8258C19.4986 19.7568 21.3392 20.5369 22.7086 21.9053C22.774 21.9718 22.837 22.0383 22.9002 22.1061C23.2533 22.4848 23.8466 22.5053 24.2252 22.1521C24.6039 21.7988 24.6244 21.2055 24.2711 20.827C24.1966 20.7472 24.1222 20.6687 24.0395 20.5847C23.8626 20.4079 23.6789 20.2415 23.4917 20.0812C24.141 19.5584 24.9486 19.269 25.808 19.269C25.957 19.269 26.1051 19.2787 26.252 19.2963L26.2301 19.3693C26.1109 19.7682 26.1541 20.1897 26.352 20.5562C26.5498 20.9225 26.8784 21.1899 27.2773 21.3091L29.6274 22.0114H29.6275C29.7752 22.0556 29.9259 22.0774 30.0758 22.0774C30.3308 22.0774 30.5835 22.0142 30.8142 21.8897C31.1807 21.6918 31.448 21.3632 31.5671 20.9643L32.6284 17.4124C33.4593 17.5555 34.2241 17.9786 34.7888 18.6229C35.411 19.331 36.354 19.6247 37.2497 19.3897C37.5545 19.3097 37.8712 19.2692 38.1906 19.2692C39.4598 19.2692 40.6274 19.9079 41.3144 20.9784C41.7748 21.6946 42.5644 22.1217 43.4344 22.1217H43.4407C44.7456 22.1217 45.9701 22.8206 46.6365 23.9457C46.9712 24.5108 47.5297 24.9248 48.1683 25.081C49.1717 25.3273 50.0345 25.9922 50.5351 26.9052C50.8845 27.542 51.483 27.9974 52.1771 28.1549C53.4356 28.4402 54.4692 29.379 54.8752 30.607C55.1404 31.4029 55.7813 32.0017 56.5887 32.2085C57.6898 32.4915 58.5891 33.2747 59.0453 34.2826H47.8695C47.3516 34.2826 46.932 34.7023 46.932 35.2201C46.932 35.7378 47.3516 36.1576 47.8695 36.1576H60.8016C61.1817 36.1576 61.5443 36.3209 61.7965 36.6058C62.0478 36.8898 62.161 37.2521 62.1152 37.6255C62.0742 37.9601 62.026 38.2935 61.9735 38.6261H2.02601V38.6262ZM51.9954 59.7452H12.0037C11.8592 59.7452 11.7344 59.6471 11.7001 59.5067L11.0722 56.9305H52.9269L52.299 59.5067C52.2649 59.6471 52.14 59.7452 51.9954 59.7452Z" fill="black"/>
<path d="M44.0429 24.4996L39.4496 24.3806C38.5919 24.3594 37.8735 25.0394 37.8511 25.8985L37.7876 28.3505V28.3508C37.7655 29.21 38.4465 29.9269 39.3055 29.9492L43.8987 30.0682C43.9123 30.0685 43.9261 30.0687 43.9397 30.0687C44.7806 30.0687 45.4752 29.3958 45.4972 28.5503L45.5607 26.0984C45.583 25.2391 44.9022 24.5219 44.0429 24.4996ZM43.6311 28.1855L39.67 28.0829L39.7172 26.2633L43.6782 26.3659L43.6311 28.1855Z" fill="black"/>
</g>
<defs>
<clipPath id="clip0_2244_2196">
<rect width="64" height="64" fill="white"/>
</clipPath>
</defs>
</svg>
