<svg width="64" height="64" viewBox="0 0 64 64" fill="none" xmlns="http://www.w3.org/2000/svg">
<g clip-path="url(#clip0_2256_151)">
<path d="M61.1327 43.1022C58.2139 40.4819 54.0534 40.1032 50.3703 39.6495C49.1612 39.5005 47.9496 39.3725 46.7363 39.263C44.2993 39.0432 41.8559 38.8984 39.4109 38.8105C34.5318 38.6354 29.6472 38.6877 24.7682 38.8412C22.5654 38.9105 20.3631 39.0522 18.1769 39.3407C14.5584 39.8183 10.0749 40.5563 7.23893 43.1022C3.37568 46.5704 5.88543 50.9142 9.73168 53.1668C12.5999 54.8467 15.9509 55.6242 19.1762 56.249C24.0221 57.1879 28.8379 57.6478 33.7059 57.676C38.9066 57.676 44.0843 57.2393 49.1952 56.249C52.4204 55.6242 55.7714 54.8465 58.6397 53.1668C62.4862 50.9143 64.9961 46.5704 61.1327 43.1022Z" fill="#FDF6EC"/>
<path d="M58.6393 53.1668C55.7718 54.8467 52.4208 55.6247 49.1948 56.2492C44.0841 57.2396 38.906 57.6767 33.7055 57.6767C28.8384 57.648 24.0225 57.1883 19.1766 56.2492C15.9506 55.6247 12.5998 54.8467 9.73215 53.1668C7.53902 51.883 5.78177 49.9196 5.38965 47.8276C6.18277 48.883 7.27802 49.8208 8.51202 50.544C11.3808 52.2238 14.7318 53.0006 17.9565 53.6263C22.8024 54.5643 27.6183 55.0251 32.4866 55.0526C37.6873 55.0526 42.8653 54.6167 47.9759 53.6263C51.2006 53.0006 54.5528 52.2238 57.4204 50.544C60.1006 48.9741 62.1314 46.39 61.8104 43.7935C64.6616 47.1295 62.2338 51.0611 58.6393 53.1668Z" fill="#FEF1DA"/>
<path d="M60.7538 34.8475C57.835 32.2273 53.6745 31.8485 49.9914 31.3949C48.7823 31.2459 47.5706 31.1179 46.3574 31.0084C43.9204 30.7885 41.477 30.6438 39.032 30.5559C34.1529 30.3808 29.2683 30.433 24.3893 30.5865C22.1865 30.6559 19.9841 30.7975 17.798 31.086C14.1795 31.5636 9.69602 32.3016 6.86002 34.8475C2.99677 38.3158 5.50652 42.6595 9.35277 44.9121C12.221 46.592 15.572 47.3695 18.7973 47.9944C23.6431 48.9333 28.459 49.3931 33.327 49.4215C38.5276 49.4215 43.7054 48.9846 48.8163 47.9944C52.0415 47.3695 55.3925 46.5919 58.2608 44.9121C62.1073 42.6595 64.617 38.3158 60.7538 34.8475Z" fill="#FAE2C0"/>
<path d="M58.2618 44.9126C55.3931 46.5925 52.0421 47.3693 48.8161 47.995C43.7054 48.9841 38.5286 49.4213 33.3268 49.4213C28.4597 49.3925 23.6438 48.9329 18.7979 47.995C15.5719 47.3693 12.2211 46.5925 9.35344 44.9126C6.87431 43.4601 4.95094 41.1421 4.92969 38.7466C5.72531 40.0793 7.01794 41.272 8.51294 42.1475C11.3817 43.8274 14.7327 44.6041 17.9574 45.2286C22.8033 46.1679 27.6192 46.6274 32.4876 46.6561C37.6882 46.6561 42.8662 46.219 47.9768 45.2286C51.2016 44.6041 54.5537 43.8274 57.4213 42.1475C59.8667 40.715 61.7713 38.4381 61.8426 36.0776C64.0207 39.2899 61.6639 42.9193 58.2618 44.9126Z" fill="#FDDEB0"/>
<path d="M56.7596 29.5057C53.8409 26.8855 49.6804 26.5067 45.9973 26.0531C44.7881 25.9041 43.5765 25.7761 42.3633 25.6666C39.9263 25.4467 37.4829 25.302 35.0379 25.2141C30.1588 25.039 25.2741 25.0912 20.3951 25.2447C18.1924 25.3141 15.99 25.4557 13.8039 25.7442C10.1854 26.2218 5.70188 26.9598 2.86588 29.5057C-0.997369 32.974 1.51238 37.3177 5.35863 39.5703C8.22688 41.2502 11.5779 42.0277 14.8031 42.6526C19.649 43.5915 24.4649 44.0514 29.3329 44.0797C34.5335 44.0797 39.7113 43.643 44.8221 42.6526C48.0474 42.0277 51.3984 41.2501 54.2666 39.5703C58.1131 37.3177 60.623 32.974 56.7596 29.5057Z" fill="#FDF6EC"/>
<path d="M54.2671 39.5697C51.3996 41.2509 48.0486 42.0276 44.8226 42.6521C39.712 43.6425 34.5339 44.0796 29.3334 44.0796C24.465 44.0508 19.6491 43.5912 14.8033 42.6521C11.5785 42.0276 8.22762 41.2509 5.35875 39.5697C3.13187 38.2659 1.35337 36.2601 1 34.1293C1.80313 35.2896 2.97587 36.3225 4.30837 37.1031C7.17712 38.783 10.5281 39.561 13.7529 40.1855C18.5988 41.1247 23.4146 41.5842 28.283 41.613C33.4836 41.613 38.6616 41.1758 43.7722 40.1855C46.997 39.561 50.3479 38.783 53.2167 37.1031C55.8757 35.5457 57.8953 32.9891 57.6143 30.4126C60.1846 33.701 57.7854 37.5102 54.2671 39.5697Z" fill="#FEF1DA"/>
<path d="M61.1337 22.5943C58.2149 19.9741 54.0544 19.5953 50.3713 19.1417C49.1622 18.9927 47.9505 18.8647 46.7373 18.7552C44.3003 18.5353 41.8569 18.3906 39.4119 18.3027C34.5328 18.1276 29.6482 18.1798 24.7692 18.3333C22.5664 18.4027 20.364 18.5443 18.1779 18.8328C14.5594 19.3105 10.0759 20.0485 7.2399 22.5943C3.37665 26.0626 5.8864 30.4063 9.73266 32.659C12.6009 34.3388 15.9519 35.1163 19.1772 35.7412C24.023 36.6801 28.8389 37.14 33.7069 37.1682C38.9075 37.1682 44.0853 36.7315 49.1962 35.7412C52.4214 35.1163 55.7724 34.3387 58.6407 32.659C62.4872 30.4065 64.9969 26.0626 61.1337 22.5943Z" fill="#FAE2C0"/>
<path d="M58.6411 32.6597C55.7721 34.3387 52.4216 35.1165 49.1959 35.7417C44.0856 36.7312 38.9074 37.1686 33.7076 37.1686C28.8394 37.1396 24.0229 36.6807 19.1774 35.7417C15.9516 35.1165 12.6011 34.3387 9.73335 32.6597C7.77698 31.5139 6.16473 29.826 5.56348 27.9881C6.32235 28.8906 7.30173 29.6936 8.38835 30.3302C11.2561 32.0092 14.6079 32.787 17.8324 33.4122C22.6791 34.3514 27.4945 34.8102 32.3626 34.8391C37.5636 34.8391 42.7406 34.4017 47.8522 33.4122C51.0767 32.787 54.4285 32.0092 57.2962 30.3302C60.164 28.6499 62.2892 25.8074 61.5834 23.0317C64.785 26.4214 62.3269 30.5005 58.6411 32.6597Z" fill="#FDDEB0"/>
<path d="M7.5529 14.2788C5.9084 15.8625 5.14428 18.2288 5.53515 20.4899C5.9034 22.6202 7.25228 24.077 9.02003 25.1729C13.038 27.6643 17.7108 28.7403 22.353 29.2233C33.5218 30.3854 48.3378 31.347 58.3072 24.8334C63.1357 21.6787 63.9052 15.2032 59.7763 11.0792C56.1948 7.50191 50.348 6.26391 45.4759 6.32541C38.304 6.41616 31.6078 9.08604 24.4815 9.28504C18.8383 9.44291 11.8564 10.1345 7.5529 14.2788Z" fill="#FDF6EC"/>
<path d="M58.3072 24.8331C48.3376 31.3476 33.5223 30.3858 22.3527 29.2236C17.7113 28.7408 13.0386 27.6643 9.01994 25.1734C7.58294 24.2822 6.4232 23.1528 5.84082 21.6174C6.3022 22.0523 6.82532 22.4406 7.39132 22.7911C11.4087 25.2832 16.0814 26.3584 20.7241 26.8412C31.8924 28.0034 46.7089 28.9652 56.6786 22.4519C60.5749 19.9057 61.8292 15.1962 59.9951 11.3049C63.8762 15.4369 63.0493 21.7358 58.3072 24.8331Z" fill="#FEF1DA"/>
<path d="M63.5922 39.2643C63.7246 37.9565 63.4481 36.0078 61.3792 34.1504C60.8939 33.7147 60.3785 33.3383 59.8414 33.0092C62.2251 31.3963 63.7507 29.1997 63.9722 27.0114C64.0974 25.7752 63.8561 23.9662 62.082 22.203C62.7641 21.029 63.1976 19.7235 63.3391 18.3548C63.6394 15.4512 62.5821 12.5579 60.4384 10.4167C58.6631 8.6434 56.2874 7.30553 53.3772 6.44003C50.9484 5.71778 48.2124 5.35403 45.4644 5.38903C41.7095 5.43653 38.0656 6.17765 34.5417 6.8944C31.2556 7.56278 27.8576 8.2539 24.4556 8.3489C18.656 8.51103 11.4197 9.25478 6.90337 13.604C5.04787 15.3909 4.16999 18.0907 4.61224 20.6495C4.76512 21.5335 5.06912 22.3439 5.52387 23.0898C4.44724 24.5559 4.29699 25.9822 4.40124 27.0113C4.41037 27.1019 4.42262 27.1924 4.43612 27.283C3.64574 27.71 2.90599 28.2115 2.24099 28.8085C0.171991 30.6659 -0.104509 32.6148 0.0278656 33.9224C0.248241 36.0994 1.75899 38.2846 4.12162 39.8951C4.36699 41.0404 4.95937 42.172 5.83362 43.2052C4.47537 44.8065 4.28737 46.3983 4.40074 47.519C4.64399 49.9225 6.46012 52.336 9.25887 53.9752C12.3347 55.7767 15.8991 56.5683 18.9985 57.1689C23.8631 58.1114 28.6724 58.5838 33.7065 58.613C39.1567 58.613 44.4281 58.1271 49.374 57.1689C52.4735 56.5683 56.0379 55.7767 59.1137 53.9752C61.9124 52.336 63.7285 49.9225 63.9717 47.519C64.0956 46.2949 63.861 44.509 62.1336 42.7621C62.9606 41.6581 63.4712 40.46 63.5922 39.2643ZM10.9021 25.1668C10.4262 24.9188 9.95912 24.653 9.51362 24.3768C7.71324 23.2607 6.74237 21.9748 6.45812 20.3304C6.12012 18.3755 6.78862 16.3153 8.20262 14.9535C10.3317 12.903 14.1092 10.5122 24.5076 10.2217C28.0716 10.1222 31.5505 9.41453 34.9149 8.73028C38.3536 8.03078 41.9095 7.30765 45.4877 7.2624C51.1414 7.19003 56.2344 8.86565 59.1142 11.7423C60.8824 13.5083 61.721 15.7883 61.4755 18.1622C61.23 20.5357 59.8885 22.6815 57.7947 24.0494C53.4647 26.8785 47.8785 28.4888 40.7166 28.9723C34.4501 29.3955 27.9662 28.8657 22.4499 28.2917C19.5405 27.989 17.0351 27.4923 14.7906 26.7729C14.2981 26.6149 13.7706 26.8864 13.6127 27.379C13.4549 27.8717 13.7262 28.399 14.2189 28.5569C16.5879 29.316 19.2169 29.8388 22.256 30.155C26.4314 30.5895 31.156 30.9987 35.9482 30.9987C37.5781 30.9987 39.2167 30.9513 40.843 30.8414C48.3335 30.3357 54.2137 28.6269 58.8195 25.6177C59.6337 25.0857 60.3551 24.456 60.9707 23.7508C61.8357 24.6975 62.219 25.7283 62.1082 26.8227C61.9277 28.6062 60.4176 30.5329 58.1674 31.8508C55.3461 33.503 51.9654 34.2507 49.018 34.8217C44.1892 35.7573 39.0379 36.2317 33.7124 36.2317C28.8014 36.2032 24.1051 35.7419 19.3554 34.8217C16.408 34.2507 13.0272 33.503 10.2061 31.8508C7.95574 30.5328 6.44562 28.606 6.26512 26.8225C6.18724 26.0533 6.35512 25.3158 6.76137 24.6165C7.26412 25.0994 7.85062 25.5499 8.52662 25.9689C9.01162 26.2697 9.51962 26.5587 10.0367 26.8282C10.4955 27.0672 11.0612 26.889 11.3002 26.4303C11.5391 25.9715 11.361 25.4059 10.9021 25.1668ZM5.83274 38.762C3.58237 37.444 2.07224 35.5174 1.89174 33.7339C1.76287 32.46 2.30137 31.2719 3.49237 30.2028C3.95199 29.7902 4.46137 29.4292 5.00787 29.1104C5.79612 30.7648 7.28187 32.3095 9.25912 33.4675C12.3351 35.269 15.8995 36.0607 18.9989 36.6612C23.8639 37.6037 28.6731 38.0761 33.7069 38.1053C39.1571 38.1053 44.4285 37.6194 49.3742 36.6612C51.9932 36.1537 54.9431 35.5073 57.6509 34.233C57.268 35.8694 55.8359 37.5663 53.794 38.7621C50.973 40.4144 47.5921 41.162 44.6447 41.7332C39.816 42.6688 34.6646 43.1432 29.3391 43.1432C24.4277 43.1147 19.7315 42.6534 14.9821 41.7332C12.0346 41.1619 8.65374 40.4143 5.83274 38.762ZM62.1079 47.3305C61.9274 49.114 60.4172 51.0408 58.167 52.3587C55.3459 54.0109 51.9651 54.7585 49.0176 55.3297C44.1889 56.2653 39.0375 56.7397 33.712 56.7397C28.8006 56.7112 24.1044 56.2499 19.355 55.3298C16.4076 54.7587 13.0267 54.0109 10.2057 52.3588C7.95537 51.0408 6.44524 49.1142 6.26474 47.3307C6.16437 46.3388 6.47087 45.3993 7.17312 44.527C7.68962 44.957 8.26024 45.3578 8.87937 45.7205C11.9556 47.522 15.5199 48.3137 18.6191 48.9142C23.4837 49.8567 28.293 50.329 33.3271 50.3583C35.8191 50.3583 38.2902 50.257 40.6721 50.0574C41.1876 50.0143 41.5705 49.5613 41.5272 49.0458C41.4841 48.5302 41.0307 48.1474 40.5156 48.1907C38.1856 48.386 35.767 48.485 33.3325 48.485C28.4211 48.4565 23.7249 47.9953 18.9755 47.075C16.0281 46.504 12.6475 45.7564 9.82612 44.1042C8.51937 43.3388 7.46512 42.3679 6.77324 41.3393C9.36262 42.4863 12.143 43.0914 14.6257 43.5725C19.4904 44.515 24.2996 44.9874 29.3337 45.0167C34.784 45.0167 40.0552 44.5308 45.0011 43.5725C48.1006 42.9719 51.665 42.1803 54.7409 40.3788C57.136 38.976 58.8105 37.006 59.3962 34.9607C59.6482 35.1412 59.8931 35.3342 60.1277 35.5447C61.3187 36.6139 61.8572 37.8019 61.7284 39.0758C61.5477 40.8593 60.0377 42.786 57.7875 44.104C54.9661 45.7563 51.5854 46.5039 48.6381 47.075C47.3884 47.3172 46.1044 47.531 44.8216 47.7104C44.3092 47.7821 43.9521 48.2557 44.0237 48.7679C44.0955 49.2802 44.5681 49.6377 45.0812 49.5658C46.3961 49.3818 47.7127 49.1625 48.9945 48.9142C52.0937 48.3137 55.658 47.5222 58.7344 45.7205C59.5305 45.2543 60.2467 44.7251 60.8702 44.1516C61.8057 45.1274 62.2229 46.1948 62.1079 47.3305Z" fill="black"/>
<path d="M13.0272 16.606C13.4592 16.8905 14.0401 16.7707 14.3246 16.3387C14.5611 15.9795 14.9584 15.765 15.3876 15.765C15.8197 15.765 16.2187 15.9819 16.4547 16.3451C16.6342 16.6212 16.9346 16.7716 17.2411 16.7716C17.4161 16.7716 17.5929 16.7226 17.7506 16.6202C18.1843 16.3384 18.3076 15.7582 18.0257 15.3244C17.4427 14.4272 16.4566 13.8916 15.3876 13.8916C14.3263 13.8916 13.3441 14.4214 12.7599 15.3086C12.4754 15.7406 12.5951 16.3215 13.0272 16.606Z" fill="black"/>
<path d="M17.7218 21.3919C17.4374 21.824 17.557 22.4049 17.9891 22.6892C18.4211 22.9736 19.0021 22.854 19.2865 22.4219C19.5229 22.0626 19.9203 21.8482 20.3494 21.8482C20.7816 21.8482 21.1805 22.0651 21.4165 22.4284C21.5959 22.7046 21.8964 22.8549 22.2029 22.8549C22.3778 22.8549 22.5548 22.8059 22.7124 22.7035C23.1463 22.4216 23.2694 21.8415 22.9875 21.4077C22.4046 20.5106 21.4185 19.9749 20.3495 19.9749C19.2881 19.9747 18.3058 20.5045 17.7218 21.3919Z" fill="black"/>
<path d="M40.1796 19.4675C40.6116 19.7519 41.1926 19.6323 41.4769 19.2002C41.7133 18.8409 42.1107 18.6265 42.5398 18.6265C42.9721 18.6265 43.3709 18.8434 43.6069 19.2067C43.7863 19.4829 44.0868 19.6332 44.3933 19.6332C44.5682 19.6332 44.7452 19.5842 44.9028 19.4818C45.3367 19.2 45.4598 18.6198 45.1779 18.186C44.5951 17.2889 43.6089 16.7532 42.5399 16.7532C41.4787 16.7532 40.4963 17.2829 39.9122 18.1703C39.6278 18.6022 39.7474 19.183 40.1796 19.4675Z" fill="black"/>
<path d="M30.6024 27.1289C31.0343 27.4134 31.6153 27.2938 31.8998 26.8617C32.1363 26.5024 32.5336 26.2879 32.9628 26.2879C33.3949 26.2879 33.7939 26.5048 34.0299 26.8681C34.2093 27.1443 34.5098 27.2946 34.8163 27.2946C34.9911 27.2946 35.1681 27.2456 35.3258 27.1432C35.7596 26.8613 35.8828 26.2812 35.6009 25.8474C35.018 24.9503 34.0318 24.4146 32.9628 24.4146C31.9015 24.4146 30.9193 24.9443 30.3351 25.8316C30.0506 26.2636 30.1703 26.8444 30.6024 27.1289Z" fill="black"/>
<path d="M33.2919 14.2945C33.7239 14.579 34.3047 14.4592 34.5892 14.0272C34.8257 13.668 35.2231 13.4535 35.6521 13.4535C36.0844 13.4535 36.4832 13.6703 36.7192 14.0336C36.8987 14.3098 37.1991 14.4601 37.5056 14.4601C37.6806 14.4601 37.8575 14.4111 38.0151 14.3087C38.4489 14.0268 38.5721 13.4467 38.2902 13.0128C37.7072 12.1157 36.7211 11.5801 35.6521 11.5801C34.5909 11.5801 33.6086 12.1098 33.0245 12.9971C32.7401 13.4292 32.8597 14.0101 33.2919 14.2945Z" fill="black"/>
<path d="M50.5634 15.5996C50.9955 15.884 51.5764 15.7644 51.8608 15.3323C52.0972 14.973 52.4945 14.7586 52.9237 14.7586C53.3559 14.7586 53.7548 14.9755 53.9908 15.3388C54.1702 15.615 54.4707 15.7653 54.7772 15.7653C54.952 15.7653 55.129 15.7163 55.2867 15.6139C55.7205 15.3321 55.8437 14.7519 55.5618 14.3181C54.9789 13.421 53.9928 12.8853 52.9238 12.8853C51.8625 12.8853 50.8802 13.415 50.296 14.3024C50.0115 14.7343 50.1313 15.3151 50.5634 15.5996Z" fill="black"/>
</g>
<defs>
<clipPath id="clip0_2256_151">
<rect width="64" height="64" fill="white"/>
</clipPath>
</defs>
</svg>
