<svg width="64" height="64" viewBox="0 0 64 64" fill="none" xmlns="http://www.w3.org/2000/svg">
<path d="M57.1595 53.291C56.0224 57.8413 51.9337 61.033 47.244 61.033H16.7524C12.0627 61.033 7.97401 57.8413 6.83691 53.291H57.1595Z" fill="#E6E9ED"/>
<path d="M7.5424 55.2265H56.454C56.7472 54.6139 56.9901 53.9704 57.1595 53.291H6.83691C7.00627 53.9704 7.24917 54.6139 7.5424 55.2265Z" fill="#CCD1D9"/>
<path d="M59.0958 49.4192H4.90228C3.83293 49.4192 2.9668 50.2853 2.9668 51.3547C2.9668 52.424 3.83293 53.2902 4.90228 53.2902H59.0958C60.1652 53.2902 61.0313 52.424 61.0313 51.3547C61.0313 50.2853 60.1652 49.4192 59.0958 49.4192Z" fill="#E6E9ED"/>
<path d="M59.0959 49.4193C59.0959 49.4193 57.8794 46.7164 55.3972 43.3313L47.483 36.8387L39.7411 31.0322L27.8494 30.4032C25.6923 30.7613 23.6911 31.3855 21.8456 32.1964L9.84073 41.7238C6.52234 45.8184 4.90234 49.4193 4.90234 49.4193H59.0959Z" fill="#ECC19C"/>
<path d="M55.3994 43.3316L47.4852 36.839L43.3152 33.7113C42.2894 35.1407 41.6787 36.8855 41.6787 38.7745C41.6787 43.5774 45.5855 47.4842 50.3884 47.4842C52.7806 47.4842 54.9503 46.5136 56.5258 44.9468C56.1842 44.4329 55.8106 43.8929 55.3994 43.3316Z" fill="#CF9E76"/>
<path d="M27.847 30.4032C26.7457 30.5861 25.687 30.8396 24.668 31.1503C26.8405 32.328 29.3567 32.9677 31.9715 32.9677H34.9618L38.4302 37.129C39.3012 38.1742 40.5815 38.7742 41.9412 38.7742C43.8728 38.7742 45.5199 37.5664 46.1877 35.869L39.7386 31.0322L27.847 30.4032Z" fill="#CF9E76"/>
<path d="M44.5814 28.3964V27.9639C44.5814 26.4513 43.3562 25.2261 41.8446 25.2261C41.1188 25.2261 40.4221 25.5145 39.9091 26.0274L36.0333 29.9032C33.913 28.4748 30.4901 25.8851 29.204 23.2897C27.2859 19.4187 27.1195 15.5477 22.3243 15.5477C20.2698 15.5477 19.4385 16.7129 19.4211 19.4555C19.4037 22.3364 20.6472 25.0626 22.604 27.1519C25.005 29.7184 28.4598 31.0326 31.9746 31.0326H35.8717L39.9198 35.8906C40.4211 36.4916 41.1624 36.839 41.9453 36.839C43.4008 36.839 44.5814 35.6584 44.5814 34.2029V33.6687C44.5814 32.2132 43.4008 31.0326 41.9453 31.0326C43.4008 31.0326 44.5814 29.8519 44.5814 28.3964Z" fill="#FC6E51"/>
<path d="M29.1998 23.2908C28.7256 22.3347 28.3588 21.3785 28.0027 20.4805L27.3524 20.9682C25.3424 22.476 22.8969 23.2908 20.3846 23.2908H20.1533C20.7078 24.7114 21.5449 26.0266 22.5998 27.153C23.3159 27.9176 24.1327 28.5563 25.0094 29.0972H25.2233L25.7091 28.9753C27.813 28.4489 29.8182 27.5866 31.6462 26.4224L31.6501 26.4195C30.6311 25.4305 29.7301 24.3621 29.1998 23.2908Z" fill="#E9573F"/>
<path d="M50.3875 45.5483C54.1288 45.5483 57.1617 42.5154 57.1617 38.7741C57.1617 35.0328 54.1288 31.9999 50.3875 31.9999C46.6462 31.9999 43.6133 35.0328 43.6133 38.7741C43.6133 42.5154 46.6462 45.5483 50.3875 45.5483Z" fill="#FCD770"/>
<path d="M9.84018 41.7227C9.39212 42.2753 8.97793 42.8182 8.5918 43.3456C10.3434 45.8434 13.2389 47.4837 16.5147 47.4837C21.8508 47.4837 26.1921 43.1424 26.1921 37.8063C26.1921 35.3705 25.2805 33.1485 23.7902 31.4453C23.1263 31.6747 22.4741 31.9195 21.846 32.1953L9.84018 41.7227Z" fill="#CF9E76"/>
<path d="M16.5144 45.5484C20.7901 45.5484 24.2563 42.0823 24.2563 37.8065C24.2563 33.5308 20.7901 30.0646 16.5144 30.0646C12.2386 30.0646 8.77246 33.5308 8.77246 37.8065C8.77246 42.0823 12.2386 45.5484 16.5144 45.5484Z" fill="#FCD770"/>
<path d="M16.5145 41.6772C18.6524 41.6772 20.3855 39.9441 20.3855 37.8063C20.3855 35.6684 18.6524 33.9353 16.5145 33.9353C14.3766 33.9353 12.6436 35.6684 12.6436 37.8063C12.6436 39.9441 14.3766 41.6772 16.5145 41.6772Z" fill="#B4DD7F"/>
<path d="M50.3876 41.6771C48.7908 41.6771 47.4844 40.3706 47.4844 38.7738C47.4844 37.1771 48.7908 35.8706 50.3876 35.8706C51.9844 35.8706 53.2908 37.1771 53.2908 38.7738C53.2908 40.3706 51.9844 41.6771 50.3876 41.6771Z" fill="#FFEAA7"/>
<path d="M4.90234 49.4192H59.0959C59.0959 49.4192 58.7591 48.6751 58.0856 47.4838H5.91267C5.23912 48.6741 4.90234 49.4192 4.90234 49.4192Z" fill="#DFB28B"/>
<path d="M59.7432 48.5302C59.3106 47.6592 58.279 45.716 56.6106 43.3595C57.56 42.0744 58.129 40.4911 58.129 38.7744C58.129 34.5056 54.6558 31.0324 50.3871 31.0324C48.5077 31.0324 46.7832 31.7069 45.44 32.8256C45.2716 32.1289 44.9077 31.5066 44.3987 31.0324C45.1061 30.3744 45.5484 29.4356 45.5484 28.3963V27.9637C45.5484 25.9198 43.8858 24.2582 41.8439 24.2582C40.8539 24.2582 39.9239 24.6434 39.2242 25.344L35.9174 28.6508C33.889 27.2273 31.1377 25.0179 30.0694 22.8618C29.6619 22.0411 29.3339 21.2098 29.0165 20.4066C27.8842 17.5421 26.7142 14.5808 22.3226 14.5808C18.4816 14.5808 18.4594 18.2456 18.4516 19.4505C18.4332 22.4544 19.6574 25.4244 21.8968 27.8147C22.7426 28.7185 23.7335 29.4792 24.8155 30.1053C23.8758 30.3744 22.9497 30.7015 22.0371 31.076C20.5332 29.8402 18.6103 29.0969 16.5161 29.0969C11.7132 29.0969 7.80645 33.0047 7.80645 37.8066C7.80645 39.1731 8.13161 40.4611 8.69484 41.6137C6.25226 44.7211 4.7929 47.4502 4.25677 48.5302C2.96677 48.8253 2 49.9769 2 51.355C2 52.9556 3.30258 54.2582 4.90323 54.2582H6.11677C7.60129 58.8511 11.8681 62.0002 16.7542 62.0002H47.2458C52.1319 62.0002 56.3987 58.8511 57.8832 54.2582H59.0968C60.6974 54.2582 62 52.9556 62 51.355C62 49.9769 61.0332 48.8253 59.7432 48.5302ZM50.3871 32.9679C53.5894 32.9679 56.1935 35.5721 56.1935 38.7744C56.1935 41.9766 53.5894 44.5808 50.3871 44.5808C47.1848 44.5808 44.5806 41.9766 44.5806 38.7744C44.5806 35.5721 47.1848 32.9679 50.3871 32.9679ZM41.4103 32.0002H41.9455C42.8648 32.0002 43.6129 32.7482 43.6129 33.6685V34.2027C43.6129 35.1231 42.8648 35.8711 41.9436 35.8711C41.4471 35.8711 40.9806 35.6524 40.6632 35.2711L37.9371 32.0002H41.4103ZM40.5926 26.7115C40.9226 26.3824 41.3774 26.1937 41.8439 26.1937C42.8194 26.1937 43.6129 26.9873 43.6129 27.9637V28.3963C43.6129 29.3166 42.8648 30.0647 41.9445 30.0647H38.0726C37.9477 29.9892 37.7774 29.8837 37.5577 29.7453L40.5926 26.7115ZM27.7981 29.3524C29.0919 28.8995 30.3326 28.315 31.5171 27.6182C32.5323 28.5453 33.6084 29.3863 34.5587 30.0656H31.9739C30.5174 30.0647 29.1084 29.8092 27.7981 29.3524ZM22.3226 16.5163C24.9423 16.5163 25.8035 17.7066 26.8265 20.155L26.7752 20.1937C25.0603 21.4789 22.9613 22.2153 20.8235 22.3044C20.5323 21.3753 20.3823 20.4192 20.3881 19.4621C20.4045 16.7331 21.2368 16.5163 22.3226 16.5163ZM21.6345 24.1876C23.7577 23.9727 25.8152 23.2131 27.5706 21.9937C27.801 22.5598 28.0439 23.1327 28.3342 23.7202C28.7542 24.5669 29.3813 25.404 30.1023 26.2034C28.6458 27.0095 27.0974 27.6308 25.4765 28.0363L25.2316 28.0973C24.5281 27.6337 23.8777 27.1005 23.3068 26.4908C22.6381 25.7756 22.0816 24.9995 21.6345 24.1876ZM23.2129 36.8389H21.2571C20.871 34.946 19.3768 33.4518 17.4839 33.0656V31.1098C20.4442 31.5366 22.7861 33.8785 23.2129 36.8389ZM11.7752 38.7744C12.1613 40.6673 13.6555 42.1614 15.5484 42.5476V44.5034C12.5881 44.0766 10.2461 41.7347 9.81935 38.7744H11.7752ZM16.5161 34.9034C18.1168 34.9034 19.4194 36.206 19.4194 37.8066C19.4194 39.4073 18.1168 40.7098 16.5161 40.7098C14.9155 40.7098 13.6129 39.4073 13.6129 37.8066C13.6129 36.206 14.9155 34.9034 16.5161 34.9034ZM17.4839 42.5476C19.3768 42.1614 20.871 40.6673 21.2571 38.7744H23.2129C22.7861 41.7347 20.4442 44.0766 17.4839 44.5034V42.5476ZM15.5484 31.1098V33.0656C13.6555 33.4518 12.1613 34.946 11.7752 36.8389H9.81935C10.2461 33.8785 12.5881 31.5366 15.5484 31.1098ZM16.5161 46.5163C21.319 46.5163 25.2258 42.6085 25.2258 37.8066C25.2258 35.8469 24.5668 34.0421 23.4703 32.5847C24.8852 32.0524 26.3377 31.6547 27.8058 31.3982C29.1326 31.7902 30.5368 32.0002 31.9748 32.0002H35.4181L39.1768 36.5098C39.8639 37.3344 40.8732 37.8066 41.9455 37.8066C42.2145 37.8066 42.4748 37.7718 42.7265 37.7156C42.6781 38.0631 42.6452 38.4144 42.6452 38.7744C42.6452 43.0431 46.1184 46.5163 50.3871 46.5163C52.2277 46.5163 53.9184 45.8679 55.2481 44.7918C56.2642 46.2569 57.0229 47.5469 57.5164 48.4518H6.48355C7.1329 47.2605 8.24097 45.4024 9.80097 43.3479C11.3997 45.2815 13.8161 46.5163 16.5161 46.5163ZM47.2458 60.0647H16.7542C12.9287 60.0647 9.56484 57.7295 8.17419 54.2582H55.8258C54.4352 57.7295 51.0713 60.0647 47.2458 60.0647ZM59.0968 52.3227H4.90323C4.36903 52.3227 3.93548 51.8882 3.93548 51.355C3.93548 50.8218 4.36903 50.3873 4.90323 50.3873H59.0968C59.631 50.3873 60.0645 50.8218 60.0645 51.355C60.0645 51.8882 59.631 52.3227 59.0968 52.3227Z" fill="black"/>
<path d="M50.3885 42.6448C52.5234 42.6448 54.2595 40.9086 54.2595 38.7738H52.324C52.324 39.8412 51.456 40.7093 50.3885 40.7093C49.3211 40.7093 48.4531 39.8412 48.4531 38.7738C48.4531 37.7064 49.3211 36.8383 50.3885 36.8383V34.9028C48.2537 34.9028 46.5176 36.639 46.5176 38.7738C46.5176 40.9086 48.2537 42.6448 50.3885 42.6448Z" fill="black"/>
<path d="M30.0645 15.5484H31.9999C31.9999 14.7781 32.2922 14.4374 32.7345 13.9216C33.2696 13.2974 33.9354 12.5213 33.9354 11.0339C33.9354 9.54645 33.2696 8.76935 32.7345 8.14516C32.2922 7.62935 31.9999 7.28871 31.9999 6.51742C31.9999 5.74613 32.2922 5.40452 32.7354 4.88871C33.2696 4.26452 33.9354 3.48742 33.9354 2H31.9999C31.9999 2.77129 31.7077 3.1129 31.2645 3.62871C30.7303 4.2529 30.0645 5.03 30.0645 6.51742C30.0645 8.00484 30.7303 8.78097 31.2645 9.40516C31.7077 9.92194 31.9999 10.2626 31.9999 11.0339C31.9999 11.8042 31.7077 12.1448 31.2654 12.6616C30.7303 13.2858 30.0645 14.0619 30.0645 15.5484Z" fill="black"/>
<path d="M37.8057 20.3866H39.7411C39.7411 19.6163 40.0334 19.2757 40.4757 18.7599C41.0108 18.1357 41.6766 17.3595 41.6766 15.8721C41.6766 14.3847 41.0108 13.6076 40.4757 12.9834C40.0334 12.4676 39.7411 12.127 39.7411 11.3557C39.7411 10.5844 40.0334 10.2428 40.4766 9.72697C41.0108 9.10277 41.6766 8.32568 41.6766 6.83826H39.7411C39.7411 7.60955 39.4489 7.95116 39.0057 8.46697C38.4715 9.09116 37.8057 9.86826 37.8057 11.3557C37.8057 12.8431 38.4715 13.6192 39.0057 14.2434C39.4489 14.7592 39.7411 15.1008 39.7411 15.8721C39.7411 16.6424 39.4489 16.9831 39.0066 17.4999C38.4715 18.1241 37.8057 18.9002 37.8057 20.3866Z" fill="black"/>
<path d="M46.5176 18.4512H48.4531C48.4531 17.6809 48.7453 17.3403 49.1876 16.8244C49.7227 16.2003 50.3885 15.4241 50.3885 13.9367C50.3885 12.4493 49.7227 11.6722 49.1876 11.048C48.7453 10.5322 48.4531 10.1915 48.4531 9.42025C48.4531 8.64896 48.7453 8.30735 49.1885 7.79154C49.7227 7.16735 50.3885 6.39025 50.3885 4.90283H48.4531C48.4531 5.67412 48.1608 6.01574 47.7176 6.53154C47.1834 7.15574 46.5176 7.93283 46.5176 9.42025C46.5176 10.9077 47.1834 11.6838 47.7176 12.308C48.1608 12.8238 48.4531 13.1654 48.4531 13.9367C48.4531 14.707 48.1608 15.0477 47.7185 15.5644C47.1834 16.1886 46.5176 16.9648 46.5176 18.4512Z" fill="black"/>
<path d="M31.9999 44.5808H30.0645V46.5163H31.9999V44.5808Z" fill="black"/>
<path d="M33.9355 38.7736H32V40.709H33.9355V38.7736Z" fill="black"/>
<path d="M29.0947 33.9353H27.1592V35.8708H29.0947V33.9353Z" fill="black"/>
<path d="M39.7411 44.5808H37.8057V46.5163H39.7411V44.5808Z" fill="black"/>
<path d="M37.8056 40.7101H35.8701V42.6456H37.8056V40.7101Z" fill="black"/>
<path d="M29.0947 40.7101H27.1592V42.6456H29.0947V40.7101Z" fill="black"/>
<path d="M33.9355 34.9028H32V36.8383H33.9355V34.9028Z" fill="black"/>
</svg>
