<svg width="64" height="64" viewBox="0 0 64 64" fill="none" xmlns="http://www.w3.org/2000/svg">
<path d="M52.5445 44.1036C51.0206 47.4874 48.5367 51.5191 45.141 52.5031C41.3852 53.607 40.0653 50.4392 39.5973 47.8594L32.2297 47.7874C29.1219 49.7912 24.5982 52.0111 21.0104 50.9792C17.0627 49.8512 17.3267 46.4194 18.4786 43.5996L52.5445 44.1036Z" fill="#655E66"/>
<path d="M25.4266 22.4212C21.7308 22.2412 16.5711 22.0732 13.9793 24.821C9.25157 29.7047 17.5791 33.7125 19.5949 35.6204L22.8947 34.1324L29.5783 22.8891L25.4266 22.4212Z" fill="#E29375"/>
<path d="M44.7455 14.9694C41.7217 12.8095 37.546 10.5536 34.1142 11.3696C30.3104 12.2815 30.8864 16.1693 31.7143 18.6771L44.7455 14.9694Z" fill="#E29375"/>
<path d="M8.98675 35.8845H8.77077C7.6961 35.839 6.6206 35.9522 5.57896 36.2205C3.3591 37.0604 2.55515 40.5522 3.76707 44.176C4.979 47.7998 7.71483 50.1156 9.99469 49.4676C11.5306 48.9517 14.2904 46.7558 16.3303 44.5839L16.8943 41.0562L23.7099 46.2278C25.352 46.7581 27.033 47.1593 28.7375 47.4278L32.3373 46.2278L36.7771 47.9797C40.5094 48.0331 44.2292 47.5358 47.8164 46.5038L48.1644 46.3718L50.1202 44.236L53.72 43.168C58.9877 38.8123 62.1195 31.7087 60.0436 25.3731C57.8358 18.7615 50.5282 14.9338 43.4006 14.9218C41.4207 14.9142 39.4521 15.222 37.569 15.8337L37.293 15.9417L35.5771 18.2096L31.8813 18.6175C30.2711 19.5894 28.7167 20.651 27.2256 21.7973L25.7377 25.0251L22.5339 25.8651C20.009 28.1996 17.9453 30.9878 16.4503 34.0846L16.7263 37.9124L8.98675 35.8845Z" fill="#E7A990"/>
<path d="M43.4734 14.9218C41.4934 14.9142 39.5249 15.222 37.6418 15.8337C36.4048 16.2777 35.2017 16.8111 34.042 17.4296C34.8699 17.2136 34.7619 17.2976 35.3619 17.1056C43.8334 14.2738 55.0167 18.1736 57.8365 26.705C60.2364 33.7606 55.9886 41.7761 49.617 45.9039C57.2246 42.4121 62.8162 33.3406 60.1404 25.5051C57.9085 18.7615 50.601 14.9338 43.4734 14.9218Z" fill="#E29375"/>
<path d="M16.4508 34.0847C16.0694 34.9437 15.7954 35.8465 15.6349 36.7725C13.4618 36.2153 11.2304 35.9172 8.9873 35.8846C11.4952 36.5086 12.5871 38.6444 14.003 40.4083C14.9566 41.6894 15.7316 43.0942 16.3069 44.5841C16.8228 44.0321 17.3028 43.4801 17.6988 42.9642C19.4302 44.4859 21.4802 45.6011 23.6984 46.228C23.4704 45.688 23.2544 45.148 23.0264 44.5961C22.0372 41.7751 20.6601 39.1057 18.9347 36.6646C18.2085 35.7121 17.3751 34.8465 16.4508 34.0847Z" fill="#F7F8FA"/>
<path d="M27.2389 21.7971C25.5862 23.0518 24.0151 24.4104 22.5352 25.8649L23.3151 26.8608C24.4852 28.2324 25.5181 29.7154 26.3989 31.2885C27.0891 32.4788 27.279 33.8942 26.9269 35.2243C25.9417 39.3711 26.5815 43.7377 28.7148 47.4275C31.3979 47.8458 34.1109 48.0424 36.8263 48.0155C34.6544 45.4237 31.8346 41.0439 32.9265 36.7362C33.6017 33.975 33.2654 31.0633 31.9786 28.5287C30.9285 26.561 29.6606 24.7176 28.1988 23.033C27.8628 22.5891 27.5508 22.1811 27.2749 21.8331L27.2389 21.7971Z" fill="#F7F8FA"/>
<path d="M37.3652 15.9417C35.4581 16.6523 33.6254 17.5485 31.8936 18.6175C32.9834 21.1746 34.5055 23.5248 36.3933 25.5651C40.425 30.0048 41.289 32.5486 42.1649 35.4405L44.9248 42.148C45.8778 43.6616 46.9792 45.0765 48.2126 46.3718C50.2415 45.6298 52.1286 44.5462 53.7922 43.168C48.5725 38.9202 43.8208 30.7847 43.5088 24.4851C42.7169 23.4194 41.8719 22.3942 40.977 21.4133C39.4608 19.816 38.2381 17.9637 37.3652 15.9417Z" fill="#F7F8FA"/>
<path d="M8.37479 35.8844C7.43202 35.8709 6.4917 35.9839 5.57896 36.2204C3.3591 37.0603 2.55515 40.5521 3.76707 44.1759C4.979 47.7996 7.71483 50.1155 9.99469 49.4675C10.7139 49.1831 11.3919 48.8038 12.0106 48.3396C10.2587 47.7636 8.55478 45.8078 7.66683 43.1439C6.6469 40.1681 7.00687 37.2883 8.37479 35.8844Z" fill="#655E66"/>
<path d="M46.1253 33.3406C43.8574 34.5405 39.8377 36.6404 38.8057 37.3843C38.517 37.5537 38.2776 37.7957 38.1113 38.0861C37.9449 38.3766 37.8574 38.7055 37.8574 39.0402C37.8574 39.375 37.9449 39.7039 38.1113 39.9943C38.2776 40.2848 38.517 40.5267 38.8057 40.6961C40.3985 41.7972 42.3068 42.3491 44.2414 42.268C45.3128 42.0733 46.3198 41.6179 47.1736 40.942C48.0274 40.2661 48.7017 39.3904 49.1371 38.3923L46.1253 33.3406Z" fill="#E29375"/>
<path d="M53.2999 22.2773C53.4279 22.7589 53.4102 23.2676 53.2491 23.7392C53.0879 24.2107 52.7906 24.6239 52.3947 24.9265C51.9987 25.2291 51.522 25.4075 51.0246 25.4391C50.5273 25.4708 50.0318 25.3543 49.6007 25.1043C49.1696 24.8544 48.8223 24.4823 48.6027 24.035C48.383 23.5876 48.301 23.0853 48.3668 22.5913C48.4327 22.0974 48.6435 21.634 48.9727 21.2599C49.3019 20.8858 49.7346 20.6176 50.2161 20.4894C50.536 20.4042 50.8695 20.3829 51.1976 20.4267C51.5258 20.4704 51.8421 20.5784 52.1284 20.7444C52.4148 20.9105 52.6657 21.1313 52.8667 21.3943C53.0677 21.6573 53.2149 21.9574 53.2999 22.2773Z" fill="#655E66"/>
<path d="M51.4405 15.2576C49.4354 14.4681 47.3248 13.9788 45.1769 13.8057C40.7372 10.6979 36.9214 9.47396 33.8496 10.2059C33.1592 10.3406 32.5068 10.6253 31.9387 11.04C31.3705 11.4548 30.9005 11.9893 30.5618 12.6058C29.7977 14.3661 29.7248 16.3498 30.3578 18.1614C28.8111 19.1378 27.3172 20.1952 25.8821 21.3292C25.0541 20.9933 16.5226 20.4293 13.1268 23.9331C12.5487 24.4701 12.093 25.1253 11.7908 25.8541C11.4885 26.5829 11.3466 27.3683 11.375 28.1568C11.5669 30.7727 13.9908 32.7885 15.3707 33.6165C15.1225 34.173 14.914 34.7464 14.7467 35.3324C12.3469 34.8164 7.47519 34.3244 5.14733 35.1044C2.27951 36.2083 1.19958 40.2761 2.62749 44.5718C3.82742 48.1716 6.92323 51.6034 10.379 50.5714C12.2989 49.9235 15.1787 47.3916 16.6546 45.9277C16.4666 47.0855 16.6166 48.2729 17.0866 49.3475C17.4511 50.0431 17.9614 50.6519 18.5826 51.1324C19.2039 51.6128 19.9214 51.9535 20.6864 52.1313C21.4212 52.3332 22.1802 52.4341 22.9422 52.4313C26.254 52.4313 29.8178 50.7034 32.5417 49.0115C34.5899 49.1629 36.6453 49.195 38.6973 49.1075C39.0132 50.7754 39.9529 52.2601 41.3251 53.2593C42.0455 53.7042 42.8784 53.9332 43.725 53.9192C44.3349 53.9121 44.9408 53.8192 45.5249 53.6433C48.5607 52.7433 51.2605 49.7795 53.5524 44.8478C55.8596 43.1803 57.8132 41.0717 59.3 38.6442C60.6187 36.6514 61.482 34.3925 61.8283 32.0282C62.1747 29.6639 61.9956 27.2523 61.3039 24.965C60.4759 22.7206 59.1625 20.6867 57.4575 19.0086C55.7524 17.3305 53.6979 16.0497 51.4405 15.2576ZM32.6616 13.7337C32.8443 13.4194 33.0937 13.1491 33.3923 12.9418C33.6908 12.7344 34.0313 12.5952 34.3895 12.5338C36.5982 12.247 38.8384 12.7255 40.7372 13.8897C37.8171 14.331 35.0145 15.3509 32.4937 16.8895C32.1918 15.8488 32.251 14.7365 32.6616 13.7337ZM42.3691 24.977C42.655 27.6942 43.3635 30.35 44.4689 32.8485L42.861 33.6885C41.7097 30.321 39.8008 27.2626 37.2814 24.749C35.7359 23.0555 34.4427 21.148 33.4416 19.0854C34.519 18.4734 35.633 17.9284 36.7774 17.4535C37.6633 19.1991 38.7858 20.8143 40.1132 22.2532C40.9171 23.1291 41.6851 24.0891 42.3691 24.977ZM48.5607 44.9438C47.9276 44.2262 47.3309 43.4773 46.7728 42.6999C47.7519 42.1437 48.5992 41.3824 49.2566 40.4681C50.0542 41.4142 50.9035 42.3155 51.8005 43.1679C50.7867 43.8732 49.7006 44.4686 48.5607 44.9438ZM37.3894 46.7557C35.3135 44.1518 33.2016 40.4921 34.0896 37.0003C34.8175 33.969 34.4387 30.7775 33.0216 28.0008C32.0715 26.142 30.9164 24.3952 29.5778 22.7931L28.9899 22.0492C29.8058 21.4492 30.6338 20.8493 31.4497 20.3453C32.5338 22.5281 33.9193 24.5477 35.5655 26.3449C39.0933 30.2087 40.0772 32.5605 40.7852 34.8164C39.5852 35.4764 38.6253 36.0163 38.1693 36.3643C37.7208 36.6703 37.3546 37.0823 37.1035 37.5638C36.8523 38.0452 36.7238 38.5812 36.7294 39.1241C36.7505 39.6434 36.9009 40.1491 37.167 40.5955C37.4331 41.0418 37.8065 41.4146 38.2533 41.68C39.8698 42.7664 41.7551 43.3851 43.701 43.4679C43.953 43.4679 44.2049 43.4679 44.4449 43.4679C44.975 44.2662 45.5478 45.0352 46.1608 45.7717C43.2825 46.4236 40.3406 46.7536 37.3894 46.7557ZM24.5741 45.2198C24.4182 44.8598 24.2742 44.5118 24.1302 44.1278C23.0947 41.215 21.6656 38.4576 19.8824 35.9323C19.2898 35.172 18.6313 34.4653 17.9146 33.8205C19.1235 31.569 20.6512 29.5038 22.4503 27.6888C23.5321 28.953 24.4886 30.3194 25.3061 31.7686C25.591 32.2299 25.7785 32.7448 25.8569 33.2813C25.9353 33.8179 25.9031 34.3648 25.7621 34.8884C24.8675 38.5073 25.175 42.319 26.638 45.7477C25.9781 45.5917 25.2341 45.4238 24.5741 45.2198ZM29.5058 46.2757C27.7185 42.9736 27.2143 39.1276 28.0899 35.4764C28.5185 33.8578 28.2989 32.1359 27.478 30.6767C26.5881 29.0752 25.5388 27.5677 24.3462 26.1769L24.2262 26.0209L24.1662 25.9489C25.0781 25.085 26.0381 24.2571 27.022 23.4531C28.4971 25.1648 29.7881 27.027 30.8738 29.0088C32.039 31.2758 32.354 33.8851 31.7617 36.3643C30.8138 40.1081 32.4097 43.7919 34.3895 46.6837C32.7456 46.6597 31.1017 46.5037 29.5058 46.2757ZM44.1209 41.068C42.461 41.1211 40.8282 40.6372 39.4652 39.6881C39.3555 39.6308 39.2619 39.547 39.1927 39.4443C39.1236 39.3417 39.0811 39.2234 39.0693 39.1001C39.0741 38.9531 39.1149 38.8095 39.1881 38.6819C39.2613 38.5543 39.3647 38.4466 39.4892 38.3682C40.1372 37.9122 42.3091 36.7003 45.4889 35.0084C46.1597 36.2136 46.9051 37.3758 47.7207 38.4882C47.3597 39.1662 46.847 39.7517 46.2226 40.1992C45.5982 40.6466 44.879 40.944 44.1209 41.068ZM13.7628 27.9768C13.7587 27.5225 13.8531 27.0728 14.0396 26.6585C14.226 26.2442 14.5 25.8752 14.8427 25.577C16.6546 23.7051 20.2784 23.4771 23.2422 23.5251C20.5584 25.8765 18.2446 28.6192 16.3786 31.6606C16.0427 31.2886 13.8828 29.7767 13.7628 27.9768ZM15.3107 37.9242C15.4737 37.9702 15.6446 37.9811 15.8121 37.9563C15.9796 37.9314 16.14 37.8715 16.2827 37.7802C16.4249 37.6898 16.5465 37.5704 16.6396 37.4298C16.7326 37.2892 16.795 37.1306 16.8226 36.9643C16.8226 36.7363 16.9426 36.4843 16.9906 36.2563C17.3375 36.6154 17.6659 36.9918 17.9745 37.3843C19.4404 39.4423 20.6267 41.6857 21.5023 44.0558C20.4155 43.5626 19.4149 42.8982 18.5385 42.088C18.4159 41.972 18.2703 41.8833 18.1111 41.8274C17.9519 41.7716 17.7827 41.75 17.6146 41.764C17.4457 41.7766 17.2814 41.8248 17.1325 41.9055C16.9836 41.9861 16.8535 42.0974 16.7506 42.232L16.6186 42.3879C15.6944 40.6377 14.5841 38.9923 13.3068 37.4802C13.9819 37.594 14.6508 37.7422 15.3107 37.9242ZM11.9029 46.9477C10.3827 45.9837 9.27175 44.4925 8.78311 42.7599C8.41485 41.8654 8.23744 40.9039 8.26223 39.9369C8.28703 38.9699 8.51348 38.0187 8.9271 37.1443C11.219 37.8522 13.8828 42.136 14.9267 44.3438C13.9766 45.2767 12.9665 46.1465 11.9029 46.9477ZM4.88335 43.8039C3.81542 40.6001 4.58337 37.8762 5.92729 37.3603L6.26327 37.2883C5.68897 39.3421 5.7729 41.5242 6.50325 43.5279C7.08812 45.3814 8.16663 47.0406 9.62306 48.3276C8.18315 48.6996 5.95129 46.9957 4.88335 43.8039ZM21.3463 49.8035C20.9023 49.7205 20.482 49.541 20.115 49.2777C19.7479 49.0144 19.4433 48.6736 19.2225 48.2796C18.8739 47.3814 18.84 46.3916 19.1265 45.4718C22.0208 47.0417 25.1755 48.0743 28.4379 48.5196C25.6061 49.9115 23.1462 50.3675 21.3463 49.8515V49.8035ZM44.7929 51.3274C44.4341 51.4687 44.049 51.5311 43.6639 51.5104C43.2788 51.4897 42.9027 51.3863 42.561 51.2074C41.8338 50.6432 41.3214 49.8472 41.1091 48.9515C43.9871 48.7532 46.8188 48.1222 49.5086 47.0797C48.4723 49.0073 46.8085 50.5229 44.7929 51.3754V51.3274ZM57.1761 37.4322C56.2136 38.9916 55.0384 40.4092 53.6844 41.644C48.3447 36.7123 44.2769 29.1528 44.5889 21.4012C44.5889 21.083 44.4625 20.7778 44.2375 20.5528C44.0124 20.3277 43.7072 20.2013 43.389 20.2013C43.1133 20.1939 42.8434 20.2818 42.6249 20.4501C42.4063 20.6183 42.2524 20.8568 42.1891 21.1252L41.7811 20.6573C40.6828 19.4708 39.7356 18.1528 38.9613 16.7335C42.7861 15.7843 46.8129 16.0656 50.4686 17.5375C52.3886 18.2165 54.136 19.3089 55.5874 20.7375C57.0388 22.166 58.1587 23.896 58.868 25.805C59.0697 26.4313 59.2182 27.0736 59.312 27.7248L56.2402 28.5528C55.922 28.5942 55.6332 28.7603 55.4374 29.0145C55.2416 29.2688 55.1549 29.5905 55.1963 29.9087C55.2376 30.2269 55.4037 30.5157 55.658 30.7115C55.9123 30.9073 56.2339 30.994 56.5522 30.9526C56.6558 30.9644 56.7605 30.9644 56.8642 30.9526L59.576 30.0887C59.4045 32.6991 58.5792 35.2243 57.1761 37.4322Z" fill="black"/>
<path d="M52.724 19.6976C52.0867 19.331 51.355 19.1614 50.6214 19.2104C49.8877 19.2594 49.1851 19.5247 48.6021 19.9728C48.0192 20.4209 47.5822 21.0317 47.3462 21.7281C47.1102 22.4245 47.0859 23.1752 47.2763 23.8853C47.4348 24.4764 47.7367 25.0192 48.1552 25.4657C48.5736 25.9122 49.0958 26.2485 49.6754 26.4449C50.2549 26.6413 50.874 26.6917 51.4777 26.5916C52.0814 26.4915 52.6511 26.244 53.1362 25.871C53.6214 25.4981 54.007 25.0112 54.259 24.4535C54.511 23.8959 54.6215 23.2847 54.5807 22.6741C54.5399 22.0635 54.3491 21.4724 54.0253 20.9532C53.7014 20.434 53.2544 20.0027 52.724 19.6976ZM51.1761 24.1973C51.0003 24.2816 50.8081 24.3259 50.6131 24.327C50.4182 24.3281 50.2255 24.2861 50.0487 24.2039C49.872 24.1216 49.7156 24.0013 49.5909 23.8515C49.4662 23.7016 49.3763 23.526 49.3275 23.3373C49.2787 23.1486 49.2724 22.9514 49.3089 22.7599C49.3454 22.5684 49.4239 22.3874 49.5387 22.2298C49.6535 22.0723 49.8017 21.9421 49.9728 21.8487C50.1439 21.7553 50.3335 21.7009 50.5281 21.6895C50.6944 21.6427 50.8685 21.6303 51.0397 21.653C51.2109 21.6757 51.3757 21.733 51.5241 21.8215C51.6771 21.9016 51.811 22.0139 51.9166 22.1506C52.0222 22.2873 52.097 22.4451 52.136 22.6134C52.216 22.9506 52.1601 23.3057 51.9805 23.602C51.8009 23.8983 51.512 24.1122 51.1761 24.1973Z" fill="black"/>
</svg>
