<svg width="64" height="64" viewBox="0 0 64 64" fill="none" xmlns="http://www.w3.org/2000/svg">
<path fill-rule="evenodd" clip-rule="evenodd" d="M26.4544 8.87065C28.165 8.18437 30.0006 5.8573 31.909 5.8573C33.8171 5.85772 35.7345 8.16506 37.4989 8.8503C39.3235 9.11112 42.0772 8.01277 43.7296 8.96726C45.3816 9.92197 45.8885 12.8784 47.0741 14.3545C48.524 15.4924 51.4575 15.9187 52.4113 17.5711C53.3649 19.2241 52.3256 22.0377 52.6143 23.9086C53.3008 25.6195 55.6285 27.4551 55.6281 29.3632C55.6279 31.2715 53.3206 33.1889 52.6353 34.953C52.3741 36.7781 53.4724 39.5312 52.5177 41.1838C51.5637 42.8361 48.6068 43.3428 47.1309 44.5282C45.9925 45.9785 45.567 48.9118 43.9142 49.8655C42.2616 50.8188 39.4471 49.7799 37.5765 50.0684C35.8657 50.7551 34.0304 53.0825 32.1222 53.0825C30.2139 53.0821 28.2964 50.7747 26.5323 50.0893C24.7074 49.8285 21.954 50.9263 20.3016 49.9723C18.6494 49.0177 18.1421 46.061 16.9571 44.585C15.5072 43.4472 12.5737 43.0207 11.6198 41.3684C10.6662 39.7156 11.7051 36.9019 11.4168 35.0308C10.7303 33.3201 8.40279 31.4847 8.40332 29.5764C8.40353 27.6683 10.7106 25.7507 11.3959 23.9868C11.6568 22.1614 10.5588 19.4085 11.5132 17.7556C12.4674 16.1035 15.4243 15.5966 16.9001 14.4115C18.0383 12.9612 18.4642 10.0279 20.1171 9.07431C21.7694 8.11992 24.5836 9.15974 26.4544 8.87065Z" fill="#FFEAA7"/>
<path d="M26.2333 8.03329C26.773 7.7925 27.386 7.32802 28.0124 6.85414C29.2155 5.94279 30.4614 5 31.9098 5C33.3392 5.00053 34.6093 5.92496 35.8437 6.82282C36.4973 7.29859 37.1394 7.76613 37.7138 8.01124C38.3036 8.07526 39.0724 7.97897 39.858 7.88109C41.3554 7.69389 42.9057 7.50014 44.1604 8.22482C45.3951 8.938 46.0335 10.3752 46.6543 11.7718C46.9817 12.509 47.3035 13.233 47.6806 13.7355C48.1664 14.0924 48.8744 14.391 49.5977 14.6958C50.9898 15.2829 52.4315 15.8911 53.1549 17.1444C53.8701 18.3838 53.7048 19.9429 53.5444 21.4577C53.4591 22.2661 53.3749 23.0595 53.4528 23.6865C53.6937 24.2268 54.1578 24.8401 54.6322 25.466C55.5428 26.6693 56.4861 27.9148 56.4859 29.3631C56.4856 30.7927 55.5613 32.0631 54.663 33.2971C54.1875 33.9507 53.7197 34.593 53.4746 35.1672C53.4103 35.757 53.5068 36.5261 53.6048 37.3113C53.7919 38.8089 53.9857 40.3592 53.2613 41.6138C52.5482 42.8486 51.1109 43.4877 49.7138 44.108C48.977 44.435 48.2528 44.7573 47.7501 45.1342C47.3938 45.62 47.095 46.3279 46.7898 47.0514C46.2027 48.4434 45.5949 49.8848 44.3416 50.6084C43.1021 51.3235 41.5431 51.1584 40.0279 50.9979C39.22 50.9122 38.4263 50.8289 37.7994 50.9062C37.2595 51.1472 36.6461 51.611 36.0199 52.0852C34.8169 52.9959 33.5709 53.9394 32.1229 53.9394C30.6933 53.9389 29.4228 53.0147 28.1886 52.1166C27.5349 51.641 26.8927 51.1733 26.3182 50.9279C25.7286 50.8642 24.9598 50.9605 24.1746 51.0583C22.6773 51.2455 21.1268 51.4396 19.872 50.7146C18.6372 50.0015 17.9986 48.5641 17.3781 47.1671C17.0507 46.4301 16.7288 45.706 16.3517 45.2037C15.8659 44.8476 15.1581 44.5484 14.4348 44.2438C13.0425 43.6566 11.6009 43.0481 10.8777 41.7948C10.1625 40.5557 10.3274 38.9963 10.4878 37.4812C10.5735 36.6734 10.6575 35.8793 10.5796 35.2525C10.339 34.7128 9.87457 34.0993 9.40049 33.4734C8.48956 32.2701 7.54656 31.0241 7.54688 29.5763C7.54688 28.1465 8.47142 26.8765 9.36959 25.6422C9.84483 24.9887 10.3127 24.3463 10.5578 23.7723C10.6217 23.1822 10.5255 22.4133 10.4275 21.6278C10.2402 20.1307 10.0462 18.5801 10.7711 17.3254C11.4843 16.0907 12.9217 15.4521 14.3184 14.8313C15.0556 14.5041 15.7796 14.1819 16.282 13.805C16.6385 13.3194 16.9372 12.6115 17.242 11.8879C17.8295 10.4958 18.4375 9.05465 19.6911 8.33102C20.9302 7.61573 22.4892 7.78111 24.0043 7.941C24.8128 8.02675 25.6065 8.1107 26.2333 8.03329ZM29.0472 8.22566C28.3156 8.77927 27.6003 9.32106 26.8417 9.6401C26.7633 9.67923 26.6778 9.70697 26.5864 9.7211C25.7435 9.85136 24.7957 9.75116 23.8298 9.64886C22.5828 9.51671 21.3 9.38086 20.5448 9.81687C19.7936 10.2498 19.2994 11.422 18.8218 12.5536C18.452 13.43 18.0906 14.2873 17.5768 14.942L17.576 14.9416C17.5364 14.9917 17.4907 15.0383 17.4389 15.0798C16.773 15.6148 15.9002 16.0027 15.0111 16.3977C13.8701 16.9044 12.6954 17.4262 12.2568 18.1856C11.8241 18.9349 11.9821 20.199 12.1349 21.4196C12.2521 22.3566 12.3668 23.272 12.2471 24.1074L12.2461 24.1067C12.2371 24.1705 12.2205 24.2335 12.197 24.2955C11.8861 25.0957 11.3251 25.8661 10.7546 26.6503C10.0182 27.6621 9.26064 28.7027 9.26064 29.5763C9.26064 30.4422 10.0297 31.4575 10.7719 32.4382C11.3257 33.17 11.8675 33.8861 12.1863 34.6441C12.2258 34.7224 12.2537 34.8081 12.2679 34.8997C12.3976 35.7425 12.2975 36.6905 12.1953 37.6565C12.0634 38.9033 11.9275 40.186 12.3634 40.9414C12.7969 41.6922 13.9686 42.1866 15.1002 42.6642C15.9768 43.034 16.8339 43.3958 17.4888 43.9097L17.4883 43.9101C17.5387 43.9498 17.585 43.9953 17.6264 44.0473C18.1616 44.7134 18.5491 45.5865 18.9441 46.475C19.451 47.6164 19.9729 48.7908 20.7326 49.2291C21.4816 49.662 22.7458 49.5041 23.9663 49.3517C24.903 49.2341 25.8186 49.1195 26.6538 49.239V49.2401C26.717 49.2495 26.7803 49.2655 26.8422 49.2896C27.6424 49.6005 28.4125 50.1609 29.1972 50.7319C30.2087 51.4679 31.2494 52.2257 32.1231 52.2257C32.989 52.2257 34.0044 51.4568 34.9849 50.7139C35.7169 50.16 36.4328 49.6184 37.1912 49.2998C37.2694 49.2606 37.3551 49.2325 37.4465 49.2185C38.2895 49.0882 39.2368 49.1887 40.2029 49.2909C41.4496 49.423 42.7328 49.5589 43.488 49.1228C44.239 48.6899 44.7334 47.5177 45.211 46.3862C45.5805 45.5094 45.9422 44.6524 46.4565 43.9975L46.4571 43.998C46.4965 43.9482 46.5422 43.9016 46.594 43.8598C47.2601 43.325 48.1325 42.9372 49.0216 42.5422C50.1631 42.0351 51.3372 41.5132 51.7761 40.7533C52.2089 40.0048 52.0508 38.7407 51.8978 37.5201C51.781 36.583 51.6664 35.6677 51.7858 34.8324H51.7868C51.7958 34.7693 51.8124 34.7064 51.8363 34.6441C52.147 33.8437 52.7078 33.0733 53.2785 32.2892C54.0144 31.2776 54.7719 30.2367 54.7723 29.3634C54.7723 28.4976 54.0036 27.4822 53.2609 26.5015C52.7069 25.7695 52.1651 25.0535 51.8463 24.295C51.8071 24.2172 51.7791 24.1312 51.7649 24.0401C51.6352 23.1971 51.7353 22.249 51.8375 21.2832C51.9696 20.0364 52.1056 18.7538 51.6694 17.9984C51.2359 17.2473 50.0642 16.7529 48.9328 16.2754C48.056 15.9058 47.1987 15.544 46.544 15.0302L46.5445 15.029C46.4946 14.99 46.448 14.944 46.4063 14.8922C45.8714 14.2263 45.4833 13.3532 45.0886 12.4642C44.5816 11.3232 44.0595 10.1486 43.3001 9.71014C42.5511 9.27782 41.2873 9.4356 40.0664 9.58821C39.1299 9.70518 38.2141 9.81982 37.3789 9.70012V9.69927C37.3157 9.69052 37.2529 9.67417 37.1905 9.65044C36.3903 9.33952 35.6198 8.77895 34.8355 8.20752C33.8242 7.47187 32.7833 6.71429 31.9098 6.71429C31.0442 6.71419 30.0283 7.48295 29.0472 8.22566Z" fill="black"/>
<path fill-rule="evenodd" clip-rule="evenodd" d="M16.6187 36.506L6.06348 47.0608L15.2103 48.6521L17.1452 58.1424L28.9489 46.3386C23.3958 45.3161 18.8008 41.5535 16.6187 36.506Z" fill="#DFB28B"/>
<path d="M17.0052 37.3356L7.84256 46.4984L15.355 47.8054C15.7345 47.8704 16.0129 48.1746 16.0621 48.5367L17.6661 56.4051L27.9486 46.1222C28.6193 46.2893 29.3062 46.415 30.0058 46.4985L17.7537 58.7506L17.7516 58.7485C17.6366 58.864 17.4877 58.9475 17.3166 58.9825C16.8528 59.0772 16.3998 58.7776 16.305 58.3138L14.4871 49.3984L5.95931 47.915C5.77474 47.8925 5.5965 47.8103 5.45506 47.6689C5.11915 47.3332 5.11915 46.788 5.45506 46.4525L16.2708 35.6366C16.4845 36.2192 16.7307 36.7859 17.0052 37.3356Z" fill="black"/>
<path fill-rule="evenodd" clip-rule="evenodd" d="M47.3819 36.506L57.9369 47.0608L48.7897 48.6521L46.8554 58.1424L35.0518 46.3386C40.6046 45.3161 45.1993 41.5535 47.3819 36.506Z" fill="#DFB28B"/>
<path d="M47.7295 35.6366L58.545 46.4525C58.8809 46.7881 58.8809 47.3333 58.545 47.6689C58.4038 47.8103 58.2252 47.8925 58.0413 47.915L49.5124 49.3983L47.6954 58.3137C47.6006 58.7774 47.1476 59.0771 46.6834 58.9824C46.5123 58.9474 46.3635 58.8639 46.2487 58.7484L46.2467 58.7505L33.9941 46.4984C34.694 46.4155 35.3806 46.2887 36.0515 46.1221L46.3341 56.405L47.938 48.5366C47.9868 48.1745 48.2656 47.8698 48.645 47.8049L56.1575 46.4983L46.9949 37.3355C47.2695 36.7859 47.5156 36.2192 47.7295 35.6366Z" fill="black"/>
<path fill-rule="evenodd" clip-rule="evenodd" d="M32 13.1163C41.2494 13.1163 48.7503 20.6173 48.7503 29.8665C48.7503 39.116 41.2494 46.6167 32 46.6167C22.7508 46.6167 15.25 39.116 15.25 29.8665C15.25 20.6173 22.7508 13.1163 32 13.1163Z" fill="#E6E9ED"/>
<path d="M31.9994 12.2563C36.8616 12.2563 41.2647 14.2281 44.4516 17.4147C47.6383 20.6023 49.61 25.0048 49.61 29.8667C49.61 34.7286 47.6384 39.1321 44.4516 42.3188C41.2646 45.5056 36.8615 47.4773 31.9994 47.4773C27.1372 47.4773 22.7343 45.5056 19.5476 42.3188C16.3606 39.132 14.3887 34.7286 14.3887 29.8667C14.3887 25.0048 16.3605 20.6022 19.5476 17.4147C22.7344 14.2281 27.1373 12.2563 31.9994 12.2563ZM43.2346 18.6319C40.3594 15.7559 36.3866 13.9769 31.9994 13.9769C27.6125 13.9769 23.64 15.7559 20.7642 18.6319C17.8886 21.5071 16.1096 25.4799 16.1096 29.8667C16.1096 34.2538 17.8886 38.2266 20.7642 41.1018C23.64 43.9778 27.6125 45.7566 31.9994 45.7566C36.3865 45.7566 40.3593 43.9778 43.2345 41.1018C46.1104 38.2265 47.8892 34.2537 47.8892 29.8667C47.8893 25.4799 46.1104 21.5071 43.2346 18.6319Z" fill="black"/>
<path d="M37.3913 22.3996L43.4366 23.8849C45.1936 24.3166 45.9429 26.5054 44.7454 27.9189L40.7343 32.6662L41.19 38.8777C41.3169 40.89 39.4706 42.0612 37.7615 41.3684L31.9982 39.0167L26.2347 41.3684C24.5487 42.0508 22.6433 40.6902 22.8112 38.8335L23.2623 32.6662L19.2508 27.9189C18.0651 26.5167 18.7838 24.27 20.6241 23.868L26.6051 22.3996L29.8786 17.1207C30.893 15.4778 32.9627 15.4716 34.0293 17.0035L37.3913 22.3996ZM32.4309 18.2796C32.1663 17.8618 31.8204 17.8679 31.5524 18.3011L27.9246 24.1912L21.0571 25.8721C20.7392 25.9416 20.599 26.3416 20.8143 26.5958L25.3668 31.98L24.8499 39.0052C24.8171 39.3345 25.1483 39.5965 25.4654 39.4687L32.0109 36.805L38.5311 39.4681C38.8409 39.5925 39.1685 39.3475 39.146 39.0219L38.6272 31.9795L43.0987 26.6946C43.4656 26.2923 43.4207 25.9892 42.9475 25.8731L36.0781 24.189C34.9297 22.1869 33.6475 20.2421 32.4309 18.2796Z" fill="black"/>
<path d="M32.431 18.2797C32.1664 17.8618 31.8204 17.868 31.5524 18.3011L27.9246 24.1912L21.0571 25.8722C20.7392 25.9417 20.5991 26.3416 20.8143 26.5958L25.3669 31.98L24.85 39.0053C24.8172 39.3346 25.1483 39.5965 25.4655 39.4687L32.011 36.8051L38.5312 39.4682C38.841 39.5925 39.1685 39.3475 39.1461 39.022L38.6273 31.9796L43.0987 26.6946C43.4657 26.2924 43.4207 25.9893 42.9476 25.8732L36.0782 24.189C34.9297 22.1869 33.6476 20.2422 32.431 18.2797Z" fill="#FCD770"/>
</svg>
