<svg width="64" height="64" viewBox="0 0 64 64" fill="none" xmlns="http://www.w3.org/2000/svg">
<g clip-path="url(#clip0_2242_1692)">
<path d="M23.8346 28.595C22.8999 32.6953 24.9219 36.6554 28.3509 37.4402C31.7799 38.225 35.3174 35.5372 36.2521 31.437C36.6359 29.7534 36.5212 28.0936 36.0152 26.6675C35.0576 23.9688 34.9274 21.2004 35.5255 18.5775L35.8963 16.9507C35.9688 16.6331 35.7701 16.3168 35.4527 16.2441L31.1394 15.257C30.8215 15.1842 30.5049 15.383 30.4325 15.7011L30.0618 17.3271C29.4638 19.9501 28.147 22.3872 26.1149 24.4018C25.041 25.4661 24.2184 26.9114 23.8346 28.595Z" fill="#D97C41"/>
<path d="M36.015 26.6674C35.0575 23.9687 34.9273 21.2003 35.5253 18.5774L35.8962 16.9506C35.9686 16.633 35.77 16.3167 35.4525 16.2441L31.1392 15.2569C30.8352 15.1873 30.5349 15.3675 30.4456 15.6614L32.9916 16.2441C33.3091 16.3167 33.5077 16.633 33.4353 16.9506L33.0644 18.5774C32.4664 21.2004 32.5966 23.9687 33.5541 26.6674C34.0601 28.0936 34.1748 29.7534 33.7911 31.437C33.0796 34.5579 30.8598 36.8584 28.3281 37.4343C28.3357 37.436 28.3431 37.4385 28.3507 37.4401C31.7798 38.2249 35.3173 35.5372 36.252 31.437C36.6358 29.7533 36.5211 28.0935 36.015 26.6674Z" fill="#C76D33"/>
<path d="M33.0982 8.91412L31.627 15.3683L34.9641 16.1321L36.4354 9.67783C37.371 9.6701 38.2151 9.01772 38.4339 8.05772C38.6894 6.93717 37.9963 5.82272 36.8859 5.56854C36.4332 5.46494 35.9811 5.52037 35.587 5.69826C35.309 5.36662 34.9258 5.11994 34.4731 5.01635C33.3626 4.76217 32.2554 5.46459 32 6.58514C31.7811 7.54525 32.2587 8.50022 33.0982 8.91412Z" fill="#F2C7AE"/>
<path d="M37.1156 26.0872C34.0258 26.0872 31.1628 26.9956 28.8134 28.5427C27.2098 29.5987 25.2286 29.8795 23.3802 29.3773C19.2493 28.255 14.6466 29.3737 11.4572 32.735C6.98208 37.4513 6.98021 44.9807 11.4528 49.6995C13.8281 52.2054 16.9881 53.4632 20.1537 53.4802V53.4831L20.2806 53.4806C20.4015 53.48 20.522 53.4775 20.6427 53.4733L36.2883 53.1571L36.288 53.1549C36.5621 53.1694 36.8375 53.1795 37.1154 53.1795C45.1002 53.1795 51.5732 47.1147 51.5732 39.6334C51.5732 32.1522 45.1004 26.0872 37.1156 26.0872Z" fill="#AF602D"/>
<path d="M21.1053 29.3772C22.072 29.6398 23.0746 29.6862 24.041 29.5217C23.8195 29.4842 23.5989 29.4366 23.3804 29.3772C21.9767 28.9959 20.5187 28.874 19.0801 29.0102C19.7622 29.0746 20.4399 29.1965 21.1053 29.3772Z" fill="#A05423"/>
<path d="M37.1161 26.0872C36.733 26.0872 36.3534 26.1013 35.9779 26.1286C43.4312 26.6719 49.2988 32.5104 49.2988 39.6332C49.2988 47.1145 42.8258 53.1793 34.841 53.1793C34.563 53.1793 34.2876 53.1692 34.0135 53.1547L34.0139 53.1569L19.4082 53.4521C19.6566 53.4687 19.9054 53.4787 20.1543 53.48V53.4829L20.2812 53.4803C20.402 53.4797 20.5227 53.4773 20.6434 53.4731L36.2889 53.1569L36.2886 53.1547C36.5627 53.1692 36.8381 53.1793 37.1161 53.1793C45.1009 53.1793 51.5738 47.1145 51.5738 39.6332C51.5738 32.152 45.1009 26.0872 37.1161 26.0872Z" fill="#A05423"/>
<path d="M36.5014 27.9367C33.3136 30.6431 32.5709 35.0358 34.8425 37.748C37.114 40.4601 41.5396 40.4647 44.7273 37.7583C46.0362 36.647 46.9328 35.2514 47.3776 33.8046C48.2196 31.0667 49.7638 28.7766 51.803 27.0451L53.0679 25.9712C53.3152 25.7612 53.3467 25.391 53.1384 25.1422L50.2768 21.7256C50.0665 21.4746 49.6922 21.4427 49.4426 21.6547L48.1835 22.7237C46.1444 24.455 43.6415 25.6008 40.8191 25.9741C39.3278 26.1714 37.8102 26.8254 36.5014 27.9367Z" fill="#D97C41"/>
<path d="M53.1388 25.1425L50.2772 21.7259C50.0669 21.4748 49.6926 21.443 49.443 21.655L48.4576 22.4917L50.6778 25.1426C50.8862 25.3913 50.8547 25.7616 50.6074 25.9716L49.3425 27.0455C47.3033 28.7768 45.759 31.0671 44.9171 33.805C44.4721 35.2518 43.5757 36.6472 42.2667 37.7585C41.0421 38.7982 39.6349 39.4362 38.2373 39.6759C40.3438 40.0591 42.7691 39.4214 44.7276 37.7585C46.0366 36.6472 46.9331 35.2516 47.378 33.805C48.22 31.0671 49.7642 28.7769 51.8034 27.0455L53.0683 25.9716C53.3156 25.7614 53.347 25.3911 53.1388 25.1425Z" fill="#C76D33"/>
<path d="M55.6175 17.8513L50.5996 22.1115L52.8102 24.751L57.8281 20.4907C58.58 21.0536 59.6425 21.0457 60.3889 20.4121C61.26 19.6724 61.37 18.3608 60.6344 17.4825C60.3345 17.1245 59.9404 16.8939 59.5197 16.7962C59.4951 16.3622 59.3358 15.9321 59.0361 15.5741C58.3005 14.6958 56.9979 14.5834 56.1266 15.3231C55.3804 15.957 55.1934 17.0101 55.6175 17.8513Z" fill="#F2C7AE"/>
<path d="M34.4154 5.69825C34.7244 5.5588 35.0691 5.4961 35.4217 5.52469C35.1643 5.28153 34.8425 5.10083 34.4735 5.01633C34.116 4.93454 33.7591 4.95305 33.4307 5.05161C33.8269 5.16973 34.1644 5.39883 34.4154 5.69825Z" fill="#EFB899"/>
<path d="M36.8862 5.56867C36.528 5.48664 36.1707 5.50563 35.8416 5.60465C36.8764 5.91227 37.5079 6.98102 37.2624 8.05774C37.0436 9.01774 36.1995 9.67024 35.2639 9.67785L33.8506 15.8772L34.9643 16.1321L36.4357 9.67785C37.3714 9.67024 38.2155 9.01774 38.4343 8.05774C38.6897 6.93719 37.9966 5.82274 36.8862 5.56867Z" fill="#EFB899"/>
<path d="M56.6563 20.4905L52.3232 24.1692L52.8103 24.7507L57.4121 20.8437C57.1433 20.7797 56.8852 20.6619 56.6563 20.4905Z" fill="#EFB899"/>
<path d="M60.6345 17.4823C60.3347 17.1243 59.9405 16.8937 59.5198 16.796C59.4954 16.362 59.3361 15.9319 59.0362 15.5739C58.4904 14.9221 57.6324 14.6933 56.8701 14.9202C57.2451 15.0316 57.5933 15.2504 57.8643 15.5739C58.1642 15.9319 58.3235 16.362 58.3481 16.796C58.7688 16.8936 59.1629 17.1242 59.4628 17.4823C60.1984 18.3606 60.0884 19.6722 59.2173 20.4119C58.9929 20.6024 58.7396 20.7352 58.4751 20.8141C59.1177 21.0047 59.8392 20.8789 60.3891 20.4119C61.2602 19.6722 61.3701 18.3606 60.6345 17.4823Z" fill="#EFB899"/>
<path d="M52.7752 54.9263H5.97176C5.75684 54.9263 5.55891 54.8093 5.45508 54.6211L2.95313 50.0832C2.73621 49.6898 3.02074 49.208 3.46981 49.208H55.277C55.7261 49.208 56.0106 49.6899 55.7937 50.0832L53.2917 54.6211C53.188 54.8095 52.9901 54.9263 52.7752 54.9263Z" fill="#FFAAA1"/>
<path d="M46.633 59.0356H13.0069C12.6681 59.0356 12.3936 58.761 12.3936 58.4222V54.9263H47.2464V58.4222C47.2464 58.7609 46.9718 59.0356 46.633 59.0356Z" fill="#F54432"/>
<path d="M55.2773 49.2078H52.9336C53.3827 49.2078 53.6672 49.6896 53.4503 50.0829L50.9483 54.6209C50.8445 54.8092 50.6466 54.926 50.4316 54.926H52.7754C52.9903 54.926 53.1882 54.8091 53.2921 54.6209L55.794 50.0829C56.0109 49.6896 55.7265 49.2078 55.2773 49.2078Z" fill="#FF938A"/>
<path d="M44.9024 54.9263V58.4222C44.9024 58.761 44.6277 59.0356 44.2891 59.0356H46.6328C46.9716 59.0356 47.2462 58.7609 47.2462 58.4222V54.9263H44.9024Z" fill="#E83826"/>
<path d="M23.885 30.1578C23.8479 30.1578 23.8101 30.1554 23.7723 30.1505C23.2909 30.0889 22.9505 29.6486 23.0121 29.1672C23.0523 28.8528 23.1085 28.5362 23.1794 28.2264C23.5883 26.4298 24.4594 24.8312 25.6983 23.6045C27.551 21.7678 28.8335 19.4697 29.4069 16.9587L29.777 15.3327C29.9579 14.5419 30.7475 14.0462 31.5367 14.2268L35.8516 15.215C36.6391 15.3952 37.1341 16.1842 36.9542 16.9736L36.5839 18.5999C36.0436 20.9704 36.143 23.3602 36.8796 25.7033C37.0251 26.1664 36.7677 26.6598 36.3047 26.8054C35.8419 26.9509 35.3483 26.6936 35.2026 26.2305C34.3831 23.6234 34.2681 20.8497 34.8701 18.2093L35.1765 16.8633L31.4269 16.0047L31.1208 17.3493C30.4731 20.1864 29.0258 22.7809 26.9356 24.853C25.9342 25.8447 25.2282 27.146 24.8933 28.617C24.8351 28.8721 24.7888 29.132 24.7558 29.3901C24.6989 29.8339 24.3206 30.1578 23.885 30.1578Z" fill="black"/>
<path d="M35.1655 16.8383C35.1 16.8383 35.0343 16.8311 34.9695 16.8162L31.6323 16.0525C31.1594 15.9443 30.8636 15.4733 30.9714 15.0004L32.3084 9.13537C31.4816 8.436 31.0929 7.32072 31.3444 6.2174C31.5198 5.44783 31.9823 4.79193 32.6465 4.37053C33.3133 3.9476 34.1033 3.81154 34.8706 3.98709C35.2935 4.08389 35.6814 4.26857 36.0162 4.52978C36.4308 4.44002 36.8602 4.44236 37.2833 4.53928C38.864 4.90103 39.855 6.48975 39.4923 8.08057C39.2407 9.18412 38.4073 10.0199 37.3594 10.2907L36.0225 16.1549C35.9707 16.3822 35.8306 16.5798 35.6331 16.7038C35.4919 16.7924 35.3297 16.8383 35.1655 16.8383ZM32.8805 14.5348L34.5042 14.9064L35.7801 9.30986C35.8705 8.9126 36.2223 8.62971 36.6298 8.62631C37.1815 8.62174 37.6539 8.23654 37.7786 7.68975C37.926 7.04299 37.5279 6.39834 36.8914 6.25268C36.641 6.19549 36.3846 6.22092 36.1503 6.32674C35.7913 6.48892 35.3683 6.39213 35.1151 6.09025C34.9496 5.89267 34.7295 5.75791 34.4787 5.70049C34.1723 5.63017 33.8561 5.68514 33.5884 5.85482C33.3183 6.02603 33.1302 6.29357 33.0585 6.60799C32.9337 7.15549 33.1928 7.70873 33.6885 7.95318C34.0534 8.13318 34.2473 8.54006 34.1568 8.93685L32.8805 14.5348Z" fill="black"/>
<path d="M47.5442 49.9146C47.3099 49.9146 47.0761 49.8215 46.903 49.637C46.5709 49.283 46.5886 48.7268 46.9426 48.3947C49.4917 46.0034 50.8956 42.8304 50.8956 39.4602C50.8956 36.5819 49.8865 33.8686 47.9771 31.6141C47.6634 31.2436 47.7095 30.689 48.0799 30.3754C48.4503 30.0618 49.0051 30.1077 49.3186 30.4782C51.5001 33.0544 52.6533 36.1603 52.6533 39.4603C52.6533 43.3214 51.0524 46.9497 48.1453 49.6769C47.9758 49.8358 47.7597 49.9146 47.5442 49.9146Z" fill="black"/>
<path d="M11.2148 49.9145C10.9659 49.9145 10.7186 49.8094 10.5447 49.6049C8.45152 47.1433 7.3441 43.984 7.42613 40.7089C7.50851 37.4211 8.78527 34.313 11.0209 31.9573C14.3134 28.4872 19.2143 27.1072 23.8118 28.3568C23.8966 28.3795 23.9848 28.401 24.0731 28.4205C25.6223 28.7684 27.2466 28.4819 28.5318 27.6354C30.729 26.1884 33.3009 25.3086 35.9694 25.0911C36.4111 25.0541 36.865 25.0354 37.3169 25.0354C38.1568 25.0354 38.9971 25.0997 39.815 25.2265C40.243 25.2856 40.5731 25.653 40.5731 26.0971C40.5731 26.5825 40.1802 26.976 39.6948 26.976H39.6936C39.6482 26.976 39.603 26.9725 39.5581 26.9655C38.4332 26.7899 37.2474 26.7481 36.114 26.8429C33.7372 27.0367 31.4503 27.8183 29.4987 29.1034C27.8177 30.2108 25.7008 30.5873 23.6913 30.1363C23.5809 30.112 23.4677 30.0843 23.3544 30.0541C19.379 28.9735 15.1429 30.1669 12.2961 33.1674C8.32671 37.3499 8.14566 44.07 11.8839 48.4663C12.1984 48.8361 12.1535 49.3908 11.7837 49.7052C11.6184 49.8458 11.416 49.9145 11.2148 49.9145Z" fill="black"/>
<path d="M39.6498 40.4914C39.4284 40.4914 39.2078 40.4821 38.988 40.4635C37.1332 40.3057 35.4932 39.4805 34.3702 38.1398C31.7932 35.0629 32.5845 30.1079 36.1341 27.0941C37.5332 25.9063 39.1832 25.158 40.9056 24.9303C43.4779 24.5901 45.8676 23.5356 47.8163 21.8812L49.0755 20.8122C49.3759 20.5571 49.7579 20.4347 50.1507 20.4684C50.5435 20.5018 50.8991 20.6866 51.1523 20.9888L54.0138 24.4054C54.5304 25.0219 54.4518 25.9476 53.8386 26.4685L52.5735 27.5425C50.6239 29.1978 49.1874 31.3927 48.4193 33.8903C47.9061 35.5591 46.8958 37.0684 45.4977 38.2555C43.802 39.6955 41.7033 40.4914 39.6498 40.4914ZM49.9915 22.3404L48.9541 23.2211C46.7474 25.0946 44.044 26.2882 41.1361 26.6727C39.7491 26.8561 38.4128 27.4652 37.2719 28.4339C34.4561 30.8246 33.759 34.6722 35.7179 37.0108C36.5378 37.99 37.7522 38.594 39.1369 38.7118C40.9314 38.8648 42.8358 38.2097 44.3601 36.9155C45.5021 35.9459 46.3248 34.7212 46.7392 33.3736C47.6062 30.5549 49.2302 28.0752 51.4359 26.2025L52.4822 25.3142L49.9915 22.3404Z" fill="black"/>
<path d="M53.0853 25.2131C53.043 25.2131 53.0005 25.2113 52.958 25.2077C52.5651 25.1742 52.2094 24.9894 51.9564 24.6872L50.5036 22.9527C49.9868 22.3361 50.0655 21.4103 50.6791 20.8894L54.7908 17.3984C54.5459 16.3248 54.9141 15.1982 55.7591 14.4806C56.3596 13.9709 57.122 13.727 57.9055 13.7934C58.6912 13.8602 59.4034 14.2309 59.9112 14.8372C60.1872 15.1668 60.3893 15.5552 60.501 15.9684C60.8874 16.1497 61.2338 16.4162 61.5097 16.7456C62.5531 17.9914 62.3959 19.8594 61.1591 20.9094C60.3138 21.6271 59.147 21.8036 58.1343 21.3819L54.0332 24.8639C53.7653 25.0914 53.4326 25.2131 53.0853 25.2131ZM52.0354 22.0437L53.1175 23.3356L57.1368 19.9229C57.586 19.5416 58.2132 19.4636 58.7345 19.7245C59.1569 19.9358 59.6618 19.8748 60.0215 19.5695C60.5243 19.1426 60.5874 18.3822 60.1621 17.8743C60.0356 17.723 59.8803 17.6093 59.7005 17.5362C59.2504 17.353 58.9207 16.9603 58.8186 16.4857C58.7771 16.293 58.6914 16.1182 58.5639 15.9659C58.3591 15.7213 58.0724 15.5718 57.7568 15.5449C57.4434 15.5181 57.138 15.6162 56.897 15.8207C56.5329 16.1298 56.3874 16.6279 56.5265 17.0892C56.6929 17.6414 56.5128 18.2425 56.0675 18.6206L52.0354 22.0437Z" fill="black"/>
<path d="M52.9764 55.6325H6.17304C5.63796 55.6325 5.14507 55.3414 4.88667 54.8726L2.38472 50.3346C2.13124 49.8748 2.13933 49.3304 2.4064 48.8782C2.67335 48.4261 3.1462 48.1562 3.6712 48.1562H55.4784C56.0034 48.1562 56.4762 48.4261 56.7431 48.8782C57.0102 49.3304 57.0182 49.8748 56.7648 50.3348L54.2629 54.8727C54.0045 55.3414 53.5116 55.6325 52.9764 55.6325ZM6.34378 53.8746H52.8058L54.9893 49.9141H4.16023L6.34378 53.8746Z" fill="black"/>
<path d="M46.8615 59.7419H13.1807C12.3729 59.7419 11.7158 59.0848 11.7158 58.277V55.3396C11.7158 54.5318 12.3729 53.8748 13.1807 53.8748H47.4475C47.933 53.8748 48.3264 54.2683 48.3264 54.7537V58.277C48.3264 59.0847 47.6693 59.7419 46.8615 59.7419ZM13.4736 57.9839H46.5686V55.6325H13.4736V57.9839Z" fill="black"/>
</g>
<defs>
<clipPath id="clip0_2242_1692">
<rect width="60" height="60" fill="white" transform="translate(2 2)"/>
</clipPath>
</defs>
</svg>
