<svg width="64" height="64" viewBox="0 0 64 64" fill="none" xmlns="http://www.w3.org/2000/svg">
<g clip-path="url(#clip0_2242_1542)">
<path d="M23.9312 8.41474L9.08196 23.264C4.39567 27.9503 4.39567 35.5483 9.08196 40.2345L23.9312 55.0838C28.6175 59.7701 36.2155 59.7701 40.9018 55.0838L55.751 40.2345C60.4373 35.5483 60.4373 27.9503 55.751 23.264L40.9018 8.41474C36.2155 3.72845 28.6175 3.72845 23.9312 8.41474Z" fill="#CF9F66"/>
<path d="M24.6854 10.4887L11.1556 24.0185C6.886 28.2881 6.886 35.2105 11.1556 39.4801L24.6854 53.0098C28.955 57.2794 35.8774 57.2794 40.147 53.0098L53.6768 39.4801C57.9464 35.2105 57.9464 28.2881 53.6768 24.0185L40.147 10.4887C35.8774 6.21909 28.955 6.21909 24.6854 10.4887Z" fill="#89643D"/>
<path d="M25.3932 12.4332L13.1008 24.7256C9.22176 28.6047 9.22176 34.8939 13.1008 38.773L25.3932 51.0653C29.2723 54.9444 35.5615 54.9444 39.4406 51.0653L51.7329 38.773C55.612 34.8939 55.612 28.6047 51.7329 24.7256L39.4406 12.4332C35.5615 8.55415 29.2723 8.55415 25.3932 12.4332Z" fill="#BDCC1E"/>
<path d="M42.1689 37.142C42.1689 37.142 40.6369 37.318 41.4319 35.934C42.2269 34.55 43.6419 31.426 43.6709 29.57C43.6999 27.714 44.2309 28.597 44.4369 28.509C44.6429 28.421 45.9699 27.272 45.7629 26.535C45.5559 25.798 45.5279 24.06 45.9699 23.854C46.4119 23.648 46.2049 21.379 43.5239 22.469C40.8429 23.559 42.7579 20.76 42.5809 20.407C42.4039 20.054 42.9049 18.727 40.2239 17.814C37.5429 16.901 38.6329 13.041 39.7819 13.778C40.2133 14.0606 40.5628 14.4515 40.7955 14.9117C41.0282 15.3719 41.136 15.8851 41.1079 16.4C41.0789 17.078 42.4079 18.344 42.9939 18.4C43.5799 18.456 45.1449 19.019 45.2039 20.2C45.2629 21.381 46.0039 21.408 46.2349 21.349C46.4659 21.29 50.4479 22.38 49.7699 26.298C49.7699 26.298 49.5639 27.798 51.7699 28.655C53.9759 29.512 52.9779 33.104 51.2699 34.342C49.5619 35.58 48.5589 31.395 47.8229 32.014C47.0869 32.633 47.0569 33.014 46.7029 34.135C46.6278 34.3578 46.4876 34.553 46.3005 34.6953C46.1133 34.8376 45.8877 34.9204 45.6529 34.9331C45.4181 34.9458 45.1849 34.8878 44.9835 34.7666C44.782 34.6453 44.6216 34.4664 44.5229 34.253C44.3199 33.4 44.1999 36.994 42.1689 37.142Z" fill="#F3FF75"/>
<path d="M38.4858 50.3121C38.4858 50.3121 34.8328 52.4331 33.1238 52.2561C31.4148 52.0791 31.7098 51.4311 30.1188 51.1371C28.5278 50.8431 26.2288 51.0191 25.8188 49.6631C25.4088 48.3071 25.5828 46.4811 23.5188 45.5981C21.4548 44.7151 19.4528 44.5981 20.2188 43.2401C20.9848 41.8821 21.9278 43.5351 22.8118 43.3581C23.6958 43.1811 25.5218 41.2371 25.9938 42.1801C26.4658 43.1231 25.4048 45.0081 26.7008 44.7731C27.9968 44.5381 29.7008 43.0641 30.5308 43.5351C31.3608 44.0061 31.8858 46.3051 34.3018 46.8351C36.7178 47.3651 41.3728 45.1851 41.6678 42.7691C41.9628 40.3531 41.7268 38.7031 42.5518 39.7691C43.3768 40.8351 42.2518 43.5991 43.1998 43.5991C44.1478 43.5991 46.6768 42.3621 45.5568 43.7171C44.4368 45.0721 42.6108 44.4241 40.8428 45.8381C39.0748 47.2521 40.4888 49.2511 38.4858 50.3121Z" fill="#F3FF75"/>
<path d="M42.6404 47.807C43.3402 47.1072 43.5513 46.1837 43.112 45.7444C42.6727 45.305 41.7492 45.5162 41.0494 46.216C40.3495 46.9158 40.1384 47.8393 40.5777 48.2786C41.0171 48.718 41.9405 48.5068 42.6404 47.807Z" fill="#F3FF75"/>
<path d="M17.8616 26.6231C17.8616 26.6231 17.5666 25.1501 15.5616 27.1541C13.5566 29.1581 13.1456 29.6881 14.0886 30.0411C15.0316 30.3941 14.1476 31.1611 13.1456 32.7521C12.1436 34.3431 12.4976 35.0521 13.7936 34.2251C15.0896 33.3981 16.3276 33.3411 15.7936 34.3431C15.2596 35.3451 14.7326 36.8181 16.5596 35.6981C18.3866 34.5781 21.6856 33.0461 20.0946 32.7521C18.5036 32.4581 19.0346 32.1621 20.2716 30.8071C21.5086 29.4521 22.8646 29.6291 23.6896 28.4501C24.5146 27.2711 24.5736 23.5591 25.3396 22.4401C26.1056 21.3211 29.5226 19.4351 30.1706 18.0791C30.8186 16.7231 30.9376 14.8381 28.4626 16.3701C25.9876 17.9021 27.5196 14.7211 28.8746 14.1901C30.2296 13.6591 29.1696 11.6561 25.1626 16.4901C21.1556 21.3241 23.6996 20.7421 23.4596 23.2651C23.2236 25.7401 20.8666 28.2141 17.8616 26.6231Z" fill="#F3FF75"/>
<path d="M30.0449 46.1429C30.5819 45.6059 30.6807 44.8341 30.2655 44.4189C29.8504 44.0038 29.0786 44.1026 28.5416 44.6395C28.0046 45.1765 27.9059 45.9483 28.321 46.3635C28.7361 46.7786 29.5079 46.6798 30.0449 46.1429Z" fill="#BDCC1E"/>
<path d="M28.9182 48.2426C29.272 47.8888 29.3312 47.3744 29.0504 47.0936C28.7696 46.8128 28.2552 46.872 27.9014 47.2258C27.5476 47.5796 27.4884 48.0941 27.7692 48.3749C28.0499 48.6557 28.5644 48.5965 28.9182 48.2426Z" fill="#BDCC1E"/>
<path d="M31.0822 47.7994C31.5462 47.3354 31.675 46.7121 31.37 46.4071C31.065 46.1021 30.4417 46.2309 29.9777 46.6949C29.5138 47.1588 29.3849 47.7822 29.6899 48.0872C29.9949 48.3922 30.6183 48.2633 31.0822 47.7994Z" fill="#BDCC1E"/>
<path d="M47.5449 27.4039C47.9601 26.9888 48.0788 26.4345 47.8101 26.1658C47.5414 25.8971 46.9871 26.0158 46.572 26.431C46.1568 26.8461 46.0381 27.4004 46.3068 27.6691C46.5755 27.9378 47.1298 27.8191 47.5449 27.4039Z" fill="#BDCC1E"/>
<path d="M25.168 25.8811C25.1429 26.1255 25.1636 26.3724 25.229 26.6091C25.335 26.8661 26.077 27.4871 26.289 27.8511C26.6845 28.2758 27.1954 28.5758 27.759 28.7141C28.137 28.7901 28.259 28.9711 28.592 28.9411C28.7491 28.9433 28.9027 28.8957 29.031 28.8051C29.031 28.8051 29.894 28.8811 30.031 28.8961C30.5294 28.9637 31.0361 28.8623 31.47 28.6081C32.303 28.1991 32.288 28.6691 33.015 27.9721C34.091 26.9401 34.423 25.8361 34.287 23.5491C34.3106 23.1035 34.1885 22.6622 33.939 22.2921C33.56 21.9131 33.318 21.7611 32.939 21.3221C32.5118 20.7949 31.9673 20.3748 31.349 20.0951C30.849 19.9591 30.743 19.5501 30.425 19.4141C30.1289 19.2921 29.8067 19.2476 29.4886 19.2847C29.1705 19.3218 28.8671 19.4393 28.607 19.6261C28.092 20.1411 28.031 19.6861 27.592 20.0951C27.592 20.0951 27.198 19.9741 26.729 20.4741C26.26 20.9741 25.623 20.6741 25.365 22.1741C25.107 23.6741 24.169 23.4581 25.168 25.8811Z" fill="url(#paint0_radial_2242_1542)"/>
<path opacity="0.49" d="M32.3407 27.0148C32.4446 26.9109 32.4509 26.7488 32.3548 26.6527C32.2587 26.5567 32.0967 26.563 31.9928 26.6669C31.8889 26.7708 31.8826 26.9329 31.9786 27.0289C32.0747 27.125 32.2368 27.1187 32.3407 27.0148Z" fill="#F48F4A"/>
<path opacity="0.49" d="M28.8241 28.216C28.928 28.1121 28.9343 27.95 28.8382 27.8539C28.7421 27.7579 28.5801 27.7642 28.4762 27.8681C28.3723 27.9719 28.366 28.134 28.462 28.2301C28.5581 28.3262 28.7202 28.3198 28.8241 28.216Z" fill="#F48F4A"/>
<path opacity="0.49" d="M28.6564 26.0521C28.7298 25.9787 28.7342 25.8641 28.6663 25.7961C28.5983 25.7282 28.4837 25.7326 28.4103 25.806C28.3369 25.8794 28.3324 25.9941 28.4004 26.062C28.4683 26.13 28.5829 26.1255 28.6564 26.0521Z" fill="#F48F4A"/>
<path opacity="0.49" d="M33.5864 25.2488C33.6383 25.1969 33.6415 25.1159 33.5934 25.0678C33.5454 25.0198 33.4643 25.023 33.4124 25.0749C33.3605 25.1268 33.3573 25.2079 33.4053 25.2559C33.4534 25.304 33.5344 25.3008 33.5864 25.2488Z" fill="#F48F4A"/>
<path opacity="0.49" d="M30.4877 27.9124C30.5397 27.8605 30.5428 27.7794 30.4948 27.7314C30.4468 27.6834 30.3657 27.6865 30.3138 27.7385C30.2618 27.7904 30.2587 27.8715 30.3067 27.9195C30.3547 27.9675 30.4358 27.9644 30.4877 27.9124Z" fill="#F48F4A"/>
<path opacity="0.49" d="M26.4198 25.3507C26.5237 25.2468 26.53 25.0848 26.4339 24.9887C26.3378 24.8926 26.1758 24.8989 26.0719 25.0028C25.968 25.1067 25.9617 25.2688 26.0577 25.3649C26.1538 25.4609 26.3159 25.4546 26.4198 25.3507Z" fill="#F48F4A"/>
<path opacity="0.49" d="M32.6448 22.744C32.7229 22.6659 32.728 22.5444 32.6561 22.4725C32.5843 22.4007 32.4627 22.4057 32.3846 22.4838C32.3065 22.5619 32.3014 22.6835 32.3733 22.7554C32.4451 22.8272 32.5667 22.8221 32.6448 22.744Z" fill="#F48F4A"/>
<path opacity="0.49" d="M30.4011 20.7026C30.4835 20.6201 30.4889 20.4919 30.4131 20.4162C30.3374 20.3404 30.2091 20.3458 30.1267 20.4282C30.0443 20.5106 30.039 20.6388 30.1147 20.7146C30.1905 20.7903 30.3187 20.785 30.4011 20.7026Z" fill="#F48F4A"/>
<path opacity="0.49" d="M32.1532 24.829C32.2571 24.7251 32.2634 24.563 32.1673 24.467C32.0712 24.3709 31.9092 24.3772 31.8053 24.4811C31.7014 24.585 31.6951 24.7471 31.7911 24.8431C31.8872 24.9392 32.0493 24.9329 32.1532 24.829Z" fill="#F48F4A"/>
<path d="M30.7995 21.4049L37.9105 30.7469C37.9561 30.8066 38.013 30.8566 38.0781 30.894C38.1432 30.9314 38.2151 30.9554 38.2896 30.9648C38.364 30.9741 38.4396 30.9684 38.5119 30.9482C38.5842 30.928 38.6517 30.8936 38.7105 30.8469C40.0315 29.7959 43.4715 26.3969 39.9105 21.7189C36.3495 17.0409 32.2205 19.5849 30.9005 20.6129C30.7822 20.7046 30.7051 20.8396 30.6862 20.9881C30.6672 21.1365 30.708 21.2865 30.7995 21.4049Z" fill="#605616"/>
<path d="M31.2808 22.0319L37.4378 30.1189C37.4801 30.1753 37.5333 30.2225 37.5942 30.2579C37.6551 30.2932 37.7225 30.316 37.7924 30.3248C37.8623 30.3335 37.9332 30.3281 38.001 30.3089C38.0688 30.2897 38.132 30.2571 38.1868 30.2129C39.3568 29.2729 42.2868 26.3239 39.2058 22.2789C36.1148 18.2179 32.5558 20.3849 31.3778 21.2939C31.323 21.336 31.2769 21.3884 31.2424 21.4483C31.2078 21.5082 31.1854 21.5743 31.1764 21.6428C31.1674 21.7114 31.1719 21.781 31.1899 21.8478C31.2078 21.9145 31.2387 21.9771 31.2808 22.0319Z" fill="url(#paint1_linear_2242_1542)"/>
<path opacity="0.51" d="M38.4606 30.5721C38.4911 30.6139 38.5042 30.6659 38.4971 30.7172C38.49 30.7685 38.4633 30.815 38.4226 30.847C38.3808 30.8775 38.3287 30.8906 38.2774 30.8835C38.2262 30.8764 38.1796 30.8497 38.1476 30.809L30.8616 21.2381C30.8311 21.1962 30.818 21.1442 30.8251 21.0929C30.8322 21.0416 30.8589 20.9951 30.8996 20.963C30.9413 20.9324 30.9933 20.9192 31.0446 20.9261C31.0958 20.933 31.1425 20.9595 31.1746 21L38.4606 30.5721Z" fill="#FAFFE0"/>
<path d="M34.5996 26.5059C35.5482 26.8682 36.597 26.8682 37.5456 26.5059C38.8456 25.8569 41.3456 24.4139 40.8746 23.2939C40.4036 22.1739 43.5266 23.4119 43.6156 23.4999C43.7046 23.5879 40.4916 30.9839 38.7836 31.9859C37.0756 32.9879 34.5996 26.5059 34.5996 26.5059Z" fill="#BDCC1E"/>
<path d="M20.7171 38.0001C20.6915 38.2441 20.7121 38.4908 20.7781 38.7271C20.8841 38.9841 21.6261 39.6051 21.8381 39.9691C22.2329 40.3941 22.7436 40.6941 23.3071 40.8321C23.6861 40.9081 23.8071 41.0901 24.1401 41.0601C24.2972 41.0617 24.4508 41.0138 24.5791 40.9231C24.5791 40.9231 25.4431 40.9991 25.5791 41.0141C26.0775 41.0817 26.5841 40.9803 27.0181 40.7261C27.8511 40.3171 27.8361 40.7871 28.5631 40.0901C29.6391 39.0591 29.9721 37.9541 29.8361 35.6671C29.8595 35.2213 29.737 34.78 29.4871 34.4101C29.1091 34.0311 28.8661 33.8801 28.4871 33.4401C28.0605 32.9125 27.5159 32.4925 26.8971 32.2141C26.3971 32.0771 26.2911 31.6681 25.9731 31.5321C25.6769 31.4104 25.3547 31.366 25.0367 31.4031C24.7186 31.4402 24.4153 31.5575 24.1551 31.7441C23.6401 32.2591 23.5801 31.8051 23.1401 32.2141C23.1401 32.2141 22.7471 32.0921 22.2771 32.5921C21.8071 33.0921 21.1711 32.7921 20.9141 34.2921C20.6571 35.7921 19.7171 35.5751 20.7171 38.0001Z" fill="url(#paint2_radial_2242_1542)"/>
<path opacity="0.49" d="M27.8905 39.1315C27.9944 39.0276 28.0007 38.8655 27.9046 38.7694C27.8086 38.6734 27.6465 38.6797 27.5426 38.7836C27.4387 38.8875 27.4324 39.0496 27.5284 39.1456C27.6245 39.2417 27.7866 39.2354 27.8905 39.1315Z" fill="#F48F4A"/>
<path opacity="0.49" d="M24.3729 40.3334C24.4768 40.2295 24.4831 40.0674 24.387 39.9714C24.291 39.8753 24.1289 39.8816 24.025 39.9855C23.9211 40.0894 23.9148 40.2515 24.0109 40.3475C24.1069 40.4436 24.269 40.4373 24.3729 40.3334Z" fill="#F48F4A"/>
<path opacity="0.49" d="M24.2062 38.1686C24.2796 38.0951 24.284 37.9805 24.2161 37.9126C24.1481 37.8446 24.0335 37.8491 23.9601 37.9225C23.8867 37.9959 23.8822 38.1105 23.9502 38.1785C24.0181 38.2464 24.1327 38.242 24.2062 38.1686Z" fill="#F48F4A"/>
<path opacity="0.49" d="M29.1352 37.3663C29.1871 37.3143 29.1903 37.2333 29.1423 37.1853C29.0942 37.1372 29.0132 37.1404 28.9612 37.1923C28.9093 37.2443 28.9061 37.3253 28.9542 37.3734C29.0022 37.4214 29.0832 37.4182 29.1352 37.3663Z" fill="#F48F4A"/>
<path opacity="0.49" d="M26.0365 40.0291C26.0885 39.9772 26.0917 39.8961 26.0436 39.8481C25.9956 39.8001 25.9145 39.8032 25.8626 39.8552C25.8107 39.9071 25.8075 39.9882 25.8555 40.0362C25.9036 40.0842 25.9846 40.0811 26.0365 40.0291Z" fill="#F48F4A"/>
<path opacity="0.49" d="M21.9706 37.4672C22.0744 37.3633 22.0808 37.2012 21.9847 37.1051C21.8886 37.0091 21.7265 37.0154 21.6227 37.1193C21.5188 37.2232 21.5124 37.3853 21.6085 37.4813C21.7046 37.5774 21.8667 37.5711 21.9706 37.4672Z" fill="#F48F4A"/>
<path opacity="0.49" d="M28.1936 34.8615C28.2717 34.7834 28.2768 34.6618 28.2049 34.5899C28.1331 34.5181 28.0115 34.5232 27.9334 34.6013C27.8553 34.6794 27.8502 34.8009 27.9221 34.8728C27.994 34.9446 28.1155 34.9396 28.1936 34.8615Z" fill="#F48F4A"/>
<path opacity="0.49" d="M25.9499 32.82C26.0323 32.7376 26.0377 32.6094 25.9619 32.5336C25.8862 32.4578 25.758 32.4632 25.6756 32.5456C25.5932 32.628 25.5878 32.7562 25.6635 32.832C25.7393 32.9078 25.8675 32.9024 25.9499 32.82Z" fill="#F48F4A"/>
<path opacity="0.49" d="M27.701 36.9464C27.8049 36.8425 27.8112 36.6805 27.7152 36.5844C27.6191 36.4883 27.457 36.4947 27.3531 36.5985C27.2493 36.7024 27.2429 36.8645 27.339 36.9606C27.4351 37.0566 27.5971 37.0503 27.701 36.9464Z" fill="#F48F4A"/>
<path d="M22.7223 40.6771C23.963 40.6917 25.1879 40.3983 26.2873 39.8231C27.4363 38.9681 27.7023 36.8771 28.4973 36.1991C29.2923 35.5211 29.0273 33.9601 28.4383 33.3121C27.8493 32.6641 29.1453 32.7811 29.6173 33.2531C30.3799 34.1663 30.8074 35.3127 30.8289 36.5023C30.8503 37.6918 30.4645 38.853 29.7353 39.7931C27.3783 42.6811 22.1923 42.9161 22.7223 40.6771Z" fill="#BDCC1E"/>
<path d="M45.6599 28.784C45.6855 28.5401 45.6651 28.2935 45.5998 28.057C45.4938 27.799 44.7519 27.178 44.5399 26.815C44.1445 26.3899 43.6336 26.0896 43.0698 25.951C42.6919 25.876 42.5698 25.694 42.2368 25.724C42.0798 25.7219 41.9262 25.7695 41.7979 25.86C41.7979 25.86 40.9339 25.785 40.7979 25.77C40.2996 25.7012 39.7926 25.8023 39.3589 26.057C38.5259 26.466 38.5408 25.997 37.8138 26.693C36.7378 27.725 36.4049 28.829 36.5419 31.116C36.5178 31.562 36.64 32.0037 36.8898 32.374C37.2688 32.752 37.5108 32.904 37.8898 33.343C38.3166 33.8707 38.8612 34.291 39.4799 34.57C39.9799 34.706 40.0858 35.115 40.4038 35.252C40.7 35.3737 41.0222 35.4181 41.3403 35.381C41.6583 35.344 41.9617 35.2266 42.2219 35.04C42.7369 34.525 42.7978 34.979 43.2368 34.57C43.2368 34.57 43.6308 34.691 44.0998 34.191C44.5688 33.691 45.2059 33.991 45.4629 32.491C45.7199 30.991 46.6599 31.207 45.6599 28.784Z" fill="url(#paint3_radial_2242_1542)"/>
<path opacity="0.49" d="M38.8358 27.9992C38.9397 27.8953 38.946 27.7332 38.8499 27.6371C38.7539 27.5411 38.5918 27.5474 38.4879 27.6513C38.384 27.7551 38.3777 27.9172 38.4738 28.0133C38.5698 28.1094 38.7319 28.103 38.8358 27.9992Z" fill="#F48F4A"/>
<path opacity="0.49" d="M42.3514 26.7973C42.4553 26.6934 42.4616 26.5313 42.3656 26.4352C42.2695 26.3391 42.1074 26.3455 42.0035 26.4494C41.8996 26.5532 41.8933 26.7153 41.9894 26.8114C42.0854 26.9075 42.2475 26.9011 42.3514 26.7973Z" fill="#F48F4A"/>
<path opacity="0.49" d="M42.4181 28.8602C42.4915 28.7868 42.4959 28.6722 42.428 28.6042C42.36 28.5363 42.2454 28.5407 42.172 28.6141C42.0986 28.6876 42.0941 28.8022 42.1621 28.8701C42.2301 28.9381 42.3447 28.9336 42.4181 28.8602Z" fill="#F48F4A"/>
<path opacity="0.49" d="M37.4174 29.5911C37.4693 29.5392 37.4725 29.4581 37.4245 29.4101C37.3764 29.3621 37.2954 29.3652 37.2435 29.4172C37.1915 29.4691 37.1884 29.5502 37.2364 29.5982C37.2844 29.6462 37.3655 29.6431 37.4174 29.5911Z" fill="#F48F4A"/>
<path opacity="0.49" d="M40.5141 26.9268C40.566 26.8749 40.5692 26.7938 40.5212 26.7458C40.4731 26.6978 40.3921 26.7009 40.3401 26.7529C40.2882 26.8048 40.285 26.8859 40.3331 26.9339C40.3811 26.9819 40.4621 26.9788 40.5141 26.9268Z" fill="#F48F4A"/>
<path opacity="0.49" d="M44.7557 29.6625C44.8596 29.5586 44.8659 29.3965 44.7699 29.3005C44.6738 29.2044 44.5117 29.2107 44.4078 29.3146C44.3039 29.4185 44.2976 29.5806 44.3937 29.6766C44.4897 29.7727 44.6518 29.7664 44.7557 29.6625Z" fill="#F48F4A"/>
<path opacity="0.49" d="M38.4436 32.1815C38.5217 32.1034 38.5268 31.9819 38.4549 31.91C38.3831 31.8382 38.2615 31.8432 38.1834 31.9213C38.1053 31.9994 38.1002 32.121 38.1721 32.1929C38.244 32.2647 38.3655 32.2596 38.4436 32.1815Z" fill="#F48F4A"/>
<path opacity="0.49" d="M40.7009 34.236C40.7833 34.1536 40.7887 34.0254 40.7129 33.9496C40.6372 33.8739 40.5089 33.8792 40.4265 33.9616C40.3441 34.044 40.3388 34.1723 40.4145 34.248C40.4903 34.3238 40.6185 34.3184 40.7009 34.236Z" fill="#F48F4A"/>
<path opacity="0.49" d="M39.0233 30.1842C39.1272 30.0803 39.1335 29.9182 39.0374 29.8222C38.9414 29.7261 38.7793 29.7324 38.6754 29.8363C38.5715 29.9402 38.5652 30.1023 38.6613 30.1984C38.7573 30.2944 38.9194 30.2881 39.0233 30.1842Z" fill="#F48F4A"/>
<path d="M42.3898 25.4199C42.3898 25.4199 43.8898 28.6309 43.0078 30.9289C42.1258 33.2269 39.9738 37.1459 43.9808 34.7889C45.2498 34.0419 47.7218 30.8699 46.1018 28.0709C44.4818 25.2719 42.4778 23.7399 42.3898 25.4199Z" fill="#BDCC1E"/>
<path d="M33.8859 31.6899L24.7859 39.1149C24.7272 39.1625 24.6788 39.2214 24.6433 39.2881C24.6078 39.3548 24.5861 39.428 24.5794 39.5032C24.5727 39.5784 24.5811 39.6543 24.6042 39.7262C24.6273 39.7981 24.6646 39.8646 24.7139 39.9219C25.8139 41.2059 29.3229 44.5289 33.8769 40.8109C38.4459 37.0809 35.7489 33.0519 34.6769 31.7679C34.5817 31.6536 34.4454 31.5813 34.2974 31.5667C34.1493 31.5521 34.0015 31.5964 33.8859 31.6899Z" fill="#605616"/>
<path d="M33.2744 32.1881L25.3994 38.6161C25.3444 38.6602 25.2989 38.7149 25.2656 38.777C25.2323 38.8391 25.2118 38.9072 25.2053 38.9774C25.1989 39.0476 25.2066 39.1183 25.2281 39.1855C25.2496 39.2526 25.2844 39.3147 25.3304 39.3681C26.3104 40.5061 29.3564 43.3331 33.2954 40.1171C37.2344 36.9011 34.9614 33.4061 34.0134 32.2601C33.9246 32.153 33.7971 32.0853 33.6587 32.0718C33.5203 32.0583 33.3821 32.1001 33.2744 32.1881Z" fill="url(#paint4_linear_2242_1542)"/>
<path opacity="0.51" d="M24.9837 39.6541C24.943 39.686 24.8915 39.7009 24.84 39.6957C24.7886 39.6905 24.7411 39.6655 24.7077 39.6261C24.6758 39.5854 24.6608 39.5339 24.6661 39.4824C24.6713 39.431 24.6962 39.3835 24.7357 39.3501L34.0537 31.7431C34.0945 31.7108 34.1462 31.6957 34.1979 31.701C34.2496 31.7062 34.2972 31.7313 34.3307 31.7711C34.3626 31.8118 34.3775 31.8633 34.3723 31.9147C34.3671 31.9662 34.3421 32.0136 34.3027 32.0471L24.9837 39.6541Z" fill="#FAFFE0"/>
<path d="M27.3789 43.447C27.3789 43.447 27.4959 42.1471 28.2029 41.9151C28.9099 41.6831 31.0319 41.2661 31.2679 40.7361C31.5039 40.2061 36.1879 34.1071 37.0129 34.2841C37.8379 34.4611 38.4269 34.5781 37.0719 37.4071C36.5091 38.6883 35.6871 39.8392 34.6578 40.7873C33.6285 41.7354 32.414 42.4602 31.0909 42.9161C28.4689 43.8301 27.3789 43.447 27.3789 43.447Z" fill="#BDCC1E"/>
<path d="M31.886 42.027C31.8609 42.271 31.8816 42.5176 31.947 42.754C32.053 43.012 32.795 43.633 33.007 43.996C33.402 44.4211 33.9126 44.7214 34.476 44.86C34.855 44.935 34.976 45.117 35.309 45.087C35.4664 45.0887 35.6204 45.0408 35.749 44.95C35.749 44.95 36.612 45.026 36.749 45.041C37.2473 45.1093 37.7541 45.0082 38.188 44.754C39.021 44.345 39.006 44.814 39.733 44.117C40.809 43.086 41.142 41.982 41.006 39.694C41.0295 39.2482 40.9069 38.8069 40.657 38.437C40.279 38.058 40.036 37.907 39.657 37.468C39.2302 36.9399 38.6852 36.5196 38.066 36.241C37.566 36.104 37.46 35.695 37.142 35.559C36.8459 35.4373 36.5237 35.3929 36.2056 35.4299C35.8876 35.467 35.5842 35.5844 35.324 35.771C34.809 36.286 34.749 35.832 34.31 36.241C34.31 36.241 33.916 36.12 33.446 36.619C32.976 37.118 32.34 36.819 32.083 38.319C31.826 39.819 30.886 39.6 31.886 42.027Z" fill="url(#paint5_radial_2242_1542)"/>
<path opacity="0.49" d="M39.0584 43.1598C39.1623 43.0559 39.1687 42.8938 39.0726 42.7978C38.9765 42.7017 38.8144 42.708 38.7106 42.8119C38.6067 42.9158 38.6003 43.0779 38.6964 43.1739C38.7925 43.27 38.9546 43.2637 39.0584 43.1598Z" fill="#F48F4A"/>
<path opacity="0.49" d="M35.5418 44.3624C35.6457 44.2586 35.6521 44.0965 35.556 44.0004C35.4599 43.9043 35.2978 43.9107 35.1939 44.0145C35.0901 44.1184 35.0837 44.2805 35.1798 44.3766C35.2759 44.4727 35.438 44.4663 35.5418 44.3624Z" fill="#F48F4A"/>
<path opacity="0.49" d="M35.3741 42.1969C35.4475 42.1235 35.452 42.0089 35.384 41.9409C35.3161 41.873 35.2015 41.8774 35.1281 41.9508C35.0546 42.0242 35.0502 42.1388 35.1182 42.2068C35.1861 42.2747 35.3007 42.2703 35.3741 42.1969Z" fill="#F48F4A"/>
<path opacity="0.49" d="M40.3022 41.3944C40.3541 41.3424 40.3573 41.2614 40.3092 41.2133C40.2612 41.1653 40.1802 41.1685 40.1282 41.2204C40.0763 41.2723 40.0731 41.3534 40.1212 41.4014C40.1692 41.4495 40.2502 41.4463 40.3022 41.3944Z" fill="#F48F4A"/>
<path opacity="0.49" d="M37.2055 44.0574C37.2574 44.0055 37.2606 43.9245 37.2126 43.8764C37.1645 43.8284 37.0835 43.8316 37.0315 43.8835C36.9796 43.9354 36.9764 44.0165 37.0245 44.0645C37.0725 44.1125 37.1536 44.1094 37.2055 44.0574Z" fill="#F48F4A"/>
<path opacity="0.49" d="M33.1385 41.4953C33.2424 41.3914 33.2487 41.2293 33.1527 41.1332C33.0566 41.0371 32.8945 41.0435 32.7906 41.1474C32.6867 41.2512 32.6804 41.4133 32.7765 41.5094C32.8726 41.6055 33.0346 41.5991 33.1385 41.4953Z" fill="#F48F4A"/>
<path opacity="0.49" d="M39.3626 38.8903C39.4407 38.8122 39.4457 38.6906 39.3739 38.6187C39.302 38.5469 39.1805 38.552 39.1024 38.6301C39.0243 38.7082 39.0192 38.8297 39.091 38.9016C39.1629 38.9734 39.2845 38.9684 39.3626 38.8903Z" fill="#F48F4A"/>
<path opacity="0.49" d="M37.1189 36.849C37.2013 36.7666 37.2067 36.6384 37.1309 36.5627C37.0551 36.4869 36.9269 36.4923 36.8445 36.5747C36.7621 36.6571 36.7567 36.7853 36.8325 36.8611C36.9083 36.9368 37.0365 36.9314 37.1189 36.849Z" fill="#F48F4A"/>
<path opacity="0.49" d="M38.8709 40.9747C38.9748 40.8709 38.9812 40.7088 38.8851 40.6127C38.789 40.5166 38.6269 40.523 38.5231 40.6269C38.4192 40.7307 38.4128 40.8928 38.5089 40.9889C38.605 41.085 38.7671 41.0786 38.8709 40.9747Z" fill="#F48F4A"/>
<path d="M16.8916 40.3241C17.836 40.3241 18.6016 39.5585 18.6016 38.6141C18.6016 37.6696 17.836 36.9041 16.8916 36.9041C15.9472 36.9041 15.1816 37.6696 15.1816 38.6141C15.1816 39.5585 15.9472 40.3241 16.8916 40.3241Z" fill="#19D600"/>
<path d="M17.0295 39.176C17.5873 39.176 18.0395 38.7238 18.0395 38.166C18.0395 37.6082 17.5873 37.156 17.0295 37.156C16.4717 37.156 16.0195 37.6082 16.0195 38.166C16.0195 38.7238 16.4717 39.176 17.0295 39.176Z" fill="#1CF200"/>
<path d="M32.7286 17.962C33.673 17.962 34.4386 17.1964 34.4386 16.252C34.4386 15.3076 33.673 14.542 32.7286 14.542C31.7841 14.542 31.0186 15.3076 31.0186 16.252C31.0186 17.1964 31.7841 17.962 32.7286 17.962Z" fill="#19D600"/>
<path d="M32.8655 16.813C33.4233 16.813 33.8755 16.3608 33.8755 15.803C33.8755 15.2452 33.4233 14.793 32.8655 14.793C32.3077 14.793 31.8555 15.2452 31.8555 15.803C31.8555 16.3608 32.3077 16.813 32.8655 16.813Z" fill="#1CF200"/>
<path d="M46.0157 42.033C46.9601 42.033 47.7257 41.2674 47.7257 40.323C47.7257 39.3786 46.9601 38.613 46.0157 38.613C45.0713 38.613 44.3057 39.3786 44.3057 40.323C44.3057 41.2674 45.0713 42.033 46.0157 42.033Z" fill="#19D600"/>
<path d="M46.1536 40.884C46.7114 40.884 47.1636 40.4318 47.1636 39.874C47.1636 39.3162 46.7114 38.864 46.1536 38.864C45.5957 38.864 45.1436 39.3162 45.1436 39.874C45.1436 40.4318 45.5957 40.884 46.1536 40.884Z" fill="#1CF200"/>
<path d="M19.1573 25.387C20.1017 25.387 20.8673 24.6214 20.8673 23.677C20.8673 22.7326 20.1017 21.967 19.1573 21.967C18.2129 21.967 17.4473 22.7326 17.4473 23.677C17.4473 24.6214 18.2129 25.387 19.1573 25.387Z" fill="#19D600"/>
<path d="M19.2952 24.238C19.853 24.238 20.3052 23.7858 20.3052 23.228C20.3052 22.6702 19.853 22.218 19.2952 22.218C18.7373 22.218 18.2852 22.6702 18.2852 23.228C18.2852 23.7858 18.7373 24.238 19.2952 24.238Z" fill="#1CF200"/>
<path d="M43.4678 27.773C44.4122 27.773 45.1778 27.0074 45.1778 26.063C45.1778 25.1186 44.4122 24.353 43.4678 24.353C42.5234 24.353 41.7578 25.1186 41.7578 26.063C41.7578 27.0074 42.5234 27.773 43.4678 27.773Z" fill="#19D600"/>
<path d="M43.6047 26.624C44.1625 26.624 44.6147 26.1718 44.6147 25.614C44.6147 25.0562 44.1625 24.604 43.6047 24.604C43.0469 24.604 42.5947 25.0562 42.5947 25.614C42.5947 26.1718 43.0469 26.624 43.6047 26.624Z" fill="#1CF200"/>
<path d="M33.4178 30.5129C33.4178 30.5129 33.0058 27.8609 26.6418 28.3319C20.2778 28.8029 20.9258 29.9229 17.5078 28.5089C17.5078 28.5089 28.6998 40.2939 33.4178 30.5129Z" fill="url(#paint6_linear_2242_1542)"/>
<path d="M35.9619 33.2181C36.9746 32.6003 38.1487 32.2988 39.3337 32.3522C40.5188 32.4057 41.6609 32.8116 42.6139 33.5181C45.9209 36.0131 46.9529 35.7711 46.9529 35.7711C46.9529 35.7711 39.8129 38.6261 35.9619 33.2181Z" fill="url(#paint7_linear_2242_1542)"/>
<path d="M33.3295 30.9001C33.3295 30.9001 31.2965 28.9841 33.4475 23.9461C33.9562 22.9645 34.343 21.9245 34.5995 20.8491C34.5995 20.8491 37.7785 27.6251 33.3295 30.9001Z" fill="url(#paint8_linear_2242_1542)"/>
<path d="M33.2703 30.8661C33.2703 30.8661 31.5613 29.1571 32.9613 25.2531C32.9613 25.2531 33.4473 23.9421 33.7123 23.4121C34.1239 22.6027 34.4214 21.7402 34.5963 20.8491C34.5963 20.8491 35.7303 26.6681 33.2703 30.8661Z" fill="url(#paint9_linear_2242_1542)"/>
</g>
<defs>
<radialGradient id="paint0_radial_2242_1542" cx="0" cy="0" r="1" gradientUnits="userSpaceOnUse" gradientTransform="translate(28.5293 22.4977) rotate(-45) scale(6.247)">
<stop stop-color="#FAFFB3"/>
<stop offset="1" stop-color="#FCDB87"/>
</radialGradient>
<linearGradient id="paint1_linear_2242_1542" x1="38.9093" y1="22.6113" x2="34.6054" y2="25.8875" gradientUnits="userSpaceOnUse">
<stop stop-color="#D8BE75"/>
<stop offset="1" stop-color="#FAFFB3"/>
</linearGradient>
<radialGradient id="paint2_radial_2242_1542" cx="0" cy="0" r="1" gradientUnits="userSpaceOnUse" gradientTransform="translate(24.0785 34.6154) rotate(-45) scale(6.247)">
<stop stop-color="#FAFFB3"/>
<stop offset="1" stop-color="#FCDB87"/>
</radialGradient>
<radialGradient id="paint3_radial_2242_1542" cx="0" cy="0" r="1" gradientUnits="userSpaceOnUse" gradientTransform="translate(42.2992 32.1669) rotate(135) scale(6.247)">
<stop stop-color="#FAFFB3"/>
<stop offset="1" stop-color="#FCDB87"/>
</radialGradient>
<linearGradient id="paint4_linear_2242_1542" x1="32.9284" y1="39.8246" x2="29.5105" y2="35.6334" gradientUnits="userSpaceOnUse">
<stop stop-color="#D8BE75"/>
<stop offset="1" stop-color="#FAFFB3"/>
</linearGradient>
<radialGradient id="paint5_radial_2242_1542" cx="0" cy="0" r="1" gradientUnits="userSpaceOnUse" gradientTransform="translate(35.2468 38.6436) rotate(-45) scale(6.247)">
<stop stop-color="#FAFFB3"/>
<stop offset="1" stop-color="#FCDB87"/>
</radialGradient>
<linearGradient id="paint6_linear_2242_1542" x1="17.5116" y1="29.4406" x2="32.3616" y2="32.0336" gradientUnits="userSpaceOnUse">
<stop offset="0.065" stop-color="#00C40A"/>
<stop offset="1" stop-color="#00950A"/>
</linearGradient>
<linearGradient id="paint7_linear_2242_1542" x1="37.1404" y1="33.5124" x2="45.5829" y2="35.7125" gradientUnits="userSpaceOnUse">
<stop offset="0.065" stop-color="#00C40A"/>
<stop offset="1" stop-color="#21FF2D"/>
</linearGradient>
<linearGradient id="paint8_linear_2242_1542" x1="33.69" y1="30.4251" x2="34.7209" y2="21.3204" gradientUnits="userSpaceOnUse">
<stop offset="0.065" stop-color="#00C40A"/>
<stop offset="1" stop-color="#21FF2D"/>
</linearGradient>
<linearGradient id="paint9_linear_2242_1542" x1="32.7273" y1="25.2158" x2="34.8048" y2="26.3203" gradientUnits="userSpaceOnUse">
<stop offset="0.065" stop-color="#00C40A"/>
<stop offset="1" stop-color="#00950A"/>
</linearGradient>
<clipPath id="clip0_2242_1542">
<rect width="64" height="64" fill="white"/>
</clipPath>
</defs>
</svg>
