<svg width="64" height="64" viewBox="0 0 64 64" fill="none" xmlns="http://www.w3.org/2000/svg">
<path d="M31.5956 59.896C46.8039 59.896 59.1326 47.5673 59.1326 32.359C59.1326 17.1508 46.8039 4.82202 31.5956 4.82202C16.3873 4.82202 4.05859 17.1508 4.05859 32.359C4.05859 47.5673 16.3873 59.896 31.5956 59.896Z" fill="#AF8756"/>
<path d="M31.6608 55.917C44.6538 55.917 55.1868 45.384 55.1868 32.391C55.1868 19.3979 44.6538 8.86499 31.6608 8.86499C18.6677 8.86499 8.13477 19.3979 8.13477 32.391C8.13477 45.384 18.6677 55.917 31.6608 55.917Z" fill="#89643D"/>
<path d="M36.269 31.3471C36.5783 31.3471 36.829 31.0963 36.829 30.7871C36.829 30.4778 36.5783 30.2271 36.269 30.2271C35.9597 30.2271 35.709 30.4778 35.709 30.7871C35.709 31.0963 35.9597 31.3471 36.269 31.3471Z" fill="#FFD7A3"/>
<path d="M13.5713 29.6001C13.5713 29.6001 12.5313 27.5941 14.0113 26.9101C15.4913 26.2261 15.7243 26.9321 15.7243 26.9321C15.7243 26.9321 13.8833 24.7991 14.7883 23.5211C15.4852 22.6195 16.3067 21.8215 17.2283 21.1511C17.2283 21.1511 15.9153 21.1921 16.7623 19.7381C17.6093 18.2841 19.8343 18.1381 19.8343 18.1381C19.7017 18.0032 19.6086 17.8345 19.5648 17.6505C19.5211 17.4664 19.5284 17.2739 19.586 17.0937C19.6436 16.9135 19.7494 16.7525 19.8918 16.6279C20.0343 16.5034 20.208 16.4202 20.3943 16.3871C21.9323 15.8801 22.6853 17.5871 22.6853 17.5871C22.5278 17.4244 22.4061 17.2304 22.328 17.0178C22.2499 16.8052 22.2172 16.5786 22.2319 16.3526C22.2466 16.1266 22.3084 15.9061 22.4133 15.7054C22.5183 15.5047 22.664 15.3282 22.8413 15.1871C23.2854 14.849 23.8174 14.6455 24.3738 14.6008C24.9303 14.5561 25.4879 14.6722 25.9803 14.9351C25.9803 14.9351 26.4273 13.4181 27.1103 13.1921C27.7933 12.9661 30.4353 15.2281 30.4353 15.2281C30.9771 14.6133 31.6897 14.1736 32.4823 13.9651C33.5653 13.8031 34.0283 14.6301 33.8063 15.6821C34.3408 15.2903 34.9586 15.0273 35.6115 14.9136C36.2645 14.8 36.9348 14.8389 37.5703 15.0271C38.7187 15.3818 39.7044 16.1318 40.3523 17.1441C40.5572 16.9842 40.7919 16.8665 41.0426 16.7978C41.2933 16.7292 41.5552 16.711 41.813 16.7443C42.0709 16.7776 42.3195 16.8617 42.5446 16.9918C42.7697 17.1219 42.9667 17.2954 43.1243 17.5021C44.0022 18.5277 44.7304 19.6724 45.2873 20.9021C45.2873 20.9021 51.0113 23.3211 51.4403 27.7801C51.8478 28.1684 52.1654 28.641 52.371 29.1649C52.5765 29.6889 52.665 30.2514 52.6303 30.8131C52.6303 30.8131 53.7813 32.2931 53.0183 33.4251C52.2553 34.5571 52.6473 33.4501 52.6473 33.4501C52.6473 33.4501 53.3773 35.9501 52.2733 37.4881C51.1693 39.0261 48.4323 39.3431 48.4323 39.3431C48.4323 39.3431 50.5893 41.8611 49.7443 43.6081C49.6258 43.8413 49.4609 44.0477 49.2597 44.2147C49.0585 44.3817 48.8253 44.5058 48.5743 44.5793C48.3234 44.6528 48.0601 44.6743 47.8006 44.6422C47.541 44.6102 47.2908 44.5255 47.0653 44.3931C47.0653 44.3931 47.7513 44.4611 47.0423 45.1841C46.5167 45.6683 45.8972 46.0393 45.2223 46.2741L44.3503 48.2251C44.3503 48.2251 44.3233 48.4251 43.2393 48.5921C43.2393 48.5921 43.5903 49.9441 40.8853 50.9341C40.6357 51.3056 40.2881 51.6006 39.8811 51.7867C39.4741 51.9727 39.0235 52.0424 38.5793 51.9881C38.5793 51.9881 37.4473 53.4391 34.9303 52.7031C34.9303 52.7031 31.1783 55.1151 29.5883 52.0181C29.5883 52.0181 27.8263 53.2841 26.8753 51.8361C26.8753 51.8361 25.6753 52.5241 25.1623 51.8141C25.1623 51.8141 22.3623 51.6601 22.3193 49.2281C22.3193 49.2281 21.1853 50.3851 20.6903 48.8851C20.6903 48.8851 17.9243 49.4051 17.0473 46.1711L16.8333 44.0881C16.8333 44.0881 15.3523 44.4791 15.2603 43.6281C15.2424 43.3874 15.3132 43.1483 15.4592 42.9561C15.6053 42.7638 15.8165 42.6315 16.0533 42.5841C16.0533 42.5841 13.3363 41.8161 14.3213 39.6311L15.2883 39.1171C14.831 38.7148 14.4957 38.1923 14.3205 37.609C14.1453 37.0256 14.1373 36.4048 14.2973 35.8171C14.2973 35.8171 10.7993 32.9621 13.5713 29.6001Z" fill="#FFE9CC"/>
<path d="M19.5267 29.373C18.8617 29.599 18.3077 29.724 17.9877 30.425C17.7127 31.025 17.7157 31.796 18.5877 31.787C18.2697 32.352 17.5467 32.797 17.5067 33.487C17.4557 34.354 18.2327 34.393 18.7687 34.775C18.1887 35.291 17.1387 36.246 17.0977 37.075C17.1312 37.4267 17.2385 37.7675 17.4127 38.075C17.8127 38.688 18.0877 38.404 18.6127 38.702C18.2777 39.448 17.6567 40.727 18.1017 41.549C18.5917 42.454 19.9617 42.079 20.5277 41.583C20.8357 42.392 21.3087 42.12 21.8737 42.198C22.8157 42.328 23.0187 42.473 23.1177 41.432C23.1307 41.29 22.9747 40.802 23.0177 40.732C23.2257 40.384 24.3177 40.55 24.7377 40.532C25.3197 40.509 26.5897 40.603 27.0647 40.116C27.6077 39.558 27.0647 38.789 27.2647 38.25C27.5847 37.36 29.3317 37.288 30.0287 36.433C30.7847 35.506 31.0287 32.861 29.2697 33.587C29.6627 32.904 29.3697 32.058 28.4457 32.227C28.4087 30.184 26.3157 30.9 25.2227 31.485C25.1023 30.5772 24.6936 29.732 24.0567 29.074C23.5057 28.561 23.0367 28.605 22.4747 28.402C22.2076 28.2392 21.909 28.1351 21.5986 28.0969C21.2882 28.0586 20.9732 28.0869 20.6747 28.18C20.1653 28.2816 19.6783 28.4736 19.2367 28.747" fill="#FFF7ED"/>
<path d="M22.238 44.9151C22.371 45.6041 22.419 46.1711 23.07 46.5831C23.629 46.9371 24.391 47.0391 24.501 46.1781C25.018 46.5691 25.36 47.3471 26.035 47.4781C26.886 47.6461 27.035 46.8781 27.483 46.4031C27.915 47.0481 28.717 48.2181 29.53 48.3721C29.8837 48.3863 30.2365 48.3267 30.566 48.1971C31.228 47.8821 30.984 47.5721 31.351 47.0971C32.045 47.5301 33.226 48.3201 34.102 47.9911C35.065 47.6291 34.88 46.2211 34.466 45.5911C35.31 45.3911 35.105 44.8911 35.259 44.3401C35.516 43.4251 35.688 43.2401 34.669 43.0041C34.53 42.9721 34.026 43.0601 33.969 43.0111C33.653 42.7571 33.969 41.6971 34.006 41.2801C34.062 40.7001 34.329 39.4551 33.911 38.9181C33.432 38.3031 32.597 38.7351 32.089 38.4691C31.252 38.0311 31.418 36.2901 30.667 35.4841C29.851 34.6081 27.267 34.0011 27.743 35.8471C27.12 35.3651 26.243 35.5471 26.284 36.4781C24.255 36.2361 24.679 38.4081 25.11 39.5701C24.1939 39.5654 23.3007 39.8553 22.562 40.3971C21.979 40.8731 21.962 41.3431 21.68 41.8721C21.483 42.1144 21.3396 42.3958 21.2594 42.6977C21.1793 42.9995 21.1641 43.315 21.215 43.6231C21.247 44.1409 21.3709 44.6488 21.581 45.1231" fill="#FFF7ED"/>
<path d="M38.0052 35.543C38.1392 36.232 38.1872 36.799 38.8372 37.211C39.3972 37.565 40.1592 37.667 40.2692 36.806C40.7852 37.197 41.1272 37.975 41.8022 38.106C42.6542 38.274 42.8022 37.506 43.2502 37.031C43.6832 37.676 44.4852 38.846 45.2972 39C45.6512 39.0143 46.0044 38.9547 46.3342 38.825C46.9952 38.51 46.7522 38.2 47.1192 37.725C47.8122 38.158 48.9942 38.948 49.8692 38.619C50.8332 38.257 50.6482 36.849 50.2342 36.219C51.0772 36.019 50.8722 35.519 51.0262 34.968C51.2832 34.053 51.4552 33.868 50.4372 33.632C50.2982 33.6 49.7932 33.688 49.7322 33.639C49.4152 33.385 49.7322 32.325 49.7692 31.908C49.8252 31.328 50.0922 30.083 49.6692 29.546C49.1902 28.931 48.3552 29.363 47.8472 29.097C47.0092 28.659 47.1762 26.918 46.4242 26.112C45.6082 25.236 43.0242 24.629 43.5012 26.475C42.8782 25.993 42.0012 26.175 42.0422 27.106C40.0132 26.864 40.4372 29.036 40.8672 30.198C39.9511 30.1935 39.0579 30.4834 38.3192 31.025C37.7362 31.501 37.7192 31.971 37.4382 32.5C37.2408 32.7421 37.0972 33.0235 37.0171 33.3254C36.9369 33.6274 36.9219 33.9429 36.9732 34.251C37.0048 34.7687 37.1284 35.2767 37.3382 35.751" fill="#FFF7ED"/>
<path d="M22.1995 36.3801C22.1995 36.3801 20.1875 35.5021 20.7905 34.0331C20.8298 33.8556 20.9189 33.693 21.0475 33.5644C21.176 33.4358 21.3385 33.3466 21.516 33.3072C21.6935 33.2678 21.8786 33.2799 22.0494 33.3421C22.2202 33.4042 22.3698 33.5138 22.4805 33.6581C22.4461 33.5206 22.4422 33.3773 22.4693 33.2382C22.4964 33.0992 22.5537 32.9678 22.6371 32.8533C22.7206 32.7388 22.8282 32.6441 22.9524 32.5758C23.0765 32.5075 23.2141 32.4673 23.3555 32.4581C24.4725 32.2711 24.3315 33.7681 24.3315 33.7681C24.3315 33.7681 25.7755 33.4681 25.7185 34.3991C25.6375 35.0203 25.3476 35.5954 24.8965 36.0301C24.8965 36.0301 26.6345 37.4521 25.5425 38.2651C25.2158 38.4843 24.8236 38.5841 24.4319 38.5476C24.0402 38.5112 23.6731 38.3407 23.3925 38.0651C23.3925 38.0651 21.0495 38.6631 22.1995 36.3801Z" fill="white"/>
<path d="M28.6223 42.2398C29.1416 42.0685 29.4297 41.527 29.2659 41.0303C29.102 40.5336 28.5483 40.2698 28.029 40.4411C27.5098 40.6124 27.2217 41.1539 27.3855 41.6506C27.5493 42.1472 28.1031 42.4111 28.6223 42.2398Z" fill="white"/>
<path d="M27.9376 43.4634C28.4568 43.2921 28.757 42.7872 28.6081 42.3356C28.4591 41.884 27.9174 41.6568 27.3982 41.8281C26.8789 41.9993 26.5788 42.5043 26.7277 42.9559C26.8767 43.4074 27.4183 43.6347 27.9376 43.4634Z" fill="white"/>
<path d="M30.0808 43.9814C30.7694 43.7542 31.1465 43.0208 30.923 42.3431C30.6994 41.6655 29.96 41.3003 29.2713 41.5274C28.5827 41.7546 28.2056 42.4881 28.4291 43.1657C28.6526 43.8433 29.3921 44.2085 30.0808 43.9814Z" fill="white"/>
<path d="M30.4685 41.8586C31.1571 41.6314 31.5342 40.8979 31.3107 40.2203C31.0871 39.5427 30.3477 39.1775 29.659 39.4046C28.9704 39.6318 28.5933 40.3653 28.8168 41.0429C29.0403 41.7205 29.7798 42.0857 30.4685 41.8586Z" fill="white"/>
<path d="M27.6524 41.472C27.6751 41.5426 27.6837 41.6169 27.6777 41.6908C27.6716 41.7647 27.651 41.8367 27.6171 41.9027C27.5832 41.9686 27.5367 42.0272 27.4801 42.0752C27.4235 42.1231 27.358 42.1594 27.2874 42.182C27.2174 42.2083 27.1428 42.22 27.0681 42.2163C26.9935 42.2126 26.9204 42.1937 26.8533 42.1606C26.7863 42.1275 26.7268 42.081 26.6785 42.0239C26.6301 41.9669 26.594 41.9005 26.5724 41.829C26.4724 41.394 26.6354 41.029 26.9374 41.119C27.2394 41.209 27.5564 41.179 27.6524 41.472Z" fill="white"/>
<path d="M46.1458 33.3767C46.665 33.2055 46.9531 32.664 46.7893 32.1673C46.6255 31.6706 46.0717 31.4068 45.5525 31.5781C45.0332 31.7493 44.7451 32.2908 44.9089 32.7875C45.0728 33.2842 45.6265 33.548 46.1458 33.3767Z" fill="white"/>
<path d="M45.4601 34.6006C45.9793 34.4293 46.2795 33.9244 46.1305 33.4728C45.9816 33.0212 45.4399 32.794 44.9206 32.9653C44.4014 33.1365 44.1012 33.6415 44.2502 34.0931C44.3991 34.5446 44.9408 34.7719 45.4601 34.6006Z" fill="white"/>
<path d="M47.6032 35.1183C48.2919 34.8912 48.6689 34.1577 48.4454 33.4801C48.2219 32.8024 47.4824 32.4372 46.7938 32.6644C46.1051 32.8915 45.7281 33.625 45.9516 34.3027C46.1751 34.9803 46.9146 35.3455 47.6032 35.1183Z" fill="white"/>
<path d="M47.9909 32.9955C48.6796 32.7684 49.0566 32.0349 48.8331 31.3573C48.6096 30.6796 47.8701 30.3144 47.1815 30.5416C46.4928 30.7687 46.1158 31.5022 46.3393 32.1799C46.5628 32.8575 47.3023 33.2227 47.9909 32.9955Z" fill="white"/>
<path d="M44.8111 33.3195C45.1096 33.221 45.2729 32.9031 45.1761 32.6094C45.0792 32.3157 44.7587 32.1574 44.4603 32.2558C44.1619 32.3543 43.9985 32.6722 44.0953 32.9659C44.1922 33.2596 44.5127 33.4179 44.8111 33.3195Z" fill="white"/>
<path d="M46.5231 32.1199C47.1084 31.9269 47.429 31.3035 47.239 30.7276C47.049 30.1517 46.4206 29.8414 45.8352 30.0344C45.2499 30.2275 44.9294 30.8509 45.1193 31.4268C45.3093 32.0027 45.9378 32.313 46.5231 32.1199Z" fill="white"/>
<path d="M25.7488 25.999C26.2956 25.999 26.7388 25.5558 26.7388 25.009C26.7388 24.4623 26.2956 24.019 25.7488 24.019C25.202 24.019 24.7588 24.4623 24.7588 25.009C24.7588 25.5558 25.202 25.999 25.7488 25.999Z" fill="#FFD7A3"/>
<path d="M34.0713 28.3835C34.568 28.2197 34.8318 27.6659 34.6606 27.1467C34.4893 26.6274 33.9478 26.3393 33.4511 26.5032C32.9544 26.667 32.6906 27.2207 32.8619 27.74C33.0331 28.2592 33.5746 28.5473 34.0713 28.3835Z" fill="#FFD7A3"/>
<path d="M35.1711 50.9615C35.6227 50.8125 35.862 50.3074 35.7056 49.8333C35.5492 49.3591 35.0564 49.0955 34.6048 49.2445C34.1532 49.3934 33.9139 49.8985 34.0703 50.3727C34.2267 50.8468 34.7195 51.1104 35.1711 50.9615Z" fill="#FFD7A3"/>
<path d="M43.8846 43.4059C44.4789 43.4059 44.9606 42.9242 44.9606 42.3299C44.9606 41.7356 44.4789 41.2539 43.8846 41.2539C43.2903 41.2539 42.8086 41.7356 42.8086 42.3299C42.8086 42.9242 43.2903 43.4059 43.8846 43.4059Z" fill="#FFD7A3"/>
<path d="M19.4517 45.4081C19.856 45.4081 20.1837 45.0804 20.1837 44.6761C20.1837 44.2718 19.856 43.9441 19.4517 43.9441C19.0475 43.9441 18.7197 44.2718 18.7197 44.6761C18.7197 45.0804 19.0475 45.4081 19.4517 45.4081Z" fill="#FFD7A3"/>
<path d="M20.0865 25.248C20.5145 25.248 20.8615 24.901 20.8615 24.473C20.8615 24.045 20.5145 23.698 20.0865 23.698C19.6585 23.698 19.3115 24.045 19.3115 24.473C19.3115 24.901 19.6585 25.248 20.0865 25.248Z" fill="#FFD7A3"/>
<path d="M35.1545 40.2741C36.0343 40.2741 36.7475 39.5609 36.7475 38.6811C36.7475 37.8013 36.0343 37.0881 35.1545 37.0881C34.2747 37.0881 33.5615 37.8013 33.5615 38.6811C33.5615 39.5609 34.2747 40.2741 35.1545 40.2741Z" fill="#FFD7A3"/>
<path d="M34.3015 42.5811C34.8483 42.5811 35.2915 42.1378 35.2915 41.5911C35.2915 41.0443 34.8483 40.6011 34.3015 40.6011C33.7548 40.6011 33.3115 41.0443 33.3115 41.5911C33.3115 42.1378 33.7548 42.5811 34.3015 42.5811Z" fill="#FFD7A3"/>
<path d="M34.3063 40.9549C34.7818 40.9549 35.1673 40.5694 35.1673 40.0939C35.1673 39.6184 34.7818 39.2329 34.3063 39.2329C33.8308 39.2329 33.4453 39.6184 33.4453 40.0939C33.4453 40.5694 33.8308 40.9549 34.3063 40.9549Z" fill="#FFD7A3"/>
<path d="M39.5857 42.2011C40.1087 42.2011 40.5327 41.7771 40.5327 41.2541C40.5327 40.7311 40.1087 40.3071 39.5857 40.3071C39.0627 40.3071 38.6387 40.7311 38.6387 41.2541C38.6387 41.7771 39.0627 42.2011 39.5857 42.2011Z" fill="#FFD7A3"/>
<path d="M31.7567 37.976C32.3509 37.976 32.8327 37.4942 32.8327 36.9C32.8327 36.3057 32.3509 35.824 31.7567 35.824C31.1624 35.824 30.6807 36.3057 30.6807 36.9C30.6807 37.4942 31.1624 37.976 31.7567 37.976Z" fill="#FFD7A3"/>
<path d="M25.6215 22.7091C25.9308 22.7091 26.1815 22.4584 26.1815 22.1491C26.1815 21.8398 25.9308 21.5891 25.6215 21.5891C25.3122 21.5891 25.0615 21.8398 25.0615 22.1491C25.0615 22.4584 25.3122 22.7091 25.6215 22.7091Z" fill="#FFD7A3"/>
<path d="M17.7243 39.9789C18.2468 39.9789 18.6703 39.5554 18.6703 39.0329C18.6703 38.5105 18.2468 38.0869 17.7243 38.0869C17.2019 38.0869 16.7783 38.5105 16.7783 39.0329C16.7783 39.5554 17.2019 39.9789 17.7243 39.9789Z" fill="#FFD7A3"/>
<path d="M43.3011 28.9421C43.5629 28.9421 43.7752 28.7299 43.7752 28.4681C43.7752 28.2064 43.5629 27.9941 43.3011 27.9941C43.0394 27.9941 42.8271 28.2064 42.8271 28.4681C42.8271 28.7299 43.0394 28.9421 43.3011 28.9421Z" fill="white"/>
<path d="M29.9359 36.3449C30.1739 36.3449 30.3669 36.1519 30.3669 35.9139C30.3669 35.6759 30.1739 35.4829 29.9359 35.4829C29.6978 35.4829 29.5049 35.6759 29.5049 35.9139C29.5049 36.1519 29.6978 36.3449 29.9359 36.3449Z" fill="#FFD7A3"/>
<path d="M38.1703 49.8541C38.4559 49.8541 38.6873 49.6226 38.6873 49.3371C38.6873 49.0515 38.4559 48.8201 38.1703 48.8201C37.8848 48.8201 37.6533 49.0515 37.6533 49.3371C37.6533 49.6226 37.8848 49.8541 38.1703 49.8541Z" fill="#FFD7A3"/>
<path d="M25.8627 50.1029C26.172 50.1029 26.4227 49.8522 26.4227 49.5429C26.4227 49.2336 26.172 48.9829 25.8627 48.9829C25.5535 48.9829 25.3027 49.2336 25.3027 49.5429C25.3027 49.8522 25.5535 50.1029 25.8627 50.1029Z" fill="#FFD7A3"/>
<path d="M30.1586 25.9321C30.4204 25.9321 30.6326 25.7199 30.6326 25.4581C30.6326 25.1963 30.4204 24.9841 30.1586 24.9841C29.8968 24.9841 29.6846 25.1963 29.6846 25.4581C29.6846 25.7199 29.8968 25.9321 30.1586 25.9321Z" fill="#FFD7A3"/>
<path d="M15.7074 32.1499C15.9692 32.1499 16.1814 31.9377 16.1814 31.6759C16.1814 31.4141 15.9692 31.2019 15.7074 31.2019C15.4456 31.2019 15.2334 31.4141 15.2334 31.6759C15.2334 31.9377 15.4456 32.1499 15.7074 32.1499Z" fill="#FFD7A3"/>
<path d="M33.4515 35.2769C33.6652 35.2769 33.8385 35.1037 33.8385 34.8899C33.8385 34.6762 33.6652 34.5029 33.4515 34.5029C33.2377 34.5029 33.0645 34.6762 33.0645 34.8899C33.0645 35.1037 33.2377 35.2769 33.4515 35.2769Z" fill="#FFD7A3"/>
<path d="M25.0892 41.125L25.0782 41.833C25.0767 41.926 25.0996 42.0178 25.1447 42.0992C25.1898 42.1805 25.2555 42.2486 25.3352 42.2966C25.4149 42.3447 25.5058 42.3709 25.5988 42.3727C25.6918 42.3745 25.7837 42.3518 25.8652 42.307L25.8812 42.298C25.9626 42.253 26.0308 42.1874 26.079 42.1078C26.1271 42.0283 26.1536 41.9375 26.1557 41.8445C26.1578 41.7515 26.1356 41.6596 26.0911 41.5779C26.0466 41.4962 25.9815 41.4276 25.9022 41.379L25.3022 41.01C25.2814 40.9965 25.2574 40.9889 25.2327 40.9879C25.208 40.9869 25.1834 40.9926 25.1616 41.0044C25.1399 41.0161 25.1216 41.0335 25.1089 41.0547C25.0962 41.0759 25.0893 41.1002 25.0892 41.125Z" fill="#301E08"/>
<path d="M22.9279 40.857L22.9679 41.563C22.9731 41.6559 23.0026 41.7457 23.0534 41.8236C23.1043 41.9015 23.1747 41.9647 23.2576 42.0068C23.3406 42.049 23.4331 42.0686 23.526 42.0637C23.6189 42.0588 23.7089 42.0296 23.7869 41.979L23.8029 41.969C23.8811 41.9184 23.9446 41.8481 23.987 41.7652C24.0294 41.6823 24.0493 41.5897 24.0446 41.4967C24.0399 41.4037 24.0109 41.3136 23.9604 41.2354C23.9099 41.1571 23.8398 41.0935 23.7569 41.051L23.1289 40.727C23.1073 40.7159 23.0832 40.7106 23.0589 40.7118C23.0347 40.713 23.0112 40.7206 22.9908 40.7338C22.9704 40.747 22.9538 40.7653 22.9428 40.7869C22.9318 40.8086 22.9266 40.8327 22.9279 40.857Z" fill="#301E08"/>
<path d="M24.3995 39.4151L23.6915 39.4211C23.5984 39.4221 23.5072 39.4474 23.4269 39.4947C23.3467 39.542 23.2803 39.6095 23.2344 39.6905C23.1884 39.7715 23.1645 39.8631 23.165 39.9562C23.1656 40.0493 23.1906 40.1406 23.2375 40.2211L23.2475 40.2371C23.2941 40.3176 23.3612 40.3845 23.4418 40.431C23.5224 40.4775 23.6139 40.502 23.707 40.502C23.8001 40.502 23.8915 40.4775 23.9722 40.431C24.0528 40.3845 24.1198 40.3176 24.1665 40.2371L24.5195 39.6241C24.5325 39.6031 24.5395 39.579 24.5399 39.5543C24.5403 39.5296 24.5341 39.5052 24.5218 39.4838C24.5095 39.4624 24.4916 39.4447 24.4701 39.4326C24.4486 39.4205 24.4242 39.4145 24.3995 39.4151Z" fill="#301E08"/>
<path d="M24.5089 40.2379L25.1019 40.624C25.1799 40.6748 25.2699 40.7042 25.3628 40.7092C25.4558 40.7143 25.5484 40.6948 25.6315 40.6528C25.7145 40.6108 25.7851 40.5476 25.8361 40.4697C25.887 40.3918 25.9166 40.3019 25.9219 40.2089V40.191C25.9273 40.0981 25.9083 40.0054 25.8667 39.9222C25.8251 39.839 25.7624 39.7682 25.6849 39.7169C25.6073 39.6655 25.5176 39.6355 25.4248 39.6297C25.3319 39.6239 25.2392 39.6426 25.1559 39.6839L24.5229 39.9999C24.5013 40.0109 24.4831 40.0272 24.4698 40.0474C24.4566 40.0676 24.4489 40.0908 24.4475 40.1149C24.4461 40.139 24.451 40.163 24.4618 40.1846C24.4725 40.2062 24.4888 40.2246 24.5089 40.2379Z" fill="#301E08"/>
<path d="M24.5533 40.657L23.9653 41.051C23.888 41.1028 23.8256 41.1739 23.7844 41.2574C23.7432 41.3408 23.7246 41.4337 23.7306 41.5265C23.7366 41.6194 23.7668 41.7091 23.8184 41.7866C23.87 41.8641 23.941 41.9266 24.0243 41.968L24.0403 41.976C24.1236 42.0176 24.2164 42.0365 24.3093 42.0308C24.4022 42.0252 24.4919 41.9953 24.5696 41.944C24.6473 41.8928 24.7102 41.822 24.7519 41.7388C24.7936 41.6556 24.8127 41.563 24.8073 41.47L24.7673 40.763C24.7658 40.7389 24.7579 40.7156 24.7444 40.6955C24.731 40.6754 24.7126 40.6591 24.6909 40.6484C24.6692 40.6376 24.6451 40.6328 24.6209 40.6343C24.5968 40.6358 24.5735 40.6437 24.5533 40.657Z" fill="#54350E"/>
<path d="M27.5999 42.447L27.5879 43.155C27.5866 43.248 27.6097 43.3398 27.6549 43.4212C27.7001 43.5025 27.7659 43.5706 27.8457 43.6185C27.9254 43.6665 28.0164 43.6927 28.1094 43.6945C28.2025 43.6964 28.2944 43.6738 28.3759 43.629L28.3919 43.62C28.4734 43.575 28.5415 43.5094 28.5897 43.4299C28.6379 43.3503 28.6643 43.2595 28.6665 43.1665C28.6686 43.0735 28.6463 42.9816 28.6018 42.8999C28.5573 42.8182 28.4922 42.7496 28.4129 42.701L27.8129 42.332C27.7922 42.3185 27.7682 42.3109 27.7434 42.3099C27.7187 42.3089 27.6942 42.3146 27.6724 42.3264C27.6506 42.3381 27.6324 42.3555 27.6196 42.3768C27.6069 42.398 27.6001 42.4222 27.5999 42.447Z" fill="#301E08"/>
<path d="M25.4397 42.1789L25.4787 42.8849C25.4838 42.978 25.5133 43.068 25.5642 43.1461C25.6151 43.2241 25.6856 43.2874 25.7687 43.3295C25.8518 43.3717 25.9445 43.3912 26.0375 43.3862C26.1306 43.3812 26.2206 43.3518 26.2987 43.3009L26.3137 43.2909C26.3919 43.2404 26.4554 43.1702 26.4979 43.0873C26.5405 43.0045 26.5604 42.912 26.5559 42.819C26.5513 42.726 26.5224 42.6358 26.472 42.5575C26.4216 42.4792 26.3515 42.4156 26.2687 42.3729L25.6397 42.0489C25.6182 42.0377 25.5941 42.0324 25.5699 42.0336C25.5456 42.0348 25.5221 42.0424 25.5018 42.0556C25.4814 42.0688 25.465 42.0872 25.4541 42.1089C25.4432 42.1305 25.4382 42.1547 25.4397 42.1789Z" fill="#301E08"/>
<path d="M26.908 40.7371L26.2 40.7431C26.1068 40.7438 26.0154 40.769 25.935 40.8162C25.8546 40.8634 25.7881 40.9309 25.742 41.012C25.696 41.0931 25.6722 41.1849 25.6729 41.2781C25.6736 41.3713 25.6988 41.4627 25.746 41.5431L25.755 41.5591C25.8017 41.6397 25.8687 41.7065 25.9493 41.753C26.03 41.7995 26.1215 41.824 26.2145 41.824C26.3076 41.824 26.3991 41.7995 26.4797 41.753C26.5604 41.7065 26.6274 41.6397 26.674 41.5591L27.028 40.9461C27.041 40.9251 27.0481 40.901 27.0485 40.8763C27.0489 40.8516 27.0426 40.8273 27.0303 40.8058C27.018 40.7844 27.0002 40.7667 26.9786 40.7546C26.9571 40.7425 26.9327 40.7365 26.908 40.7371Z" fill="#301E08"/>
<path d="M27.0209 41.56L27.6139 41.946C27.692 41.9965 27.7819 42.0257 27.8748 42.0306C27.9676 42.0355 28.0601 42.016 28.1431 41.974C28.226 41.932 28.2965 41.869 28.3476 41.7913C28.3986 41.7135 28.4284 41.6238 28.4339 41.531V41.513C28.4395 41.42 28.4205 41.3272 28.3789 41.2438C28.3372 41.1605 28.2744 41.0896 28.1967 41.0382C28.1189 40.9869 28.0291 40.9568 27.9361 40.9512C27.8431 40.9455 27.7503 40.9644 27.6669 41.006L27.0339 41.321C27.0122 41.3319 26.9938 41.3484 26.9805 41.3687C26.9672 41.389 26.9595 41.4125 26.9582 41.4367C26.9569 41.461 26.962 41.4851 26.973 41.5068C26.984 41.5284 27.0005 41.5468 27.0209 41.56Z" fill="#301E08"/>
<path d="M27.065 41.9791L26.477 42.3731C26.3997 42.4248 26.3373 42.496 26.2961 42.5794C26.2549 42.6629 26.2363 42.7557 26.2423 42.8486C26.2483 42.9414 26.2786 43.0311 26.3301 43.1086C26.3817 43.1861 26.4527 43.2487 26.536 43.2901L26.553 43.2981C26.6363 43.3396 26.7291 43.3585 26.822 43.3529C26.9149 43.3473 27.0047 43.3173 27.0823 43.2661C27.16 43.2148 27.2229 43.1441 27.2646 43.0609C27.3063 42.9777 27.3254 42.885 27.32 42.7921L27.279 42.0851C27.2775 42.0609 27.2696 42.0376 27.2562 42.0175C27.2427 41.9974 27.2243 41.9811 27.2026 41.9704C27.1809 41.9597 27.1568 41.9548 27.1327 41.9563C27.1085 41.9578 27.0852 41.9657 27.065 41.9791Z" fill="#54350E"/>
<path d="M26.0773 39.113L26.4933 38.54C26.548 38.4648 26.582 38.3765 26.5918 38.284C26.6016 38.1914 26.5869 38.098 26.5493 38.0129C26.5116 37.9278 26.4522 37.8542 26.3771 37.7993C26.302 37.7443 26.2138 37.7101 26.1213 37.7H26.1023C26.0099 37.6901 25.9164 37.7046 25.8313 37.7421C25.7462 37.7796 25.6724 37.8387 25.6173 37.9135C25.5622 37.9884 25.5276 38.0764 25.5171 38.1688C25.5066 38.2612 25.5204 38.3547 25.5573 38.44L25.8393 39.089C25.8492 39.1112 25.8648 39.1303 25.8845 39.1445C25.9042 39.1587 25.9272 39.1674 25.9514 39.1699C25.9755 39.1723 25.9999 39.1683 26.022 39.1583C26.0441 39.1484 26.0632 39.1327 26.0773 39.113Z" fill="#301E08"/>
<path d="M27.6929 40.574L28.0669 39.974C28.116 39.8949 28.1435 39.8043 28.1466 39.7113C28.1498 39.6183 28.1284 39.5261 28.0846 39.444C28.0408 39.3618 27.9763 39.2926 27.8973 39.2433C27.8184 39.194 27.7279 39.1663 27.6349 39.163H27.6169C27.5238 39.1595 27.4315 39.1806 27.3491 39.2241C27.2668 39.2676 27.1972 39.3319 27.1475 39.4107C27.0978 39.4894 27.0697 39.5799 27.0659 39.6729C27.0621 39.766 27.0828 39.8584 27.1259 39.941L27.4549 40.568C27.4663 40.5893 27.4832 40.6072 27.5038 40.6198C27.5244 40.6325 27.548 40.6395 27.5722 40.6401C27.5963 40.6407 27.6202 40.6349 27.6415 40.6233C27.6627 40.6117 27.6804 40.5947 27.6929 40.574Z" fill="#301E08"/>
<path d="M25.6634 40.9111L26.2454 41.3111C26.3221 41.3637 26.4113 41.3953 26.504 41.4027C26.5967 41.4101 26.6898 41.3931 26.7739 41.3533C26.8579 41.3136 26.9301 41.2524 26.9832 41.1761C27.0363 41.0997 27.0685 41.0107 27.0764 40.9181V40.8991C27.084 40.8064 27.0672 40.7133 27.0275 40.6291C26.9879 40.5449 26.9269 40.4726 26.8506 40.4194C26.7743 40.3662 26.6854 40.3339 26.5927 40.3258C26.5 40.3176 26.4068 40.3339 26.3224 40.3731L25.6814 40.6731C25.6595 40.6834 25.6406 40.6993 25.6268 40.7193C25.613 40.7393 25.6048 40.7626 25.6029 40.7868C25.6011 40.811 25.6057 40.8353 25.6164 40.8571C25.627 40.879 25.6433 40.8976 25.6634 40.9111Z" fill="#301E08"/>
<path d="M26.0431 40.173L25.7801 39.516C25.7452 39.4298 25.6883 39.3542 25.615 39.2968C25.5418 39.2395 25.4548 39.2023 25.3627 39.189C25.2706 39.1758 25.1767 39.1869 25.0902 39.2213C25.0038 39.2557 24.9279 39.3121 24.8701 39.385L24.8591 39.399C24.8012 39.472 24.7636 39.5589 24.7499 39.6509C24.7362 39.743 24.747 39.8371 24.7811 39.9237C24.8153 40.0103 24.8716 40.0864 24.9444 40.1444C25.0172 40.2024 25.104 40.2402 25.1961 40.254L25.8961 40.36C25.92 40.3636 25.9444 40.3607 25.9668 40.3518C25.9892 40.3429 26.0089 40.3282 26.0238 40.3092C26.0387 40.2902 26.0484 40.2676 26.0518 40.2437C26.0551 40.2198 26.0521 40.1954 26.0431 40.173Z" fill="#301E08"/>
<path d="M26.248 39.8001L26.955 39.8161C27.0482 39.8184 27.1403 39.796 27.2221 39.7514C27.3039 39.7068 27.3725 39.6414 27.4211 39.5619C27.4696 39.4823 27.4964 39.3914 27.4986 39.2982C27.5009 39.2051 27.4786 39.1129 27.434 39.0311L27.425 39.0151C27.3807 38.9332 27.3156 38.8644 27.2362 38.8156C27.1569 38.7667 27.0661 38.7397 26.973 38.737C26.8799 38.7344 26.7877 38.7563 26.7058 38.8005C26.6238 38.8448 26.5549 38.9098 26.506 38.9891L26.134 39.5891C26.1208 39.6097 26.1133 39.6335 26.1124 39.658C26.1115 39.6824 26.1171 39.7067 26.1288 39.7282C26.1404 39.7498 26.1576 39.7678 26.1786 39.7805C26.1996 39.7931 26.2235 39.7999 26.248 39.8001Z" fill="#54350E"/>
<path d="M14.7831 28.241C14.7831 28.241 14.6221 26.741 13.9561 26.563C13.7787 26.4998 13.5903 26.4732 13.4023 26.4849C13.2143 26.4965 13.0306 26.5462 12.8623 26.6309C12.6941 26.7156 12.5447 26.8335 12.4233 26.9776C12.302 27.1216 12.2111 27.2888 12.1561 27.469C11.8031 28.416 11.5921 28.13 10.7121 28.669C9.83213 29.208 9.13113 30.723 10.0031 31.569C10.8751 32.415 11.4421 32.911 12.4261 32.679C13.7001 32.379 13.7741 31.879 14.6071 31.541C15.4401 31.203 16.7831 28.778 14.7831 28.241Z" fill="#FF3333"/>
<path d="M14.5289 29.5339C14.6038 29.5899 14.6628 29.6645 14.7002 29.7502C14.7375 29.836 14.7518 29.93 14.7417 30.023C14.7316 30.116 14.6974 30.2047 14.6426 30.2805C14.5877 30.3562 14.5141 30.4163 14.4289 30.4549C13.7579 30.8689 13.3569 30.9309 13.0639 31.3199C12.7709 31.7089 11.7239 31.4759 11.5439 30.8459C11.3639 30.2159 12.3299 30.2459 12.2619 29.6849C12.1939 29.1239 12.3669 28.0909 12.8619 28.1359C13.3569 28.1809 14.9179 28.7379 14.5289 29.5339Z" fill="#FF0F0F"/>
<path d="M14.677 31.859C14.677 31.859 14.377 30.382 13.694 30.267C13.5111 30.2202 13.3205 30.2112 13.134 30.2404C12.9475 30.2695 12.7688 30.3363 12.6089 30.4367C12.4489 30.537 12.3111 30.6689 12.2037 30.8241C12.0962 30.9794 12.0215 31.1549 11.984 31.34C11.723 32.316 11.484 32.051 10.66 32.676C9.83601 33.301 9.28201 34.87 10.231 35.634C11.18 36.398 11.79 36.834 12.748 36.509C13.988 36.089 14.015 35.587 14.811 35.169C15.607 34.751 16.718 32.2 14.677 31.859Z" fill="#FF3333"/>
<path d="M14.5447 33.1701C14.6244 33.2189 14.69 33.2877 14.735 33.3697C14.7799 33.4516 14.8028 33.5439 14.8013 33.6373C14.7998 33.7308 14.7739 33.8223 14.7263 33.9027C14.6787 33.9831 14.6109 34.0498 14.5297 34.0961C13.9017 34.5721 13.5077 34.6731 13.2537 35.0881C12.9997 35.5031 11.9347 35.3701 11.6947 34.7601C11.4547 34.1501 12.4207 34.0871 12.2997 33.5351C12.1787 32.9831 12.2527 31.9351 12.7457 31.9351C13.2387 31.9351 14.8557 32.3411 14.5447 33.1701Z" fill="#FF0F0F"/>
<path d="M11.233 35.7759C11.233 35.7759 9.74095 35.9899 9.58495 36.6619C9.52737 36.8417 9.50693 37.0313 9.52485 37.2192C9.54277 37.4071 9.5987 37.5894 9.68923 37.755C9.77975 37.9206 9.903 38.0661 10.0515 38.1827C10.2 38.2992 10.3706 38.3843 10.553 38.4329C11.512 38.7519 11.233 38.9739 11.808 39.8329C12.383 40.6919 13.915 41.3419 14.735 40.4399C15.555 39.5379 16.025 38.9549 15.759 37.9799C15.414 36.7169 14.914 36.6599 14.545 35.8399C14.176 35.0199 11.7 33.7589 11.233 35.7759Z" fill="#FF3333"/>
<path d="M12.534 35.9859C12.5875 35.9092 12.66 35.8477 12.7446 35.8076C12.8291 35.7676 12.9226 35.7503 13.0158 35.7574C13.1091 35.7646 13.1988 35.796 13.2762 35.8485C13.3536 35.9011 13.4159 35.9729 13.457 36.0569C13.895 36.7129 13.971 37.1119 14.37 37.3909C14.769 37.6699 14.57 38.7239 13.95 38.9269C13.33 39.1299 13.321 38.1619 12.764 38.2489C12.207 38.3359 11.164 38.1999 11.195 37.7079C11.226 37.2159 11.725 35.6259 12.534 35.9859Z" fill="#FF0F0F"/>
<path d="M13.6341 35.1179C13.6341 35.1179 12.7631 35.6429 12.8431 36.1009C12.8544 36.2277 12.8915 36.3509 12.9519 36.4629C13.0123 36.5749 13.0949 36.6735 13.1946 36.7526C13.2943 36.8317 13.4091 36.8898 13.5319 36.9232C13.6547 36.9566 13.783 36.9647 13.9091 36.9469C14.5891 36.8929 14.4741 37.1039 15.0571 37.4879C15.6401 37.8719 16.7621 37.8709 17.0341 37.0959C17.3061 36.3209 17.4461 35.8349 17.0241 35.2959C16.4791 34.6029 16.1531 34.6959 15.7081 34.2859C15.2631 33.8759 13.3941 33.7429 13.6341 35.1179Z" fill="#FF5757"/>
<path d="M14.4998 34.9071C14.5127 34.8452 14.5416 34.7877 14.5836 34.7404C14.6256 34.6932 14.6792 34.6577 14.7391 34.6374C14.799 34.6172 14.8632 34.613 14.9252 34.6252C14.9872 34.6374 15.045 34.6657 15.0928 34.7071C15.5358 34.9991 15.6928 35.2271 16.0098 35.2951C16.3268 35.3631 16.4858 36.0701 16.1518 36.3601C15.8178 36.6501 15.5608 36.0501 15.2368 36.2501C14.9128 36.4501 14.2368 36.6391 14.1208 36.3261C14.0048 36.0131 13.8998 34.9001 14.4998 34.9071Z" fill="#FF2E2E"/>
<path d="M28.9104 12.631C28.9104 12.631 22.5564 12.57 18.0704 16.694C13.5844 20.818 11.3144 24.7 14.5994 25.358C17.8844 26.016 17.8774 26.434 17.6884 26.914C17.7955 28.0783 18.3021 29.1696 19.1224 30.0028C19.9426 30.836 21.0259 31.3597 22.1884 31.485C24.5771 31.6174 26.9549 31.0743 29.0494 29.918C30.0964 29.504 29.0034 31.256 30.1494 31.991C31.2954 32.726 32.1164 31.412 32.8694 31.164C33.6224 30.916 32.7754 34.675 35.9294 35.375C39.0834 36.075 39.4864 34.132 41.1364 34.701C42.7864 35.27 46.0874 42.325 45.2364 45.458C44.3854 48.591 44.6194 48.863 46.6704 47.908C48.7214 46.953 51.6774 44.308 51.7704 42.051C51.8634 39.794 51.4254 38.684 52.5584 37.266C53.6914 35.848 55.2134 30.544 52.9474 26.837C50.5555 23.0445 47.7401 19.5363 44.5554 16.38C40.9504 12.627 35.6454 11.315 28.9104 12.631Z" fill="#D96600"/>
<path d="M34.0734 23.4691L33.8444 25.0072C33.7674 25.524 34.124 26.0052 34.6408 26.0822L36.1788 26.3112C36.6956 26.3881 37.1769 26.0315 37.2538 25.5148L37.4828 23.9767C37.5597 23.46 37.2032 22.9787 36.6864 22.9017L35.1484 22.6728C34.6316 22.5958 34.1503 22.9524 34.0734 23.4691Z" fill="#FF8800"/>
<path d="M36.3293 25.445L35.4853 25.319C35.3411 25.2871 35.2154 25.1995 35.1356 25.0753C35.0558 24.9511 35.0283 24.8003 35.0593 24.656L35.2023 23.691C35.215 23.544 35.2852 23.408 35.3974 23.3124C35.5097 23.2167 35.6552 23.1692 35.8023 23.18L36.6463 23.306C36.7903 23.3381 36.9159 23.4257 36.9957 23.5499C37.0754 23.674 37.103 23.8246 37.0723 23.969L36.9283 24.934C36.9158 25.0808 36.8459 25.2169 36.7338 25.3125C36.6216 25.4082 36.4763 25.4558 36.3293 25.445Z" fill="#FFB300"/>
<path d="M21.4972 27.3378L21.2682 28.8758C21.1913 29.3926 21.5478 29.8739 22.0646 29.9508L23.6026 30.1798C24.1194 30.2567 24.6007 29.9002 24.6776 29.3834L24.9066 27.8454C24.9836 27.3286 24.627 26.8473 24.1102 26.7704L22.5722 26.5414C22.0554 26.4645 21.5741 26.821 21.4972 27.3378Z" fill="#FFFF52"/>
<path d="M23.7529 29.314L22.9089 29.188C22.7646 29.1559 22.6388 29.0682 22.5589 28.9438C22.4789 28.8195 22.4513 28.6686 22.4819 28.524L22.6259 27.559C22.6384 27.412 22.7085 27.276 22.8209 27.1804C22.9333 27.0849 23.0789 27.0377 23.2259 27.049L24.0699 27.174C24.2141 27.2064 24.3397 27.2942 24.4197 27.4184C24.4996 27.5427 24.5273 27.6934 24.4969 27.838L24.3529 28.803C24.3404 28.9501 24.2704 29.0862 24.158 29.1819C24.0457 29.2776 23.9001 29.3251 23.7529 29.314Z" fill="#FFFF8F"/>
<path d="M41.9929 21.6961L41.6191 24.2065C41.4935 25.0504 42.0758 25.8365 42.9198 25.9621L45.4301 26.3359C46.2741 26.4615 47.0601 25.8792 47.1858 25.0352L47.5595 22.5249C47.6851 21.6809 47.1028 20.8949 46.2589 20.7692L43.7485 20.3955C42.9045 20.2698 42.1185 20.8522 41.9929 21.6961Z" fill="#FFFF52"/>
<path d="M45.676 24.9219L44.3 24.7169C44.0638 24.6654 43.8576 24.5224 43.7264 24.3193C43.5953 24.1162 43.5498 23.8694 43.6 23.6329L43.834 22.0579C43.8547 21.8175 43.9695 21.595 44.1534 21.4388C44.3373 21.2826 44.5755 21.2053 44.816 21.2239L46.194 21.4239C46.4303 21.4754 46.6365 21.6184 46.7676 21.8215C46.8988 22.0246 46.9442 22.2714 46.894 22.5079L46.659 24.0829C46.6396 24.3244 46.5253 24.5483 46.341 24.7056C46.1567 24.8629 45.9176 24.9407 45.676 24.9219Z" fill="#FFFF8F"/>
<path d="M31.254 15.7133L31.025 17.2513C30.9481 17.7681 31.3047 18.2494 31.8214 18.3263L33.3595 18.5553C33.8762 18.6322 34.3575 18.2757 34.4345 17.7589L34.6635 16.2209C34.7404 15.7041 34.3838 15.2228 33.8671 15.1459L32.329 14.9169C31.8123 14.84 31.331 15.1965 31.254 15.7133Z" fill="#FF8800"/>
<path d="M33.5096 17.6889L32.6656 17.5639C32.5214 17.5316 32.3958 17.4438 32.3159 17.3195C32.236 17.1953 32.2082 17.0445 32.2386 16.8999L32.3826 15.9349C32.3951 15.7879 32.4651 15.6517 32.5775 15.556C32.6898 15.4603 32.8354 15.4129 32.9826 15.4239L33.8266 15.5499C33.9709 15.582 34.0967 15.6698 34.1766 15.7941C34.2566 15.9185 34.2843 16.0693 34.2536 16.2139L34.1096 17.1789C34.0971 17.3259 34.027 17.462 33.9146 17.5575C33.8022 17.6531 33.6567 17.7003 33.5096 17.6889Z" fill="#FFB300"/>
<path d="M22.93 18.3477L21.0496 18.9679C20.4171 19.1766 20.0734 19.8585 20.2821 20.491L20.9023 22.3714C21.1109 23.0039 21.7928 23.3475 22.4254 23.1389L24.3057 22.5187C24.9383 22.31 25.2819 21.6281 25.0733 20.9956L24.453 19.1152C24.2444 18.4827 23.5625 18.1391 22.93 18.3477Z" fill="#FF8800"/>
<path d="M23.9809 21.4459L22.9479 21.7869C22.7654 21.8332 22.5721 21.8054 22.4101 21.7096C22.248 21.6139 22.1304 21.458 22.0829 21.2759L21.6939 20.0959C21.6238 19.9212 21.6256 19.7259 21.6988 19.5525C21.772 19.379 21.9108 19.2416 22.0849 19.1699L23.1179 18.8299C23.3003 18.7834 23.4938 18.8111 23.6559 18.9068C23.818 19.0026 23.9355 19.1587 23.9829 19.3409L24.3729 20.5209C24.4428 20.6956 24.4409 20.8909 24.3674 21.0642C24.294 21.2375 24.1551 21.3747 23.9809 21.4459Z" fill="#FFB300"/>
<path d="M20.2815 20.49C20.2815 20.49 20.7815 22.254 23.6905 22.651C26.5995 23.048 22.6995 23.84 21.9715 23.84C21.2435 23.84 18.5925 20.908 20.2815 20.49Z" fill="#D96600"/>
<path d="M47.05 30.7807L45.722 32.2493C45.2752 32.7433 45.3136 33.506 45.8076 33.9527L47.2762 35.2807C47.7702 35.7275 48.5328 35.6891 48.9796 35.1951L50.3076 33.7265C50.7543 33.2325 50.716 32.4699 50.222 32.0232L48.7534 30.6951C48.2594 30.2484 47.4968 30.2867 47.05 30.7807Z" fill="#FF8800"/>
<path d="M49.4997 32.9551L48.7697 33.7621C48.6343 33.8912 48.4534 33.9619 48.2662 33.9587C48.0791 33.9555 47.9007 33.8788 47.7697 33.7451L46.8477 32.9121C46.7001 32.7946 46.6049 32.6236 46.583 32.4362C46.561 32.2488 46.6142 32.0604 46.7307 31.9121L47.4597 31.1051C47.5955 30.9746 47.7774 30.9032 47.9657 30.9064C48.154 30.9095 48.3334 30.9871 48.4647 31.1221L49.3867 31.9551C49.5335 32.0732 49.6278 32.2446 49.6489 32.4318C49.6701 32.6191 49.6165 32.8071 49.4997 32.9551Z" fill="#FFB300"/>
<path d="M46.4291 36C46.6893 35.5961 46.8032 35.1152 46.7517 34.6375C46.7002 34.1598 46.4864 33.7142 46.1461 33.375C44.9081 32.298 43.8121 32.108 44.0961 32.963C44.4037 34.1496 44.5656 35.3693 44.5781 36.595C44.5121 37.06 46.2301 37.986 46.4291 36Z" fill="#D96600"/>
<path d="M46.3302 40.3754L46.1012 41.9134C46.0243 42.4302 46.3808 42.9115 46.8976 42.9884L48.4356 43.2174C48.9524 43.2943 49.4337 42.9378 49.5106 42.421L49.7396 40.883C49.8166 40.3662 49.46 39.8849 48.9432 39.808L47.4052 39.579C46.8884 39.5021 46.4071 39.8586 46.3302 40.3754Z" fill="#FFFF52"/>
<path d="M48.5858 42.3511L47.7418 42.2261C47.5976 42.1937 47.472 42.1059 47.392 41.9817C47.3121 41.8574 47.2844 41.7066 47.3148 41.5621L47.4588 40.5971C47.4713 40.45 47.5413 40.3138 47.6537 40.2181C47.766 40.1225 47.9116 40.075 48.0588 40.0861L48.9028 40.2121C49.0471 40.2441 49.1729 40.3319 49.2528 40.4562C49.3328 40.5806 49.3604 40.7314 49.3298 40.8761L49.1858 41.8411C49.1733 41.988 49.1032 42.1241 48.9908 42.2196C48.8784 42.3152 48.7328 42.3624 48.5858 42.3511Z" fill="#FFFF8F"/>
<path d="M45.6998 40.894C45.6998 40.894 46.2948 40.365 46.7568 41.886C47.2188 43.407 48.4268 42.824 49.5088 42.421C50.5908 42.018 50.6788 42.748 49.7428 43.606C48.8068 44.464 45.3708 43.8 45.6998 40.894Z" fill="#D96600"/>
<path d="M26.6222 25.1032L26.5794 25.1173C25.424 25.4984 24.7963 26.744 25.1774 27.8995L28.2973 37.3582C28.6784 38.5137 29.9241 39.1414 31.0795 38.7603L31.1223 38.7462C32.2777 38.3651 32.9054 37.1194 32.5243 35.964L29.4044 26.5052C29.0233 25.3498 27.7776 24.7221 26.6222 25.1032Z" fill="#FF5C5C"/>
<path d="M26.8047 28.1001C27.7049 28.4824 28.6927 28.6108 29.6607 28.4711C29.2093 28.729 28.6859 28.8323 28.1704 28.7653C27.6548 28.6984 27.1752 28.4648 26.8047 28.1001Z" fill="#FF3838"/>
<path d="M27.7754 31.043C28.676 31.4253 29.664 31.5536 30.6324 31.414C30.1808 31.6719 29.6573 31.7753 29.1416 31.7083C28.6258 31.6414 28.1461 31.4077 27.7754 31.043Z" fill="#FF3838"/>
<path d="M28.8213 34.2131C29.7217 34.596 30.7099 34.7246 31.6783 34.5851C31.2266 34.843 30.703 34.9462 30.1873 34.879C29.6716 34.8119 29.1919 34.5781 28.8213 34.2131Z" fill="#FF3838"/>
<path d="M26.4286 25.4511C26.4286 25.4511 28.3926 24.7321 29.1766 26.4621C29.9606 28.1921 28.4486 27.4831 28.0646 27.3971C27.6806 27.3111 24.9996 26.3851 26.4286 25.4511Z" fill="#FF8080"/>
<path d="M30.0632 31.017C30.0632 31.017 28.6092 31.317 27.9802 30.671C27.3512 30.025 28.3172 29.686 29.1612 29.808C30.0052 29.93 30.7702 30.753 30.0632 31.017Z" fill="#FF8080"/>
<path d="M30.9499 34.133C30.9499 34.133 29.4959 34.433 28.8669 33.788C28.2379 33.143 29.2039 32.802 30.0479 32.925C30.8919 33.048 31.6569 33.869 30.9499 34.133Z" fill="#FF8080"/>
<path d="M33.6007 27.8534L33.5579 27.8675C32.4025 28.2487 31.7748 29.4943 32.1559 30.6497L35.2758 40.1085C35.657 41.2639 36.9026 41.8916 38.058 41.5105L38.1008 41.4964C39.2562 41.1153 39.884 39.8697 39.5028 38.7142L36.3829 29.2555C36.0018 28.1 34.7561 27.4723 33.6007 27.8534Z" fill="#FF5C5C"/>
<path d="M33.7822 30.8469C34.6828 31.2292 35.6709 31.3575 36.6392 31.2179C36.1876 31.4759 35.6642 31.5793 35.1484 31.5123C34.6327 31.4453 34.1529 31.2117 33.7822 30.8469Z" fill="#FF3838"/>
<path d="M34.7549 33.793C35.6555 34.1752 36.6434 34.3039 37.6119 34.165C37.1602 34.4228 36.6366 34.526 36.1209 34.4589C35.6052 34.3917 35.1255 34.1579 34.7549 33.793Z" fill="#FF3838"/>
<path d="M35.7998 36.9641C36.7004 37.3464 37.6885 37.4747 38.6568 37.3351C38.2052 37.5929 37.6817 37.6962 37.166 37.6292C36.6503 37.5623 36.1706 37.3287 35.7998 36.9641Z" fill="#FF3838"/>
<path d="M33.4072 28.1999C33.4072 28.1999 35.3712 27.4809 36.1552 29.2109C36.9392 30.9409 35.4262 30.2319 35.0432 30.1459C34.6602 30.0599 31.9752 29.1349 33.4072 28.1999Z" fill="#FF8080"/>
<path d="M37.0427 33.767C37.0427 33.767 35.5887 34.062 34.9597 33.421C34.3307 32.78 35.2967 32.436 36.1407 32.558C36.9847 32.68 37.7487 33.5 37.0427 33.767Z" fill="#FF8080"/>
<path d="M37.9284 36.883C37.9284 36.883 36.4744 37.183 35.8454 36.538C35.2164 35.893 36.1824 35.552 37.0264 35.675C37.8704 35.798 38.6344 36.62 37.9284 36.883Z" fill="#FF8080"/>
</svg>
