<svg width="64" height="64" viewBox="0 0 64 64" fill="none" xmlns="http://www.w3.org/2000/svg">
<path d="M42.125 38.75V47.1875C39.3288 47.1875 37.0625 49.4538 37.0625 52.25C37.0625 55.0462 39.3288 57.3125 42.125 57.3125C43.4235 57.3125 44.6039 56.8198 45.5 56.0157C46.3961 56.8198 47.5765 57.3125 48.875 57.3125C51.6712 57.3125 53.9375 55.0462 53.9375 52.25C53.9375 49.4538 51.6712 47.1875 48.875 47.1875V38.75H42.125Z" fill="#E6E9ED"/>
<path d="M14.2812 39.5228V47.1875C11.4851 47.1875 9.21875 49.4538 9.21875 52.25C9.21875 55.0461 11.4851 57.3125 14.2812 57.3125C15.5798 57.3125 16.7602 56.8197 17.6562 56.0156C18.5523 56.8197 19.7327 57.3125 21.0312 57.3125C23.8274 57.3125 26.0938 55.0461 26.0938 52.25C26.0938 49.4538 23.8274 47.1875 21.0312 47.1875V39.5245L14.2812 39.5228Z" fill="#E6E9ED"/>
<path d="M33.6875 18.165C33.6875 19.5032 33.9212 20.8304 34.3785 22.0876L40.4375 38.75H50.5625L56.6215 22.0876C57.0788 20.8304 57.3125 19.5032 57.3125 18.165C57.3125 11.8259 52.1741 6.6875 45.835 6.6875H45.1659C38.8259 6.6875 33.6875 11.8259 33.6875 18.165Z" fill="#DFB28B"/>
<path d="M21.0312 41.3867V39.5245L14.2812 39.5228V41.3867C15.3385 41.8558 16.4716 42.125 17.6562 42.125C18.8409 42.125 19.974 41.8558 21.0312 41.3867Z" fill="#CCD1D9"/>
<path d="M28.625 20.1875C28.625 12.7313 23.7144 6.6875 17.6562 6.6875C11.5981 6.6875 6.6875 12.7313 6.6875 20.1875C6.6875 23.4832 7.64937 26.4996 9.24322 28.8435C9.23394 29.0519 9.21875 29.2578 9.21875 29.4688C9.21875 35.5269 12.9962 40.4375 17.6562 40.4375C22.3163 40.4375 26.0938 35.5269 26.0938 29.4688C26.0938 29.2578 26.0786 29.0519 26.0693 28.8435C27.6631 26.4996 28.625 23.4832 28.625 20.1875Z" fill="#DFB28B"/>
<path d="M48.875 38.75H42.125V40.4375H48.875V38.75Z" fill="#CCD1D9"/>
<path d="M51.1531 39.5938L57.4137 22.3762C57.9065 21.0228 58.1562 19.607 58.1562 18.1659C58.1562 11.3712 52.6288 5.84375 45.8341 5.84375H45.165C38.3712 5.84375 32.8438 11.3712 32.8438 18.1659C32.8438 19.607 33.0935 21.0237 33.5863 22.3762L39.8469 39.5938H41.2812V46.4037C38.4226 46.8137 36.2188 49.2792 36.2188 52.25C36.2188 55.506 38.869 58.1562 42.125 58.1562C43.3375 58.1562 44.512 57.7825 45.5 57.0906C46.488 57.7825 47.6625 58.1562 48.875 58.1562C52.131 58.1562 54.7812 55.506 54.7812 52.25C54.7812 49.2792 52.5774 46.8146 49.7188 46.4037V39.5938H51.1531ZM35.1717 21.7991C34.7472 20.6313 34.5312 19.4087 34.5312 18.1659C34.5312 12.3018 39.3018 7.53125 45.1659 7.53125H45.835C51.6982 7.53125 56.4688 12.3018 56.4688 18.1659C56.4688 19.4096 56.2528 20.6322 55.8283 21.7999L49.9719 37.9062H41.0281L35.1717 21.7991ZM48.875 48.0312C51.2012 48.0312 53.0938 49.9238 53.0938 52.25C53.0938 54.5762 51.2012 56.4688 48.875 56.4688C47.8389 56.4688 46.8407 56.0848 46.0636 55.3879L45.5 54.8817L44.9364 55.3879C44.1593 56.0848 43.1611 56.4688 42.125 56.4688C39.7988 56.4688 37.9062 54.5762 37.9062 52.25C37.9062 49.9238 39.7988 48.0312 42.125 48.0312H42.9688V39.5938H48.0312V48.0312H48.875Z" fill="black"/>
<path d="M49.7188 13.4375H48.0312V15.125H49.7188V13.4375Z" fill="black"/>
<path d="M39.5938 19.3438H37.9062V21.0312H39.5938V19.3438Z" fill="black"/>
<path d="M44.6562 23.5625H42.9688V25.25H44.6562V23.5625Z" fill="black"/>
<path d="M46.3438 29.4688H44.6562V31.1562H46.3438V29.4688Z" fill="black"/>
<path d="M52.25 25.25H50.5625V26.9375H52.25V25.25Z" fill="black"/>
<path d="M41.2812 12.5938H39.5938V14.2812H41.2812V12.5938Z" fill="black"/>
<path d="M45.5 16.8125H43.8125V18.5H45.5V16.8125Z" fill="black"/>
<path d="M45.5 9.21875H43.8125V10.9062H45.5V9.21875Z" fill="black"/>
<path d="M53.0938 19.3438H51.4062V21.0312H53.0938V19.3438Z" fill="black"/>
<path d="M41.2812 27.7812H39.5938V29.4688H41.2812V27.7812Z" fill="black"/>
<path d="M43.8125 34.5312H42.125V36.2188H43.8125V34.5312Z" fill="black"/>
<path d="M48.875 32.8438H47.1875V34.5312H48.875V32.8438Z" fill="black"/>
<path d="M22.7188 13.4375H21.0312V15.125H22.7188V13.4375Z" fill="black"/>
<path d="M12.5938 19.3438H10.9062V21.0312H12.5938V19.3438Z" fill="black"/>
<path d="M17.6562 23.5625H15.9688V25.25H17.6562V23.5625Z" fill="black"/>
<path d="M19.3438 30.3125H17.6562V32H19.3438V30.3125Z" fill="black"/>
<path d="M23.5625 25.25H21.875V26.9375H23.5625V25.25Z" fill="black"/>
<path d="M14.2812 12.5938H12.5938V14.2812H14.2812V12.5938Z" fill="black"/>
<path d="M18.5 16.8125H16.8125V18.5H18.5V16.8125Z" fill="black"/>
<path d="M18.5 9.21875H16.8125V10.9062H18.5V9.21875Z" fill="black"/>
<path d="M26.0938 19.3438H24.4062V21.0312H26.0938V19.3438Z" fill="black"/>
<path d="M14.2812 27.7812H12.5938V29.4688H14.2812V27.7812Z" fill="black"/>
<path d="M16.8125 35.375H15.125V37.0625H16.8125V35.375Z" fill="black"/>
<path d="M17.6562 5.84375C11.1425 5.84375 5.84375 12.2782 5.84375 20.1875C5.84375 23.4115 6.74487 26.5561 8.38681 29.0781C8.38006 29.2072 8.375 29.338 8.375 29.4688C8.375 34.0478 10.4371 38.0176 13.4375 39.9777V46.4045C10.5789 46.8146 8.375 49.2792 8.375 52.25C8.375 55.506 11.0252 58.1562 14.2812 58.1562C15.4937 58.1562 16.6682 57.7825 17.6562 57.0906C18.6443 57.7825 19.8188 58.1562 21.0312 58.1562C24.2873 58.1562 26.9375 55.506 26.9375 52.25C26.9375 49.2792 24.7336 46.8146 21.875 46.4037V39.9768C24.8754 38.0176 26.9375 34.0478 26.9375 29.4679C26.9375 29.3371 26.9324 29.2063 26.9257 29.0772C28.5676 26.5561 29.4688 23.4115 29.4688 20.1875C29.4688 12.2782 24.17 5.84375 17.6562 5.84375ZM21.0312 48.0312C23.3575 48.0312 25.25 49.9238 25.25 52.25C25.25 54.5762 23.3575 56.4688 21.0312 56.4688C19.9951 56.4688 18.997 56.0848 18.2199 55.3879L17.6562 54.8817L17.0926 55.3879C16.3155 56.0848 15.3174 56.4688 14.2812 56.4688C11.955 56.4688 10.0625 54.5762 10.0625 52.25C10.0625 49.9238 11.955 48.0312 14.2812 48.0312H15.125V40.8231C15.9308 41.115 16.7779 41.2812 17.6562 41.2812C18.5346 41.2812 19.3817 41.115 20.1875 40.8231V48.0312H21.0312ZM25.3715 28.3685L25.2129 28.6014L25.234 29.0443C25.2416 29.1861 25.25 29.3262 25.25 29.4688C25.25 35.0518 21.8438 39.5938 17.6562 39.5938C13.4687 39.5938 10.0625 35.0518 10.0625 29.4688C10.0625 29.3262 10.0709 29.1861 10.0785 29.0452L10.0996 28.6022L9.941 28.3693C8.38766 26.0845 7.53125 23.1794 7.53125 20.1875C7.53125 13.2088 12.0732 7.53125 17.6562 7.53125C23.2393 7.53125 27.7812 13.2088 27.7812 20.1875C27.7812 23.1794 26.9248 26.0845 25.3715 28.3685Z" fill="black"/>
</svg>
