<svg width="64" height="64" viewBox="0 0 64 64" fill="none" xmlns="http://www.w3.org/2000/svg">
<path d="M6.6206 23.244L6.49741 22.8538C6.35816 22.4126 6.59958 21.9417 7.03876 21.7967L54.0943 6.25529C54.5421 6.10738 55.0242 6.35458 55.1659 6.80405L55.6945 8.48002C55.8362 8.9295 55.5824 9.40823 55.1313 9.54377L7.67034 23.7998C7.22745 23.9328 6.75944 23.6852 6.6206 23.244Z" fill="#E88C38"/>
<path d="M7.29814 25.4367L7.35458 25.8421C7.41844 26.3002 7.83826 26.6224 8.29721 26.5647L57.4691 20.4071C57.9367 20.3486 58.2663 19.9185 58.2012 19.4513L57.9594 17.7111C57.8943 17.2443 57.4601 16.9205 56.9941 16.9918L8.00799 24.4846C7.55069 24.5542 7.23469 24.9786 7.29814 25.4367Z" fill="#E88C38"/>
<path d="M27.7267 21.4448C27.7267 19.8039 28.0917 19.0277 28.5144 18.1292C28.9292 17.2475 29.4533 15.8307 29.6049 14.0488C29.6403 13.6298 29.2382 13.3093 28.839 13.4412L27.538 13.8713C27.3155 13.9446 27.1577 14.1444 27.1392 14.3776C27.0473 15.5419 26.7338 16.2101 26.3795 16.9636C25.8888 18.006 25.333 19.1875 25.333 21.4448C25.333 23.7021 25.8888 24.8837 26.379 25.926C26.8017 26.8246 27.1668 27.6007 27.1668 29.2421C27.1668 30.8835 26.8017 31.6592 26.379 32.5582C25.8888 33.6005 25.333 34.7821 25.333 37.0394C25.333 37.7517 25.869 38.3289 26.5298 38.3289C27.1911 38.3289 27.7267 37.7517 27.7267 37.0394C27.7267 35.398 28.0917 34.6222 28.5144 33.7237C29.0046 32.681 29.5604 31.4994 29.5604 29.2421C29.5604 26.9848 29.0046 25.8032 28.5144 24.7605C28.0917 23.862 27.7267 23.0862 27.7267 21.4448Z" fill="#FFEE38"/>
<path d="M22.3776 21.4449C22.3776 19.8039 22.743 19.0277 23.1653 18.1292C23.4496 17.5256 23.7549 16.8735 23.9617 15.9935C24.0668 15.5469 23.6461 15.1563 23.2106 15.3001L21.7625 15.7784C21.5961 15.8332 21.4642 15.9605 21.4008 16.1241C21.2896 16.412 21.1627 16.6819 21.0304 16.9637C20.5401 18.006 19.9844 19.1876 19.9844 21.4449C19.9844 23.7021 20.5401 24.8837 21.0304 25.9261C21.4531 26.8246 21.8181 27.6008 21.8181 29.2421C21.8181 30.8835 21.4531 31.6593 21.0304 32.5582C20.5401 33.6006 19.9844 34.7821 19.9844 37.0394C19.9844 37.7517 20.52 38.3289 21.1812 38.3289C21.842 38.3289 22.3776 37.7517 22.3776 37.0394C22.3776 35.3981 22.743 34.6223 23.1653 33.7237C23.6556 32.681 24.2114 31.4994 24.2114 29.2421C24.2114 26.9849 23.6556 25.8033 23.1653 24.7605C22.743 23.862 22.3776 23.0862 22.3776 21.4449Z" fill="#FFEE38"/>
<path d="M17.029 21.4449C17.029 19.8039 17.394 19.0278 17.8167 18.1292C17.8183 18.1255 17.82 18.1218 17.8221 18.1181C18.04 17.6542 17.5967 17.1545 17.1097 17.3151L15.5195 17.8404C15.3501 17.896 15.2146 18.0254 15.154 18.1931C14.8623 19.001 14.6357 20.0029 14.6357 21.4445C14.6357 23.7022 15.1911 24.8838 15.6818 25.9261C16.1041 26.8246 16.4691 27.6008 16.4691 29.2422C16.4691 30.8835 16.1041 31.6593 15.6818 32.5578C15.1911 33.6006 14.6357 34.7822 14.6357 37.0394C14.6357 37.7518 15.1713 38.329 15.8322 38.329C16.4934 38.329 17.029 37.7518 17.029 37.0394C17.029 35.3981 17.394 34.6219 17.8167 33.7234C18.307 32.681 18.8627 31.4994 18.8627 29.2422C18.8627 26.9849 18.307 25.8029 17.8167 24.7606C17.394 23.862 17.029 23.0863 17.029 21.4449Z" fill="#FFEE38"/>
<path d="M11.6808 21.4449C11.6808 20.8649 11.7261 20.3931 11.8039 19.9857C11.8876 19.5457 11.4731 19.177 11.0479 19.3174L9.74442 19.748C9.52483 19.8205 9.36992 20.0158 9.34602 20.2461C9.30853 20.6098 9.28711 21.0066 9.28711 21.4449C9.28711 23.7022 9.84288 24.8838 10.3331 25.9265C10.7558 26.8251 11.1209 27.6009 11.1209 29.2422C11.1209 30.8836 10.7558 31.6598 10.3331 32.5583C9.84288 33.6006 9.28711 34.7822 9.28711 37.0399C9.28711 37.7518 9.8231 38.329 10.4839 38.329C11.1448 38.329 11.6808 37.7518 11.6808 37.0399C11.6808 35.3981 12.0458 34.6224 12.4685 33.7238C12.9587 32.6811 13.5145 31.4995 13.5145 29.2422C13.5145 26.9849 12.9587 25.8034 12.4685 24.761C12.0454 23.8621 11.6808 23.0863 11.6808 21.4449Z" fill="#FFEE38"/>
<path d="M6.24717 34.926C5.97649 34.926 5.76556 35.1592 5.79233 35.4286C6.26159 40.122 8.31287 48.7527 16.78 54.1481C16.846 54.1901 16.9172 54.2219 16.9914 54.2445V56.0676C16.9914 56.9636 17.7177 57.69 18.6138 57.69H39.207C40.1031 57.69 40.8294 56.9636 40.8294 56.0676V54.2412C40.9007 54.219 40.969 54.1885 41.0325 54.1481C49.4997 48.7527 51.5509 40.122 52.0202 35.4286C52.047 35.1592 51.836 34.926 51.5654 34.926H6.24717Z" fill="#DFB28B"/>
<path d="M51.5654 34.926H45.456C45.7267 34.926 45.9377 35.1592 45.9109 35.4286C45.4416 40.122 43.3903 48.7527 34.9232 54.1481C34.8601 54.1885 34.7913 54.219 34.7201 54.2412V56.0676C34.7201 56.9636 33.9937 57.69 33.0977 57.69H39.207C40.1031 57.69 40.8294 56.9636 40.8294 56.0676V54.2412C40.9007 54.219 40.9691 54.1885 41.0325 54.1481C49.4993 48.7527 51.551 40.122 52.0202 35.4286C52.047 35.1592 51.8361 34.926 51.5654 34.926Z" fill="#DFB28B"/>
<path d="M40.8294 56.0674V54.2415H16.9844C16.9868 54.2423 16.9889 54.2435 16.9914 54.2443V56.0674C16.9914 56.9635 17.7177 57.6898 18.6138 57.6898H39.207C40.103 57.6898 40.8294 56.963 40.8294 56.0674Z" fill="#FFEAA7"/>
<path d="M34.7201 56.0674C34.7201 56.963 33.9937 57.6898 33.0977 57.6898H39.2066C40.1027 57.6898 40.829 56.9635 40.829 56.0674V54.2415H34.7197V56.0674H34.7201Z" fill="#FFEAA7"/>
<path d="M58.9839 19.3425L58.7421 17.6022C58.6815 17.1655 58.4533 16.7795 58.0994 16.5163C57.7459 16.2526 57.3108 16.1438 56.8745 16.211L28.564 20.541C28.6633 19.6708 28.9121 19.1394 29.2294 18.4658C29.2829 18.3521 29.3381 18.2297 29.3938 18.0995L55.3584 10.3006C55.7807 10.1737 56.1268 9.88902 56.3336 9.49928C56.5396 9.10954 56.5804 8.66295 56.4477 8.24231L55.9196 6.56676C55.7869 6.14612 55.4977 5.80376 55.1051 5.60271C54.7124 5.40125 54.2654 5.36705 53.8464 5.50548L46.1085 8.06104C45.6944 8.19782 45.4695 8.64441 45.6063 9.05887C45.7431 9.47292 46.1892 9.69786 46.6041 9.56108L54.3421 7.00552C54.3478 7.00346 54.3647 6.99811 54.3849 7.00882C54.4059 7.01912 54.4109 7.03601 54.4125 7.04137L54.9411 8.71733C54.9427 8.72269 54.9481 8.73958 54.937 8.76018C54.9263 8.78078 54.9094 8.78572 54.904 8.78737L30.0237 16.2604C30.0344 16.2204 30.0435 16.1797 30.0538 16.1397C30.0628 16.103 30.0719 16.0668 30.0805 16.0301C30.0962 15.965 30.1114 15.8999 30.1263 15.8344C30.1353 15.7932 30.1444 15.752 30.1535 15.7104C30.1666 15.6486 30.1794 15.5868 30.1914 15.525C30.2013 15.4764 30.2107 15.4274 30.2198 15.3779C30.2301 15.3219 30.2404 15.2663 30.2503 15.2103C30.2602 15.153 30.2696 15.0949 30.2787 15.0368C30.2832 15.0071 30.289 14.9775 30.2935 14.9482L43.0857 10.7233C43.4998 10.5865 43.7247 10.1395 43.588 9.72546C43.4512 9.311 43.0046 9.08606 42.5901 9.22284L30.2128 13.311C30.1267 13.1619 30.013 13.0275 29.8733 12.9171C29.5099 12.6308 29.0308 12.5459 28.5916 12.6914L27.2906 13.1211C26.764 13.2945 26.3957 13.7634 26.3521 14.3154C26.3442 14.4131 26.3343 14.5058 26.3232 14.5956L24.5834 15.1703C24.5138 15.0492 24.4264 14.9375 24.3205 14.8407C23.9547 14.5058 23.4348 14.3945 22.9635 14.5502L21.5153 15.0286C21.1239 15.1575 20.8141 15.4533 20.665 15.8385C20.5678 16.089 20.454 16.3333 20.3424 16.5706L18.4843 17.1845C18.4386 17.105 18.385 17.0292 18.3224 16.9587C17.9578 16.5472 17.3847 16.3927 16.8627 16.5649L15.2721 17.0901C14.8683 17.2236 14.5548 17.5281 14.4118 17.9252C14.3315 18.1469 14.2623 18.3718 14.1997 18.5993L12.4228 19.1863C12.3486 19.0578 12.2522 18.94 12.136 18.8378C11.7665 18.514 11.2671 18.413 10.8008 18.5671L9.49724 18.9977C8.9839 19.1674 8.61641 19.6255 8.56079 20.1648C8.55049 20.2653 8.54143 20.3675 8.53319 20.4709L6.79131 21.0465C5.94632 21.3254 5.47665 22.2429 5.74403 23.0916L5.86722 23.4817C6.01018 23.9357 6.33771 24.2834 6.74146 24.4709C6.55112 24.7824 6.46254 25.1585 6.5161 25.5454L6.57254 25.9508C6.68584 26.7644 7.39116 27.361 8.19371 27.361C8.26045 27.361 8.32761 27.3569 8.39558 27.3486L10.004 27.1472C10.205 27.6918 10.3311 28.2925 10.3311 29.2421C10.3311 30.7072 10.0324 31.3424 9.61836 32.222C9.36375 32.7634 9.08237 33.3628 8.86443 34.1361H6.24707C5.89523 34.1361 5.55823 34.2857 5.32216 34.5461C5.0865 34.8068 4.97115 35.157 5.00616 35.5072C5.48448 40.2953 7.57655 49.1316 16.2011 54.7157V56.0674C16.2011 57.3973 17.2834 58.4796 18.6137 58.4796H39.2069C40.5368 58.4796 41.6191 57.3973 41.6191 56.0674V54.7099C50.2358 49.1259 52.3274 40.2933 52.8058 35.5068C52.8408 35.157 52.7254 34.8068 52.4894 34.5461C52.2537 34.2857 51.9167 34.1361 51.5653 34.1361H29.1939C29.2059 34.1106 29.217 34.0863 29.2294 34.0599C29.7287 32.9978 30.3508 31.6761 30.3508 29.2421C30.3508 27.0302 29.8371 25.7369 29.3686 24.7222L57.5675 21.1907C58.005 21.1359 58.394 20.913 58.6622 20.5628C58.9308 20.213 59.0449 19.7796 58.9839 19.3425ZM7.37386 23.0067L7.25108 22.6165C7.24202 22.5873 7.25809 22.5564 7.28651 22.5469L8.51506 22.1411C8.51712 22.1815 8.52 22.2202 8.52248 22.2602C8.52412 22.2845 8.52536 22.3088 8.52701 22.3331C8.53113 22.3908 8.53525 22.448 8.54019 22.5053C8.54019 22.5086 8.5406 22.5115 8.54102 22.5148C8.54637 22.5795 8.55132 22.6446 8.55791 22.7084L7.44307 23.0434C7.41382 23.052 7.38333 23.0355 7.37386 23.0067ZM8.19948 25.781C8.1694 25.7843 8.14139 25.7633 8.13727 25.7332L8.08124 25.3278C8.07671 25.2978 8.09772 25.2697 8.12779 25.2652L9.1178 25.114C9.12109 25.1231 9.1248 25.1317 9.12851 25.1412C9.15694 25.2162 9.18619 25.2891 9.21544 25.3608C9.22038 25.3727 9.22491 25.3851 9.23027 25.397C9.26282 25.477 9.29619 25.5548 9.32956 25.6311C9.33038 25.6335 9.33162 25.6364 9.33286 25.6389L8.19948 25.781ZM26.5416 18.6124C26.542 18.6112 26.5424 18.61 26.5428 18.6087C26.6248 18.3665 26.715 18.1407 26.8085 17.9248C26.8085 17.9244 26.8089 17.924 26.8089 17.9232C26.9025 17.7077 26.9993 17.5021 27.0945 17.2999C27.1043 17.2784 27.1146 17.2566 27.1245 17.2352C27.1398 17.2026 27.1554 17.1697 27.1707 17.1367C27.1822 17.1124 27.1933 17.0881 27.2049 17.0634C27.2333 17.0016 27.2621 16.9394 27.2901 16.8763C27.2939 16.8681 27.2976 16.8594 27.3017 16.8508C27.3268 16.7939 27.3519 16.7358 27.3771 16.6773C27.3845 16.6604 27.3915 16.6431 27.3989 16.6258C27.4261 16.5607 27.4529 16.4948 27.4793 16.4273C27.4854 16.412 27.4908 16.3964 27.497 16.3811C27.518 16.3259 27.5386 16.2699 27.5588 16.213C27.5662 16.1912 27.574 16.1694 27.5818 16.1471C27.6049 16.08 27.6272 16.0116 27.6486 15.9411C27.6564 15.916 27.6638 15.89 27.6712 15.8641C27.6869 15.8105 27.7021 15.7557 27.717 15.7005C27.724 15.6733 27.7314 15.6461 27.7384 15.6185C27.7569 15.544 27.7746 15.4673 27.7911 15.3886C27.7936 15.3771 27.7965 15.3668 27.799 15.3549C27.8002 15.3499 27.8002 15.345 27.8014 15.3396C27.8492 15.106 27.8879 14.8547 27.9147 14.5787L28.7865 14.2907C28.7737 14.4011 28.7601 14.5115 28.7441 14.6215C28.7416 14.6396 28.7387 14.657 28.7362 14.6747C28.7218 14.7707 28.7066 14.8658 28.6897 14.9614C28.6851 14.9882 28.6806 15.015 28.6757 15.0413C28.6555 15.1513 28.6345 15.2613 28.6114 15.3705C28.6102 15.3763 28.6085 15.3821 28.6073 15.3878C28.5854 15.4896 28.562 15.5905 28.5372 15.6915C28.5294 15.7232 28.5216 15.7545 28.5138 15.7862C28.4886 15.8855 28.4627 15.9844 28.4351 16.0828C28.4318 16.0944 28.4285 16.1063 28.4252 16.1179C28.3959 16.2192 28.3654 16.3201 28.3337 16.4211C28.3275 16.4409 28.3209 16.4615 28.3148 16.4812C28.2802 16.5888 28.2439 16.6955 28.2064 16.8018C28.2039 16.8092 28.2015 16.8162 28.1986 16.8232C28.1582 16.9365 28.1162 17.0494 28.0717 17.161C28.0713 17.1622 28.0713 17.1631 28.0709 17.1643C27.9786 17.3979 27.8867 17.6084 27.7998 17.793C27.3561 18.736 26.9371 19.6268 26.9371 21.4444C26.9371 21.4531 26.9375 21.4605 26.9375 21.4687V21.47C26.9375 21.5614 26.9391 21.6504 26.9416 21.7378C26.9428 21.795 26.9457 21.8498 26.9478 21.9055C26.9494 21.938 26.9507 21.971 26.9523 22.0031C26.9556 22.067 26.9597 22.1296 26.9643 22.1914C26.9655 22.2058 26.9667 22.2202 26.9676 22.2346C27.0129 22.8118 27.1076 23.2831 27.2316 23.6968C27.2329 23.7017 27.2345 23.7067 27.2362 23.7116C27.279 23.8537 27.3252 23.9897 27.3742 24.1203C27.375 24.1219 27.3758 24.124 27.3763 24.1257C27.5048 24.468 27.6506 24.7799 27.7998 25.0971C28.2773 26.1118 28.7708 27.1616 28.7708 29.2421C28.7708 31.3231 28.2773 32.3724 27.7998 33.3875C27.6869 33.6281 27.5711 33.8733 27.464 34.1361H26.5667C26.7261 33.6776 26.9124 33.2821 27.0945 32.8944C27.5382 31.9514 27.9572 31.0602 27.9572 29.2421C27.9572 27.4244 27.5382 26.5333 27.0945 25.5899C26.8843 25.1437 26.6713 24.6901 26.4987 24.1458C26.4983 24.1442 26.4979 24.143 26.4975 24.1417C26.2754 23.4393 26.1547 22.6767 26.1292 21.8099C26.1292 21.8091 26.1288 21.8078 26.1288 21.8066C26.1255 21.6896 26.1238 21.5693 26.1238 21.4449C26.1234 20.2048 26.2989 19.3309 26.5416 18.6124ZM23.881 34.0599C24.3803 32.9978 25.002 31.6761 25.002 29.2421C25.002 27.4644 24.6703 26.2803 24.2971 25.3571L25.2137 25.2426C25.362 25.6187 25.5186 25.952 25.6644 26.2626C26.0785 27.1418 26.3772 27.7771 26.3772 29.2421C26.3772 30.7072 26.0785 31.3424 25.6644 32.222C25.4098 32.7634 25.1285 33.3628 24.9109 34.1361H23.8455C23.8575 34.1102 23.8686 34.0859 23.881 34.0599ZM23.6189 23.8496C23.6136 23.8369 23.6078 23.8241 23.6024 23.8109C23.5876 23.7755 23.5728 23.7396 23.5584 23.7034C23.5452 23.6708 23.5324 23.6383 23.5201 23.6057C23.499 23.5509 23.4784 23.4953 23.4591 23.4389C23.4541 23.4253 23.4496 23.4113 23.4451 23.3977C23.3973 23.2543 23.3536 23.1043 23.3165 22.942L24.6081 22.7447C24.6093 22.7542 24.611 22.7632 24.6118 22.7727C24.6279 22.9218 24.6464 23.066 24.6674 23.2053C24.6695 23.2201 24.6716 23.2349 24.674 23.2498C24.6967 23.396 24.7218 23.5369 24.7494 23.6729C24.7515 23.6844 24.7531 23.6964 24.7552 23.7075L23.6189 23.8496ZM24.5455 16.8467L25.7481 16.4495C25.7435 16.4586 25.7394 16.4672 25.7353 16.4763C25.7176 16.515 25.6995 16.5537 25.6809 16.5925C25.6756 16.604 25.6702 16.6155 25.6644 16.6275C25.5499 16.8706 25.4292 17.1281 25.311 17.409C25.3081 17.4152 25.3056 17.4214 25.3027 17.428C25.2669 17.5145 25.2306 17.6031 25.1952 17.6941C25.1927 17.7007 25.1902 17.7069 25.1878 17.7135L24.075 18.0476C24.2369 17.6912 24.4009 17.3003 24.5455 16.8467ZM23.3211 19.9238L24.695 19.511C24.6135 19.9947 24.5599 20.5381 24.5467 21.1556L23.169 21.3662C23.174 20.7725 23.2284 20.316 23.3211 19.9238ZM20.845 20.1772C20.8454 20.1751 20.8458 20.1735 20.8463 20.1718C20.9414 19.3763 21.1231 18.7645 21.3308 18.2367C21.3332 18.2305 21.3353 18.2248 21.3378 18.2186C21.3728 18.1304 21.4086 18.0443 21.4445 17.9603C21.4506 17.9463 21.4564 17.9327 21.4626 17.9187C21.4745 17.8906 21.4869 17.863 21.4988 17.8354C21.505 17.8223 21.5108 17.8082 21.517 17.7951C21.5339 17.7567 21.5512 17.7188 21.5681 17.6814C21.5722 17.6727 21.5763 17.664 21.5804 17.6554C21.5948 17.6237 21.6093 17.592 21.6237 17.5606C21.6645 17.4733 21.7048 17.3864 21.7456 17.2999C21.8593 17.0584 21.987 16.7873 22.1032 16.4981L23.0969 16.1698C22.9165 16.7939 22.6808 17.3044 22.4674 17.758C22.4621 17.7699 22.4563 17.7815 22.4509 17.7934C22.4435 17.8082 22.4369 17.8231 22.4299 17.8383C22.413 17.8733 22.3966 17.9088 22.3801 17.9446C22.3661 17.9743 22.3521 18.0043 22.3381 18.0344C22.3282 18.0558 22.3183 18.0773 22.3084 18.0991C22.2899 18.1391 22.2717 18.1794 22.2536 18.2198C22.2495 18.2285 22.2454 18.2375 22.2417 18.2466C21.8841 19.0454 21.5882 19.918 21.5882 21.4444C21.5882 21.7749 21.6023 22.0735 21.6278 22.3488V22.3537C21.6282 22.3558 21.6282 22.3578 21.6286 22.3595C21.6323 22.3986 21.6369 22.4353 21.641 22.4732C21.6455 22.516 21.65 22.5593 21.655 22.6009C21.662 22.6553 21.6694 22.708 21.6772 22.7603C21.6797 22.7789 21.6826 22.7978 21.6855 22.8164C21.7778 23.4154 21.9285 23.8916 22.1053 24.3255C22.1115 24.3403 22.1172 24.3555 22.1234 24.37C22.1308 24.3885 22.1387 24.4062 22.1465 24.4243C22.1646 24.4684 22.1832 24.5117 22.2021 24.5545C22.2058 24.5628 22.2091 24.571 22.2128 24.5793C22.2837 24.7403 22.3554 24.8932 22.425 25.0415C22.425 25.0419 22.4254 25.0423 22.4254 25.0423C22.4341 25.0605 22.4423 25.0786 22.4509 25.0963C22.9284 26.1114 23.422 27.1608 23.422 29.2417C23.422 31.3231 22.9284 32.3724 22.4509 33.3871C22.3376 33.6277 22.2223 33.8729 22.1148 34.1357H21.2175C21.3773 33.6772 21.5631 33.2817 21.7452 32.894C22.1889 31.9509 22.6083 31.0602 22.6083 29.2417C22.6083 27.4236 22.1893 26.5329 21.7456 25.5894C21.6146 25.3114 21.4824 25.03 21.3596 24.7259C21.3596 24.7255 21.3596 24.7251 21.3592 24.7247C21.0728 24.0157 20.9093 23.3486 20.829 22.5626C20.8285 22.5601 20.8281 22.5576 20.8277 22.5552C20.7935 22.2194 20.7746 21.8519 20.7746 21.4444C20.7746 20.9731 20.8001 20.5546 20.845 20.1772ZM20.316 26.2626C20.7297 27.1418 21.0284 27.7771 21.0284 29.2421C21.0284 30.7072 20.7297 31.3424 20.316 32.222C20.0614 32.7634 19.7796 33.3632 19.5621 34.1361H18.4967C18.5086 34.1102 18.5202 34.0859 18.5321 34.0599C19.0319 32.9978 19.6536 31.6757 19.6536 29.2421C19.6536 27.8496 19.45 26.8217 19.1822 25.9977L20.1372 25.8783C20.1974 26.0105 20.2575 26.1386 20.316 26.2626ZM18.3686 24.0721C18.3677 24.0709 18.3673 24.0696 18.3665 24.0684C18.3142 23.9526 18.2643 23.8381 18.2174 23.7219L19.3746 23.5452C19.3771 23.5583 19.3804 23.5711 19.3829 23.5847C19.4051 23.7009 19.429 23.8142 19.4541 23.9238C19.4599 23.9485 19.4661 23.9732 19.4719 23.9984C19.4991 24.1125 19.5275 24.2229 19.5576 24.33C19.56 24.3391 19.5621 24.3485 19.5646 24.3576L18.5597 24.4833C18.5507 24.4635 18.5412 24.4437 18.5321 24.4243C18.5305 24.4211 18.5292 24.4178 18.5276 24.4145C18.4728 24.2979 18.4192 24.1842 18.3686 24.0721ZM18.3323 18.8988L19.5773 18.4876C19.5473 18.5906 19.5192 18.6985 19.4921 18.8081C19.49 18.816 19.4879 18.8238 19.4859 18.8316C19.45 18.9775 19.4167 19.1291 19.3862 19.2877C19.3845 19.2968 19.3829 19.3062 19.3808 19.3153C19.3713 19.3656 19.3619 19.4146 19.3528 19.4661L17.9846 19.8768C18.0711 19.5262 18.1889 19.2205 18.3323 18.8988ZM19.1979 21.1622C19.1962 21.2549 19.195 21.3484 19.195 21.4449C19.195 21.627 19.1987 21.8025 19.2053 21.9726L17.8495 22.1798C17.8334 21.9953 17.8243 21.7938 17.8214 21.5755L19.1979 21.1622ZM17.1079 17.7819L17.1215 17.7885C17.1194 17.7918 17.1169 17.7955 17.1149 17.7988L17.1029 17.7934C17.1042 17.7893 17.1058 17.7856 17.1079 17.7819ZM15.429 21.1779C15.4303 21.1247 15.4323 21.0737 15.434 21.0222C15.4352 20.9904 15.436 20.9579 15.4373 20.9266C15.4402 20.8644 15.4435 20.8042 15.4472 20.7445C15.4484 20.7251 15.4492 20.7057 15.4505 20.6868C15.4546 20.6234 15.4595 20.5616 15.4645 20.501C15.4657 20.4862 15.4669 20.4717 15.4682 20.4573C15.4739 20.3947 15.4797 20.3337 15.4863 20.274C15.4875 20.2625 15.4888 20.2505 15.4904 20.239C15.5094 20.0701 15.532 19.9127 15.5567 19.7648C15.5629 19.7289 15.5687 19.6931 15.5753 19.6577C15.5806 19.6288 15.586 19.6008 15.5914 19.5728C15.6021 19.5184 15.6128 19.4644 15.6247 19.4105C15.6989 19.0665 15.7842 18.7859 15.8629 18.5589L16.9068 18.2141C16.543 19.022 16.2394 19.8974 16.2394 21.4449C16.2394 22.9972 16.5451 23.8735 16.9105 24.6839C16.911 24.6847 16.9114 24.6855 16.9118 24.6864C16.9427 24.7539 16.9732 24.8215 17.0045 24.8887C17.0057 24.8907 17.0065 24.8932 17.0078 24.8952C17.0387 24.9624 17.0704 25.0296 17.1021 25.0967C17.1054 25.1037 17.1083 25.1103 17.1116 25.1169C17.1495 25.1976 17.1878 25.2796 17.2265 25.3629C17.2282 25.3666 17.2298 25.3703 17.2315 25.374C17.2743 25.4667 17.3172 25.561 17.3596 25.6574H17.36C17.7419 26.5259 18.0732 27.5381 18.0732 29.2421C18.0732 31.3227 17.5792 32.3724 17.1021 33.3875C16.9888 33.6277 16.8735 33.8733 16.7659 34.1357H15.8686C16.0285 33.6772 16.2143 33.2817 16.3968 32.894C16.8405 31.9509 17.2595 31.0598 17.2595 29.2421C17.2595 27.4244 16.8405 26.5333 16.3964 25.5899C16.3552 25.5017 16.3136 25.4131 16.2724 25.3241C16.2724 25.3241 16.2724 25.3237 16.272 25.3237C16.2419 25.2586 16.2114 25.1923 16.1809 25.1239C16.1801 25.1218 16.1793 25.1198 16.1784 25.1181C15.9588 24.6295 15.7302 24.0478 15.5864 23.2951C15.5856 23.2922 15.5848 23.2893 15.5839 23.2864C15.4974 22.8295 15.4406 22.308 15.4286 21.6925C15.4286 21.692 15.4286 21.6916 15.4286 21.6912C15.427 21.6105 15.4257 21.5285 15.4257 21.4444C15.4261 21.3546 15.427 21.2656 15.429 21.1779ZM15.0834 26.5111C15.4356 27.272 15.6799 27.9188 15.6799 29.2421C15.6799 30.7072 15.3808 31.3424 14.9672 32.222C14.7126 32.7634 14.4312 33.3628 14.2133 34.1361H13.1479C13.1602 34.1106 13.1713 34.0863 13.1837 34.0599C13.683 32.9978 14.3047 31.6761 14.3047 29.2421C14.3047 28.192 14.189 27.349 14.0172 26.6445L15.0834 26.5111ZM14.2095 24.3349C14.212 24.344 14.2149 24.3522 14.2174 24.3609C14.247 24.4655 14.2775 24.5669 14.3093 24.6654C14.313 24.6761 14.3167 24.6868 14.32 24.6975C14.3533 24.7997 14.3875 24.899 14.4225 24.9954C14.4234 24.997 14.4242 24.9995 14.4246 25.0011L13.4993 25.1173C13.4989 25.1165 13.4985 25.1157 13.4985 25.1152C13.4029 24.8928 13.3061 24.6851 13.213 24.4874L14.2095 24.3349ZM13.9154 22.7818L13.6925 22.8155L13.9121 22.7496C13.9129 22.7603 13.9142 22.771 13.9154 22.7818ZM12.4759 21.1523C12.4763 21.1396 12.4763 21.1268 12.4767 21.1144C12.48 21.0222 12.485 20.9323 12.4912 20.8446C12.4916 20.8388 12.492 20.8331 12.4924 20.8273L13.8898 20.3659C13.8878 20.3869 13.887 20.4087 13.8853 20.4297C13.8816 20.48 13.8783 20.5307 13.875 20.5813C13.8688 20.6761 13.8635 20.7721 13.8594 20.8689C13.8569 20.9204 13.8548 20.9723 13.8536 21.0242C13.8524 21.0559 13.8507 21.0868 13.8499 21.119L12.4722 21.5326C12.4718 21.5029 12.471 21.4749 12.471 21.4449C12.471 21.3443 12.473 21.2475 12.4759 21.1523ZM10.2104 23.1464C10.21 23.1435 10.21 23.141 10.2096 23.1381C10.1651 22.8786 10.1325 22.6104 10.1103 22.3302C10.1103 22.3257 10.1099 22.3207 10.1095 22.3162C10.1049 22.2577 10.1008 22.1984 10.0975 22.1391C10.0963 22.1176 10.095 22.0962 10.0938 22.0744C10.0917 22.0299 10.0893 21.9846 10.0876 21.9392C10.0864 21.9145 10.0856 21.8898 10.0847 21.8647C10.0831 21.8185 10.0818 21.7716 10.081 21.7246C10.0806 21.7019 10.0798 21.6793 10.0794 21.6566C10.0781 21.5866 10.0773 21.5161 10.0773 21.4449C10.0773 21.3765 10.0786 21.3089 10.0798 21.2413C10.0806 21.1919 10.0818 21.1429 10.0831 21.0943C10.0897 20.8755 10.1016 20.6617 10.1202 20.4557L10.973 20.1743C10.9635 20.2402 10.9561 20.3082 10.9487 20.3762C10.9462 20.3984 10.9429 20.4202 10.9404 20.4429C10.9322 20.5216 10.9256 20.6028 10.9198 20.6839C10.9178 20.7111 10.9149 20.7375 10.9132 20.7647C10.9079 20.8446 10.9042 20.9266 10.9009 21.0094C10.8996 21.039 10.8976 21.0679 10.8968 21.0984C10.8931 21.2113 10.8914 21.3266 10.8914 21.4449C10.8914 21.5565 10.8931 21.6657 10.8959 21.7728C10.9392 23.2333 11.2717 24.0593 11.6453 24.8648C11.649 24.8726 11.6528 24.8808 11.6565 24.8891C11.689 24.9583 11.7211 25.0275 11.7541 25.0971C11.7558 25.1004 11.7574 25.1037 11.759 25.1074C11.799 25.1923 11.8394 25.278 11.8793 25.3653C11.8802 25.3666 11.881 25.3682 11.8814 25.3699C12.0087 25.6451 12.1352 25.9318 12.2493 26.2462C12.2493 26.2466 12.2497 26.2466 12.2497 26.247C12.5216 26.9964 12.7252 27.9065 12.7252 29.2421C12.7252 31.3231 12.2316 32.3724 11.7541 33.3875C11.6408 33.6281 11.5255 33.8733 11.4179 34.1361H10.5206C10.6805 33.6776 10.8663 33.2821 11.0488 32.8944C11.4921 31.9514 11.9115 31.0602 11.9115 29.2421C11.9115 27.4273 11.4937 26.5362 11.0508 25.5948C11.05 25.5932 11.0496 25.5915 11.0488 25.5899C11.0265 25.5433 11.0047 25.4963 10.9829 25.4494C10.975 25.4333 10.9676 25.4168 10.9598 25.4003C10.9367 25.3509 10.9137 25.3006 10.8902 25.25C10.8852 25.2393 10.8803 25.2285 10.8753 25.2178C10.8506 25.1639 10.8263 25.1091 10.8016 25.0535C10.7987 25.0469 10.7954 25.0399 10.7925 25.0329C10.7666 24.9739 10.7406 24.9142 10.7151 24.8532C10.7138 24.8503 10.713 24.8479 10.7118 24.845C10.6034 24.5867 10.5008 24.3119 10.411 24.0087C10.4106 24.0066 10.4098 24.0049 10.4094 24.0029C10.3319 23.7417 10.2644 23.4591 10.2104 23.1464ZM51.1949 35.7161C50.6733 40.3118 48.5899 48.3686 40.6546 53.4513H24.4874C24.0511 53.4513 23.6976 53.8052 23.6976 54.2415C23.6976 54.6778 24.0511 55.0313 24.4874 55.0313H40.0391V56.067C40.0391 56.5264 39.6658 56.8997 39.2069 56.8997H18.6137C18.1547 56.8997 17.7811 56.5264 17.7811 56.067V55.0313H20.8116C21.2479 55.0313 21.6018 54.6778 21.6018 54.2415C21.6018 53.8052 21.2479 53.4513 20.8116 53.4513H17.1573C9.22203 48.3678 7.13902 40.3118 6.61745 35.7161H51.1949ZM57.4085 19.6016C57.3941 19.6202 57.3768 19.6222 57.371 19.623L28.735 23.209C28.6501 22.9169 28.5809 22.5737 28.5446 22.1423L57.1139 17.7724C57.1197 17.7716 57.137 17.7691 57.1555 17.7831C57.1741 17.7967 57.1765 17.814 57.1774 17.8198L57.4192 19.5604C57.42 19.5658 57.4225 19.5835 57.4085 19.6016Z" fill="black"/>
</svg>
