<svg width="64" height="64" viewBox="0 0 64 64" fill="none" xmlns="http://www.w3.org/2000/svg">
<path d="M57.1624 53.2903C56.0253 57.8406 51.9366 61.0322 47.2469 61.0322H16.7553C12.0656 61.0322 7.97694 57.8406 6.83984 53.2903H57.1624Z" fill="#DFB28B"/>
<path d="M4.90423 49.4194H59.0978C60.1671 49.4194 61.0333 50.2856 61.0333 51.3549C61.0333 52.4243 60.1671 53.2904 59.0978 53.2904H4.90423C3.83488 53.2904 2.96875 52.4243 2.96875 51.3549C2.96875 50.2856 3.83488 49.4194 4.90423 49.4194Z" fill="#DFB28B"/>
<path d="M4.91406 49.4194V49.2927C4.91406 47.4617 5.64084 45.7033 6.93955 44.4133C7.52309 43.8336 8.1018 43.2511 8.50632 42.5601C9.50309 40.8569 9.1189 38.1365 10.4273 36.6994C11.7483 35.2478 14.4966 35.3775 16.0808 34.2356C17.666 33.0936 18.4112 30.4449 20.2063 29.6514C21.9841 28.8646 24.4421 30.0898 26.3737 29.6823C28.2628 29.2846 30.0134 27.1614 32.0012 27.1614C33.9889 27.1614 35.7395 29.2846 37.6295 29.6833C39.5602 30.0907 42.0192 28.8656 43.797 29.6523C45.5921 30.4469 46.3373 33.0946 47.9225 34.2365C49.5076 35.3785 52.255 35.2488 53.576 36.7004C54.8844 38.1375 54.4992 40.8578 55.497 42.5611C55.8221 43.1165 56.2237 43.5259 56.6495 43.8975C58.1805 45.2311 59.0979 47.1336 59.0979 49.1649V49.4194H4.91406Z" fill="#E6E9ED"/>
<path d="M7.54533 55.2258H56.4569C56.7502 54.6132 56.9931 53.9696 57.1624 53.2903H6.83984C7.0092 53.9696 7.2521 54.6132 7.54533 55.2258Z" fill="#CF9E76"/>
<path d="M59.0979 49.1649C59.0979 48.59 59.0166 48.0287 58.8773 47.4839H5.1618C5.00309 48.0694 4.91309 48.6761 4.91309 49.2926V49.4194H59.0979V49.1649Z" fill="#CCD1D9"/>
<path d="M60.0345 48.6208C59.8865 46.5469 58.91 44.5834 57.2832 43.1676C56.9687 42.8937 56.6097 42.5492 56.331 42.073C55.9719 41.4595 55.8219 40.603 55.6642 39.6972C55.4368 38.3956 55.2016 37.0505 54.291 36.0498C53.3706 35.0385 52.0458 34.6776 50.7645 34.3272C49.8839 34.0863 49.0526 33.8598 48.4874 33.4524C47.9213 33.045 47.4432 32.3279 46.9361 31.5692C46.1987 30.464 45.4371 29.3221 44.1868 28.7676C42.95 28.2208 41.6 28.424 40.2926 28.6185C39.3829 28.755 38.5245 28.8837 37.8277 28.7376C37.1619 28.5963 36.4419 28.1395 35.6813 27.6546C34.6061 26.9695 33.3877 26.1934 32 26.1934C30.6113 26.1934 29.3939 26.9695 28.3168 27.6537C27.5571 28.1376 26.8381 28.5953 26.1723 28.7356C25.4765 28.8837 24.619 28.754 23.7065 28.6166C22.4019 28.4201 21.051 28.2179 19.8132 28.7656C18.5619 29.3192 17.8003 30.4621 17.0629 31.5672C16.5577 32.3259 16.0787 33.043 15.5126 33.4505C14.9474 33.8579 14.1161 34.0853 13.2345 34.3253C11.9542 34.6746 10.6294 35.0366 9.70806 36.0479C8.79742 37.0485 8.56226 38.3937 8.33484 39.6953C8.1771 40.6021 8.0271 41.4576 7.66806 42.0711C7.31581 42.673 6.75258 43.2334 6.25419 43.7269C4.94581 45.0276 4.13871 46.7801 3.97806 48.6159C2.83226 49.005 2 50.0792 2 51.3546C2 52.9553 3.30258 54.2579 4.90323 54.2579H6.11677C7.60129 58.8508 11.8681 61.9998 16.7542 61.9998H47.2458C52.1319 61.9998 56.3987 58.8508 57.8832 54.2579H59.0968C60.6974 54.2579 62 52.9553 62 51.3546C62 50.084 61.1735 49.0127 60.0345 48.6208ZM7.61968 45.1001C8.20226 44.5234 8.86032 43.8692 9.34032 43.0495C9.87548 42.135 10.0623 41.0637 10.2442 40.0282C10.4319 38.9521 10.609 37.935 11.1413 37.3505C11.6832 36.7553 12.6858 36.4824 13.7465 36.1921C14.7539 35.9172 15.7961 35.6327 16.6458 35.0201C17.4955 34.4076 18.0945 33.5085 18.6742 32.6405C19.2848 31.7259 19.8616 30.8617 20.5961 30.5356C21.321 30.2143 22.341 30.3692 23.421 30.5308C24.4603 30.6866 25.5345 30.8482 26.5729 30.6295C27.5823 30.4166 28.4852 29.8417 29.3571 29.2863C30.2919 28.6911 31.1755 28.1288 32 28.1288C32.8245 28.1288 33.7081 28.6911 34.6429 29.2863C35.5148 29.8417 36.4187 30.4166 37.429 30.6295C38.4645 30.8492 39.5406 30.6876 40.58 30.5308C41.66 30.3692 42.681 30.2163 43.4039 30.5356C44.1403 30.8608 44.7161 31.725 45.3268 32.6405C45.9064 33.5095 46.5055 34.4076 47.3552 35.0192C48.2048 35.6317 49.2461 35.9163 50.2535 36.1911C51.3152 36.4805 52.3168 36.7543 52.8587 37.3495C53.391 37.934 53.5671 38.9511 53.7558 40.0272C53.9377 41.0627 54.1245 42.133 54.6597 43.0485C55.0835 43.7705 55.6052 44.2708 56.0116 44.625C57.17 45.6343 57.8987 46.9998 58.0806 48.4514H5.94839C6.13226 47.1905 6.71387 46.0001 7.61968 45.1001ZM47.2458 60.0643H16.7542C12.9287 60.0643 9.56484 57.7292 8.17419 54.2579H55.8258C54.4352 57.7292 51.0713 60.0643 47.2458 60.0643ZM59.0968 52.3224H4.90323C4.36903 52.3224 3.93548 51.8879 3.93548 51.3546C3.93548 50.8214 4.36903 50.3869 4.90323 50.3869H59.0968C59.631 50.3869 60.0645 50.8214 60.0645 51.3546C60.0645 51.8879 59.631 52.3224 59.0968 52.3224Z" fill="black"/>
<path d="M15.5488 44.5808H13.6133V46.5163H15.5488V44.5808Z" fill="black"/>
<path d="M18.4511 39.7419H16.5156V41.6774H18.4511V39.7419Z" fill="black"/>
<path d="M23.291 35.8711H21.3555V37.8066H23.291V35.8711Z" fill="black"/>
<path d="M26.1933 40.7097H24.2578V42.6452H26.1933V40.7097Z" fill="black"/>
<path d="M31.0331 44.5808H29.0977V46.5163H31.0331V44.5808Z" fill="black"/>
<path d="M33.9355 32.9678H32V34.9033H33.9355V32.9678Z" fill="black"/>
<path d="M30.0644 36.8389H28.1289V38.7744H30.0644V36.8389Z" fill="black"/>
<path d="M36.8378 40.7097H34.9023V42.6452H36.8378V40.7097Z" fill="black"/>
<path d="M40.7089 35.8711H38.7734V37.8066H40.7089V35.8711Z" fill="black"/>
<path d="M26.1933 32H24.2578V33.9355H26.1933V32Z" fill="black"/>
<path d="M41.6777 44.5808H39.7422V46.5163H41.6777V44.5808Z" fill="black"/>
<path d="M45.5488 40.7097H43.6133V42.6452H45.5488V40.7097Z" fill="black"/>
<path d="M53.291 44.5808H51.3555V46.5163H53.291V44.5808Z" fill="black"/>
<path d="M47.4843 36.8389H45.5488V38.7744H47.4843V36.8389Z" fill="black"/>
<path d="M38.7734 32H36.8379V33.9355H38.7734V32Z" fill="black"/>
<path d="M33.2668 19.849C32.2709 20.8032 31.0332 21.9897 31.0332 24.2581H32.9687C32.9687 22.8161 33.6916 22.1232 34.6051 21.2465C35.6019 20.2923 36.8397 19.1048 36.8397 16.8374C36.8397 14.57 35.6019 13.3826 34.6061 12.4284C33.6916 11.5516 32.9687 10.8587 32.9687 9.41581C32.9687 7.97484 33.6906 7.2829 34.6051 6.4071C35.6009 5.45387 36.8397 4.26742 36.8397 2H34.9042C34.9042 3.44097 34.1822 4.1329 33.2677 5.00871C32.2719 5.96194 31.0332 7.14839 31.0332 9.41581C31.0332 11.6842 32.2709 12.8716 33.2677 13.8258C34.1813 14.7016 34.9042 15.3945 34.9042 16.8374C34.9042 18.2794 34.1813 18.9723 33.2668 19.849Z" fill="black"/>
<path d="M22.6203 14.3639C21.6245 15.3172 20.3867 16.5046 20.3867 18.773C20.3867 21.0414 21.6245 22.2288 22.6212 23.183C23.5348 24.0588 24.2577 24.7517 24.2577 26.1936H26.1932C26.1932 23.9252 24.9554 22.7388 23.9596 21.7846C23.0451 20.9078 22.3222 20.2149 22.3222 18.773C22.3222 17.331 23.0451 16.6381 23.9587 15.7614C24.9554 14.8072 26.1932 13.6197 26.1932 11.3514C26.1932 9.08393 24.9545 7.89748 23.9587 6.94426C23.0441 6.06845 22.3222 5.37651 22.3222 3.93555H20.3867C20.3867 6.20297 21.6254 7.38942 22.6212 8.34264C23.5358 9.21845 24.2577 9.91039 24.2577 11.3514C24.2577 12.7943 23.5348 13.4872 22.6203 14.3639Z" fill="black"/>
<path d="M12.9425 28.5587C11.9467 29.5129 10.709 30.6994 10.709 32.9678H12.6445C12.6445 31.5258 13.3674 30.8329 14.2809 29.9562C15.2777 29.002 16.5154 27.8146 16.5154 25.5471C16.5154 23.2797 15.2777 22.0923 14.2819 21.1381C13.3674 20.2613 12.6445 19.5684 12.6445 18.1255C12.6445 16.6846 13.3664 15.9926 14.2809 15.1168C15.2767 14.1636 16.5154 12.9771 16.5154 10.7097H14.58C14.58 12.1507 13.858 12.8426 12.9435 13.7184C11.9477 14.6717 10.709 15.8581 10.709 18.1255C10.709 20.3939 11.9467 21.5813 12.9435 22.5355C13.857 23.4113 14.58 24.1042 14.58 25.5471C14.58 26.9891 13.857 27.682 12.9425 28.5587Z" fill="black"/>
<path d="M44.8781 21.7846C43.8823 22.7388 42.6445 23.9252 42.6445 26.1936H44.58C44.58 24.7517 45.3029 24.0588 46.2165 23.182C47.2132 22.2278 48.451 21.0404 48.451 18.773C48.451 16.5055 47.2132 15.3181 46.2174 14.3639C45.3029 13.4872 44.58 12.7943 44.58 11.3514C44.58 9.91039 45.302 9.21845 46.2165 8.34264C47.2123 7.38942 48.451 6.20297 48.451 3.93555H46.5155C46.5155 5.37651 45.7936 6.06845 44.879 6.94426C43.8832 7.89748 42.6445 9.08393 42.6445 11.3514C42.6445 13.6197 43.8823 14.8072 44.879 15.7614C45.7926 16.6372 46.5155 17.3301 46.5155 18.773C46.5155 20.2149 45.7926 20.9078 44.8781 21.7846Z" fill="black"/>
</svg>
