<svg width="64" height="64" viewBox="0 0 64 64" fill="none" xmlns="http://www.w3.org/2000/svg">
<path d="M41.5461 16.7909C41.3615 22.7003 34.2961 27.7209 34.2961 27.7209C34.2961 27.7209 27.5285 23.1603 27.7127 17.2509C27.7956 14.588 29.276 12.1054 30.8777 10.1817C32.8302 7.8363 34.9626 6.32092 34.9626 6.32092C34.9626 6.32092 39.5111 9.38607 41.0487 13.747C41.3867 14.7053 41.5789 15.7263 41.5461 16.7909Z" fill="#00975C"/>
<path d="M22.6963 16.3994L29.434 12.1651C29.8535 11.4925 30.3205 10.8596 30.8003 10.2766C29.5476 7.70717 26.9722 5.94482 23.9981 5.94482C19.7944 5.94482 16.3867 9.46599 16.3867 13.8092" fill="#F04E45"/>
<path d="M22.6978 16.3982C18.4694 12.556 10.2611 14.1256 10.2611 14.1256C10.2611 14.1256 9.34937 18.6016 10.5683 22.5673H20.4103" fill="#32B673"/>
<path d="M46.9424 22.5673H52.6979C55.0725 18.0088 53.8647 11.2651 53.8647 11.2651C53.8647 11.2651 46.0679 9.43214 42.1543 13.7454" fill="#32B673"/>
<path d="M44.677 58.0562H19.3174C17.7319 58.0562 16.4463 56.7278 16.4463 55.0894C16.4463 53.451 17.7319 52.123 19.3174 52.123H44.677C46.2625 52.123 47.5481 53.451 47.5481 55.0894C47.5481 56.7278 46.2625 58.0562 44.677 58.0562Z" fill="#EEFFFF"/>
<path d="M55.9087 28.9041H8.09131C6.43573 28.9041 5.09375 27.5189 5.09375 25.8099V25.6621C5.09375 23.9536 6.43573 22.5679 8.09131 22.5679H55.9087C57.5643 22.5679 58.9062 23.9536 58.9062 25.6621V25.8099C58.9062 27.5189 57.5643 28.9041 55.9087 28.9041Z" fill="#EEFFFF"/>
<path d="M20.4097 22.568H30.0544C34.1222 19.8733 35.3847 14.3009 32.8605 10.0123L17.6074 19.5976C18.3363 20.8365 19.3027 21.8345 20.4097 22.568Z" fill="#FDDB59"/>
<path d="M46.8327 22.5675C47.0335 21.921 47.142 21.2312 47.142 20.5159C47.142 16.8117 44.2359 13.8087 40.6509 13.8087C37.0663 13.8087 34.1602 16.8117 34.1602 20.5159C34.1602 21.2312 34.2687 21.9205 34.4695 22.5675H46.8327Z" fill="#EE5D56"/>
<path d="M8.06055 33.609V34.1083C8.06055 44.0574 15.8663 52.1225 25.4948 52.1225H38.5095C48.1379 52.1225 55.9437 44.0574 55.9437 34.1083V33.609H8.06055Z" fill="#DFB28B"/>
<path d="M8.06055 28.9034H55.9437V33.6088H8.06055V28.9034Z" fill="#EEFFFF"/>
<path d="M50.2988 38.861C50.2279 38.861 50.1557 38.8531 50.0848 38.8385C50.0156 38.824 49.9468 38.8024 49.8801 38.7741C49.8143 38.7459 49.7511 38.7111 49.6921 38.6701C49.6319 38.6286 49.5759 38.5823 49.5255 38.5289C49.4755 38.4769 49.4294 38.4196 49.3888 38.3574C49.3495 38.2965 49.3157 38.2312 49.2884 38.1633C49.261 38.0954 49.2401 38.0244 49.226 37.9521C49.2119 37.8789 49.2051 37.8052 49.2051 37.7307C49.2051 37.6575 49.2119 37.5829 49.226 37.5106C49.2401 37.4383 49.261 37.3673 49.2884 37.2998C49.3157 37.2319 49.3495 37.1653 49.3888 37.1044C49.4294 37.0431 49.4755 36.9845 49.5255 36.9329C49.5759 36.8808 49.6319 36.8332 49.6921 36.7926C49.7511 36.752 49.8143 36.7172 49.8801 36.689C49.9468 36.6607 50.0156 36.6391 50.0848 36.6246C50.2258 36.595 50.371 36.595 50.5125 36.6246C50.5825 36.6391 50.6513 36.6607 50.7167 36.689C50.7833 36.7172 50.847 36.752 50.9059 36.7926C50.9662 36.8332 51.0217 36.8808 51.0721 36.9329C51.1226 36.9845 51.1687 37.0431 51.208 37.1044C51.2473 37.1653 51.2811 37.2319 51.3084 37.2998C51.3358 37.3673 51.3567 37.4383 51.3708 37.5106C51.3849 37.5829 51.3926 37.6575 51.3926 37.7307C51.3926 37.8052 51.3849 37.8789 51.3708 37.9521C51.3567 38.0244 51.3358 38.0954 51.3084 38.1633C51.2811 38.2312 51.2473 38.2965 51.208 38.3574C51.1687 38.4196 51.1226 38.4773 51.0721 38.5289C51.0217 38.5823 50.9662 38.6286 50.9059 38.6701C50.847 38.7111 50.7833 38.7459 50.7167 38.7741C50.6513 38.8024 50.5821 38.824 50.5125 38.8385C50.4424 38.8531 50.3702 38.861 50.2988 38.861Z" fill="black"/>
<path d="M55.9087 21.4387H54.3689C55.942 16.8124 54.9893 11.3193 54.9427 11.0605C54.8632 10.6168 54.5359 10.2648 54.11 10.1647C53.7772 10.0867 46.1397 8.35343 41.7617 12.5591C39.9053 8.33756 35.7499 5.5013 35.5637 5.37561C35.192 5.12511 34.7109 5.13128 34.3456 5.39105C34.2674 5.44617 32.6819 6.58138 30.9669 8.41032C29.3408 6.16108 26.7872 4.81506 24.0007 4.81506C19.5607 4.81506 15.8868 8.26655 15.36 12.709C12.5453 12.5564 10.2455 12.9811 10.063 13.016C9.62726 13.0993 9.28333 13.446 9.19189 13.8936C9.15686 14.0656 8.43652 17.6966 9.16199 21.4383H8.09131C5.83545 21.4387 4 23.333 4 25.6616V25.8093C4 27.7353 5.25482 29.3636 6.96466 29.8699V34.1082C6.96466 41.7379 11.3072 48.3397 17.5728 51.4132C16.2603 52.0818 15.3553 53.4786 15.3553 55.0892C15.3553 57.3477 17.134 59.185 19.3202 59.185H44.6798C46.866 59.185 48.6447 57.3477 48.6447 55.0892C48.6447 53.4781 47.7397 52.0818 46.4272 51.4132C52.6928 48.3397 57.0353 41.7379 57.0353 34.1082V29.8699C58.7452 29.3636 60 27.7353 60 25.8093V25.6616C60 23.333 58.1646 21.4387 55.9087 21.4387ZM52.8992 12.2332C53.1051 13.9439 53.4187 18.1897 52.0186 21.4387H48.1866C48.2213 21.1335 48.2388 20.8257 48.2388 20.5161C48.2388 17.4735 46.552 14.8304 44.0932 13.5329C46.9886 11.5663 51.2197 11.9699 52.8992 12.2332ZM20.7433 21.4387C20.1525 21.0127 19.6278 20.5095 19.1745 19.9353L23.2551 17.3711C23.2632 17.3663 23.2714 17.361 23.2795 17.3557L32.4294 11.6056C33.8666 15.0751 32.7665 19.2407 29.7236 21.4387H20.7433ZM35.2569 20.5161C35.2569 17.4404 37.6781 14.938 40.6539 14.938C43.6301 14.938 46.0513 17.4404 46.0513 20.5161C46.0513 20.827 46.0269 21.1353 45.9782 21.4387H35.33C35.2813 21.1353 35.2569 20.827 35.2569 20.5161ZM34.9783 7.71967C36.0187 8.53381 38.1459 10.3839 39.4251 12.7827C37.8071 13.0561 36.3596 13.8606 35.256 15.0165C35.2979 13.0623 34.801 11.1324 33.7966 9.42601C33.7094 9.27739 33.5911 9.15346 33.4518 9.06128C34.0525 8.48795 34.5921 8.03104 34.9783 7.71967ZM24.0007 7.07313C26.245 7.07313 28.2877 8.23965 29.4814 10.1608C29.1844 10.5511 28.9089 10.9427 28.6572 11.3326L22.7822 15.0244C21.2385 13.8716 19.3655 13.2537 17.536 12.9459C17.9474 9.63771 20.6895 7.07313 24.0007 7.07313ZM11.2123 15.1237C12.9867 14.8965 17.5253 14.5477 20.6998 16.3334L17.04 18.6334C16.5243 18.9571 16.3607 19.6513 16.6743 20.1836C16.9353 20.6277 17.2241 21.0462 17.5394 21.4387H11.4012C10.8291 18.9602 11.047 16.3726 11.2123 15.1237ZM54.8478 32.4799H9.15216V30.0326H54.8478V32.4799ZM44.6798 53.2514C45.6599 53.2514 46.4572 54.0761 46.4572 55.0892C46.4572 56.1027 45.6599 56.927 44.6798 56.927H19.3202C18.3401 56.927 17.5428 56.1027 17.5428 55.0892C17.5428 54.0757 18.3401 53.2514 19.3202 53.2514H44.6798ZM38.5074 50.9934H25.4926C18.0786 50.9934 11.8024 45.8646 9.81097 38.8607H45.8829C46.4871 38.8607 46.9767 38.3548 46.9767 37.7316C46.9767 37.108 46.4871 36.6026 45.8829 36.6026H9.3299C9.24188 35.9909 9.18591 35.3686 9.16327 34.7379H54.8367C54.515 43.7578 47.3134 50.9934 38.5074 50.9934ZM57.8125 25.8093C57.8125 26.8934 56.9584 27.7745 55.9087 27.7745H8.09131C7.04156 27.7745 6.1875 26.8934 6.1875 25.8093V25.6616C6.1875 24.578 7.04156 23.6964 8.09131 23.6964H55.9087C56.9584 23.6964 57.8125 24.578 57.8125 25.6616V25.8093Z" fill="black"/>
</svg>
