<svg width="64" height="64" viewBox="0 0 64 64" fill="none" xmlns="http://www.w3.org/2000/svg">
<path d="M8 28C10.6667 25.3333 18.6667 24 32 24C33.722 24 35.3545 24.022 36.836 24.082C44.008 24.5483 48.896 25.1877 51.5 26C54.1043 26.8127 55.6043 27.4793 56 28C52.2513 32 44.5847 34 33 34C19.3333 34 11 32 8 28Z" fill="#CCAC90"/>
<path d="M12 31C14.7083 29.3333 21.375 28.5 32 28.5C32.595 28.5 33.1825 28.5045 33.751 28.521C33.799 28.522 43.3125 28.875 46.5 29.5C48.625 29.9167 50.625 30.4167 52.5 31C47.625 33 41.125 34 33 34C23.75 34 16.75 33 12 31Z" fill="#FF923F"/>
<path d="M16 50.5C18.6563 52.8333 23.9897 54 32 54C40.0103 54 45.3437 52.8333 48 50.5L50 56.5C46.0103 58.8333 40.0103 60 32 60C23.9897 60 17.9897 58.8333 14 56.5L16 50.5Z" fill="#CCAC90"/>
<path d="M16 50.5C19.1147 52.974 24.448 54.1407 32 54C34.1067 53.9607 37.94 53.6273 43.5 53L45.5 58.5C40.573 59.4843 36.073 59.9843 32 60C25.255 60.026 19.255 58.8593 14 56.5L16 50.5Z" fill="#DFB28B"/>
<path d="M32 34C18.7777 34 10.7777 32 8 28C8 44.0155 12 46.5 16 50.5C18.6877 52.8333 24.021 54 32 54C39.9793 54 45.3127 52.8333 48 50.5C52.0315 46.469 56 44.086 56 28C53.2223 32 45.2223 34 32 34Z" fill="#CCAC90"/>
<path d="M30.5 34C18.1043 34 10.6043 32 8 28C8 44.0155 11.75 46.5 15.5 50.5C19.25 53 25.4167 54.1667 34 54C36.5605 53.9505 41.414 53.6135 42 53C49.8975 50.4645 53 43.2575 53 30.5C50.3957 32.8333 42.8957 34 30.5 34Z" fill="#DFB28B"/>
<path d="M57 14C60.75 14 60.8635 16.7045 57 17C51.2815 17.4375 45.6535 22.4345 45 26C44.297 29.836 40.711 30.469 37.5 30.5C33.5 30.539 32.1565 26.8125 36 24.5C39.123 22.6215 40.0315 23.9065 42.5 21.5C47.68 16.451 53.25 14 57 14Z" fill="#FFD7B4"/>
<path d="M22.8672 3.49298C22.5914 3.49729 22.3711 3.72417 22.375 4.00001C22.375 4.79672 22.014 5.1462 21.5148 5.66486C21.0157 6.18351 20.375 6.87213 20.375 8.00001C20.375 9.1281 21.0198 9.80511 21.5172 10.3141C22.0145 10.823 22.375 11.1667 22.375 12C22.375 12.8333 22.017 13.1667 21.5187 13.6727C21.0205 14.1787 20.375 14.8592 20.375 16C20.375 17.1408 21.0273 17.8054 21.5227 18.2969C22.018 18.7884 22.375 19.1125 22.375 20C22.3654 20.6762 23.3846 20.6762 23.375 20C23.375 18.794 22.732 18.0875 22.2273 17.5867C21.7227 17.086 21.375 16.7967 21.375 16C21.375 15.2033 21.7295 14.8839 22.2313 14.3742C22.733 13.8646 23.375 13.1667 23.375 12C23.375 10.8333 22.7355 10.13 22.2328 9.61564C21.7302 9.10123 21.375 8.77842 21.375 8.00001C21.375 7.2219 21.7343 6.87908 22.2352 6.35861C22.736 5.83814 23.375 5.14081 23.375 4.00001C23.379 3.71805 23.1491 3.48858 22.8672 3.49298ZM34.4922 3.49298C34.2164 3.49729 33.9961 3.72417 34 4.00001C34 4.79672 33.639 5.1462 33.1398 5.66486C32.6407 6.18351 32 6.87213 32 8.00001C32 9.1281 32.6448 9.80511 33.1422 10.3141C33.6395 10.823 34 11.1667 34 12C34 12.8333 33.642 13.1667 33.1437 13.6727C32.6455 14.1787 32 14.8592 32 16C32 17.1408 32.6523 17.8054 33.1477 18.2969C33.643 18.7884 34 19.1125 34 20C33.9904 20.6762 35.0096 20.6762 35 20C35 18.794 34.357 18.0875 33.8523 17.5867C33.3477 17.086 33 16.7967 33 16C33 15.2033 33.3545 14.8839 33.8563 14.3742C34.358 13.8646 35 13.1667 35 12C35 10.8333 34.3605 10.13 33.8578 9.61564C33.3552 9.10123 33 8.77842 33 8.00001C33 7.2219 33.3593 6.87908 33.8602 6.35861C34.361 5.83814 35 5.14081 35 4.00001C35.004 3.71805 34.7741 3.48858 34.4922 3.49298ZM10.375 6.49298C10.0992 6.49728 9.87893 6.72417 9.88281 7.00001C9.88281 7.79672 9.52178 8.1462 9.02266 8.66486C8.52353 9.18351 7.88281 9.87213 7.88281 11C7.88281 12.1281 8.52688 12.8051 9.02422 13.3141C9.52156 13.823 9.88281 14.1667 9.88281 15C9.88281 15.8333 9.52476 16.1667 9.02656 16.6727C8.52836 17.1787 7.88281 17.8592 7.88281 19C7.88281 20.1408 8.53512 20.8054 9.03047 21.2969C9.52582 21.7884 9.88281 22.1125 9.88281 23C9.87325 23.6762 10.8924 23.6762 10.8828 23C10.8828 21.794 10.239 21.0875 9.73438 20.5867C9.22973 20.086 8.88281 19.7967 8.88281 19C8.88281 18.2033 9.23726 17.8839 9.73906 17.3742C10.2409 16.8646 10.8828 16.1667 10.8828 15C10.8828 13.8333 10.2433 13.13 9.74063 12.6156C9.23797 12.1012 8.88281 11.7784 8.88281 11C8.88281 10.2219 9.24209 9.87908 9.74297 9.35861C10.2438 8.83814 10.8828 8.14081 10.8828 7.00001C10.8868 6.71805 10.657 6.48858 10.375 6.49298ZM28.4297 11.493C28.1539 11.4973 27.9336 11.7242 27.9375 12C27.9375 12.8333 27.5795 13.1667 27.0812 13.6727C26.583 14.1787 25.9375 14.8592 25.9375 16C25.9375 17.1408 26.5898 17.8054 27.0852 18.2969C27.5805 18.7884 27.9375 19.1125 27.9375 20C27.9279 20.6762 28.9471 20.6762 28.9375 20C28.9375 18.794 28.2945 18.0875 27.7898 17.5867C27.2852 17.086 26.9375 16.7967 26.9375 16C26.9375 15.2033 27.292 14.8839 27.7938 14.3742C28.2955 13.8646 28.9375 13.1667 28.9375 12C28.9414 11.7181 28.7116 11.4886 28.4297 11.493ZM40.5547 11.493C40.2789 11.4973 40.0586 11.7242 40.0625 12C40.0625 12.8333 39.7045 13.1667 39.2062 13.6727C38.708 14.1787 38.0625 14.8592 38.0625 16C38.0625 17.1408 38.7148 17.8054 39.2102 18.2969C39.7055 18.7884 40.0625 19.1125 40.0625 20C40.0529 20.6762 41.0721 20.6762 41.0625 20C41.0625 18.794 40.4195 18.0875 39.9148 17.5867C39.4102 17.086 39.0625 16.7967 39.0625 16C39.0625 15.2033 39.417 14.8839 39.9188 14.3742C40.4205 13.8646 41.0625 13.1667 41.0625 12C41.0664 11.7181 40.8366 11.4886 40.5547 11.493ZM16.6211 12.493C16.3453 12.4973 16.125 12.7242 16.1289 13C16.1289 13.8333 15.7709 14.1667 15.2727 14.6727C14.7745 15.1787 14.1289 15.8592 14.1289 17C14.1289 18.1408 14.7812 18.8054 15.2766 19.2969C15.7719 19.7884 16.1289 20.1125 16.1289 21C16.1193 21.6762 17.1385 21.6762 17.1289 21C17.1289 19.794 16.4859 19.0875 15.9812 18.5867C15.4766 18.086 15.1289 17.7967 15.1289 17C15.1289 16.2033 15.4834 15.8839 15.9852 15.3742C16.487 14.8646 17.1289 14.1667 17.1289 13C17.1329 12.7181 16.903 12.4886 16.6211 12.493ZM57 13.5C53.0321 13.5 47.4019 16.0238 42.1516 21.1414C40.9711 22.2922 40.2806 22.5031 39.3828 22.711C38.6668 22.8767 37.8045 23.0291 36.6633 23.5766C35.2218 23.5217 33.6551 23.5 32 23.5C25.3167 23.5 19.9624 23.833 15.918 24.507C11.8994 25.1768 9.16384 26.1539 7.67656 27.6188C7.51888 27.7455 7.50874 27.9348 7.50078 28.0953C7.50223 29.5025 7.5337 30.81 7.59375 32.0242C7.62604 32.6904 8.62526 32.6419 8.59297 31.9758C8.55248 31.1571 8.54435 30.2259 8.53047 29.3172C10.1424 30.9252 12.5978 32.1442 15.9617 32.9852C20.0246 34.0009 25.3636 34.5 32 34.5C38.6364 34.5 43.9754 34.0009 48.0383 32.9852C51.3922 32.1467 53.8437 30.9328 55.4562 29.332C55.3433 36.4436 54.4217 40.7264 53.0617 43.5539C51.6176 46.5564 49.699 48.0972 47.6688 50.1242C45.5746 51.5502 43.4059 52.3129 41.4625 52.7234C40.8089 52.8552 41.0065 53.8357 41.6602 53.7039C43.8135 53.2338 46.0474 52.5488 47.7508 51.3344L49.3836 56.2336C45.516 58.372 39.7411 59.5 32 59.5C24.2589 59.5 18.484 58.372 14.6164 56.2336L16.2492 51.3359C18.2558 52.7933 21.2714 53.7178 25.3047 54.1695C27.3267 54.4301 29.5542 54.5421 32 54.5H32.0086C32.0123 54.5 32.0158 54.5001 32.0195 54.5C34.6347 54.4644 36.979 54.3717 39.3562 54.0752C40.0393 54.0042 39.9011 52.973 39.2234 53.0844C37.1587 53.3617 34.7415 53.4526 32 53.5C28.6964 53.5 25.8669 53.2879 23.5008 52.8867C20.5351 52.3283 18.1392 51.3988 16.3172 50.111C13.0903 46.8917 10.0695 44.862 8.95938 35.9383C8.93082 35.677 8.70483 35.4824 8.44219 35.493C8.14689 35.505 7.92634 35.769 7.96719 36.0617C9.08147 45.0185 12.3227 47.5697 15.4266 50.6375L13.525 56.3414C13.4505 56.5661 13.5437 56.8123 13.7484 56.9313C17.864 59.3382 23.9411 60.5 32 60.5C40.0589 60.5 46.1368 59.3382 50.2523 56.9313C50.4568 56.8121 50.5497 56.566 50.475 56.3414L48.5742 50.6383C50.4983 48.74 52.4761 47.0761 53.9617 43.9875C55.4979 40.7938 56.4912 36.1199 56.4992 28.0961C56.4992 27.9418 56.4832 27.7925 56.3828 27.6781C56.3622 27.6505 56.3325 27.6289 56.311 27.6078C54.6163 25.9374 51.2672 24.8951 46.2383 24.2508C46.9304 23.0717 48.0334 21.8126 49.411 20.7187C51.5495 19.0207 54.311 17.7079 57.0383 17.4992C58.0622 17.4209 58.8523 17.1858 59.4219 16.8312C59.9915 16.4767 60.3662 15.9579 60.3547 15.3789C60.3432 14.7999 59.943 14.3008 59.3633 13.9875C58.7836 13.6742 57.9976 13.5 57 13.5ZM57 14.5C57.8774 14.5 58.512 14.6642 58.8875 14.8672C59.263 15.0702 59.3528 15.2652 59.3555 15.3992C59.358 15.5333 59.2715 15.7472 58.893 15.9828C58.5144 16.2185 57.8696 16.4314 56.9617 16.5008C53.9705 16.7296 51.0583 18.1348 48.7898 19.936C46.5214 21.7371 44.873 23.9178 44.5078 25.9102C44.1826 27.6847 43.2546 28.6335 41.9805 29.2235C40.7063 29.8134 39.0698 29.9848 37.4953 30C35.6511 30.018 34.5689 29.1987 34.2891 28.2414C34.0092 27.2841 34.4598 26.0107 36.2578 24.9289C37.2813 24.2746 38.543 23.9305 39.6086 23.686C40.5629 23.465 41.5604 23.1143 42.8484 21.8586C47.9581 16.8782 53.4679 14.5 57 14.5ZM32 24.5C33.0675 24.5 34.0809 24.5135 35.0625 24.5344C33.7208 25.5655 33.1144 26.8443 33.2328 28.0156C32.8245 28.0085 32.4172 28 32 28C26.6744 28 22.3345 28.2082 18.9688 28.6289C15.7104 29.0362 13.378 29.628 11.8906 30.4906C10.4798 29.7908 9.41074 28.9784 8.67578 28.0664C9.97495 27.0041 12.4497 26.0984 16.082 25.493C20.0376 24.8337 25.35 24.5 32 24.5ZM43.0234 24.993C42.7672 24.9819 42.5441 25.1665 42.507 25.4203C42.2622 26.9369 41.4883 27.7134 39.9078 28.0086C38.2549 28.3174 37.0753 28.1421 36.2875 27.5906C35.7415 27.2065 35.1659 28.0262 35.7125 28.4094C36.8 29.1706 38.2871 29.3286 40.0922 28.9914C41.9704 28.6406 43.1964 27.4171 43.493 25.5797C43.5456 25.2825 43.3249 25.0068 43.0234 24.993ZM45.7617 25.1969C50.5851 25.791 53.7962 26.8117 55.3258 28.0649C54.5864 28.983 53.5079 29.8001 52.0836 30.5031C49.7186 29.7687 47.0984 29.1983 44.1977 28.8078C44.8187 28.1131 45.2847 27.222 45.4922 26.0899C45.5439 25.8075 45.6357 25.5078 45.7617 25.1969ZM32 29C32.5213 29 33.0292 29.0061 33.5273 29.018C34.1395 30.2207 35.6001 31.0186 37.5047 31C39.1412 30.9842 40.9027 30.8246 42.4 30.1313C42.6722 30.0052 42.931 29.8523 43.1812 29.686C45.9211 30.0132 48.4018 30.4995 50.6508 31.1258C49.794 31.4548 48.8452 31.7526 47.7961 32.0149C43.859 32.9991 38.586 33.5 32 33.5C25.414 33.5 20.141 32.9991 16.2039 32.0149C15.0409 31.7241 14.0003 31.3897 13.0734 31.0172C14.397 30.4413 16.4086 29.9567 19.0938 29.6211C22.3946 29.2085 26.7006 29 32 29ZM8 33.5C7.72386 33.5 7.5 33.7239 7.5 34C7.5 34.2762 7.72386 34.5 8 34.5C8.27614 34.5 8.5 34.2762 8.5 34C8.5 33.7239 8.27614 33.5 8 33.5Z" fill="black"/>
</svg>
